<svg xmlns="http://www.w3.org/2000/svg" xmlns:xlink="http://www.w3.org/1999/xlink" width="330" zoomAndPan="magnify" viewBox="0 0 247.92 67.92" height="80" preserveAspectRatio="xMidYMid meet" version="1.0"><defs><g/><clipPath id="69dd12def1"><path d="M 173 2 L 213.863281 2 L 213.863281 45.539062 L 173 45.539062 Z M 173 2 " clip-rule="nonzero"/></clipPath><clipPath id="936ae68697"><path d="M 171.910156 3 L 202 3 L 202 44 L 171.910156 44 Z M 171.910156 3 " clip-rule="nonzero"/></clipPath></defs><g fill="#4a3226" fill-opacity="1"><g transform="translate(22.586173, 38.964667)"><g><path d="M 12.828125 0 L 12.828125 -26.359375 L 0.375 -26.359375 L 0.375 -29.25 L 28.703125 -29.25 L 28.703125 -26.359375 L 16.25 -26.359375 L 16.25 0 Z M 12.828125 0 "/></g></g></g><g fill="#4a3226" fill-opacity="1"><g transform="translate(51.661586, 38.964667)"><g><path d="M 3.890625 0 L 3.890625 -29.25 L 26.53125 -29.25 L 26.53125 -26.359375 L 7.359375 -26.359375 L 7.359375 -16.046875 L 25.78125 -16.046875 L 25.78125 -13.15625 L 7.359375 -13.15625 L 7.359375 -2.921875 L 26.53125 -2.921875 L 26.53125 0 Z M 3.890625 0 "/></g></g></g><g fill="#4a3226" fill-opacity="1"><g transform="translate(80.653442, 38.964667)"><g><path d="M 3.890625 0 L 3.890625 -29.25 L 18.921875 -29.25 C 20.234375 -29.25 21.640625 -29.09375 23.140625 -28.78125 C 24.648438 -28.476562 25.988281 -27.851562 27.15625 -26.90625 C 28.132812 -26.125 28.875 -25.140625 29.375 -23.953125 C 29.875 -22.773438 30.125 -21.5625 30.125 -20.3125 C 30.125 -19.03125 29.859375 -17.78125 29.328125 -16.5625 C 28.796875 -15.351562 28.003906 -14.34375 26.953125 -13.53125 C 26.054688 -12.84375 24.988281 -12.304688 23.75 -11.921875 C 22.507812 -11.546875 21.082031 -11.347656 19.46875 -11.328125 L 19.46875 -11.28125 L 18.71875 -11.28125 L 30.171875 -0.203125 L 30.171875 0 L 25.828125 0 L 14.15625 -11.28125 L 7.359375 -11.28125 L 7.359375 0 Z M 7.359375 -14.15625 L 19.421875 -14.15625 C 21.816406 -14.25 23.613281 -14.804688 24.8125 -15.828125 C 25.425781 -16.359375 25.882812 -17.023438 26.1875 -17.828125 C 26.5 -18.640625 26.65625 -19.476562 26.65625 -20.34375 C 26.65625 -21.175781 26.515625 -21.984375 26.234375 -22.765625 C 25.960938 -23.546875 25.546875 -24.175781 24.984375 -24.65625 C 24.117188 -25.40625 23.109375 -25.875 21.953125 -26.0625 C 20.796875 -26.257812 19.785156 -26.359375 18.921875 -26.359375 L 7.359375 -26.359375 Z M 7.359375 -14.15625 "/></g></g></g><g fill="#4a3226" fill-opacity="1"><g transform="translate(112.444223, 38.964667)"><g><path d="M 3.890625 0 L 3.890625 -29.25 L 18.921875 -29.25 C 20.234375 -29.25 21.640625 -29.09375 23.140625 -28.78125 C 24.648438 -28.476562 25.988281 -27.851562 27.15625 -26.90625 C 28.132812 -26.125 28.875 -25.140625 29.375 -23.953125 C 29.875 -22.773438 30.125 -21.5625 30.125 -20.3125 C 30.125 -19.03125 29.859375 -17.78125 29.328125 -16.5625 C 28.796875 -15.351562 28.003906 -14.34375 26.953125 -13.53125 C 26.054688 -12.84375 24.988281 -12.304688 23.75 -11.921875 C 22.507812 -11.546875 21.082031 -11.347656 19.46875 -11.328125 L 19.46875 -11.28125 L 18.71875 -11.28125 L 30.171875 -0.203125 L 30.171875 0 L 25.828125 0 L 14.15625 -11.28125 L 7.359375 -11.28125 L 7.359375 0 Z M 7.359375 -14.15625 L 19.421875 -14.15625 C 21.816406 -14.25 23.613281 -14.804688 24.8125 -15.828125 C 25.425781 -16.359375 25.882812 -17.023438 26.1875 -17.828125 C 26.5 -18.640625 26.65625 -19.476562 26.65625 -20.34375 C 26.65625 -21.175781 26.515625 -21.984375 26.234375 -22.765625 C 25.960938 -23.546875 25.546875 -24.175781 24.984375 -24.65625 C 24.117188 -25.40625 23.109375 -25.875 21.953125 -26.0625 C 20.796875 -26.257812 19.785156 -26.359375 18.921875 -26.359375 L 7.359375 -26.359375 Z M 7.359375 -14.15625 "/></g></g></g><g fill="#4a3226" fill-opacity="1"><g transform="translate(144.235005, 38.964667)"><g><path d="M 0.578125 0 L 15.578125 -29.546875 L 19.09375 -29.546875 L 34.046875 0 L 30.25 0 L 26.359375 -7.6875 L 8.265625 -7.6875 L 4.390625 0 Z M 9.734375 -10.578125 L 24.90625 -10.578125 L 17.34375 -25.53125 Z M 9.734375 -10.578125 "/></g></g></g><g clip-path="url(#69dd12def1)"><path fill="#79af57" d="M 194.109375 45.511719 C 211.429688 37.941406 198.753906 26.4375 208.203125 12.453125 C 209.039062 19.15625 210.71875 26.429688 207.003906 33.523438 C 210.804688 27.527344 212.644531 14.929688 207.253906 9.371094 C 205.851562 7.921875 204.210938 6.644531 202.371094 5.597656 C 192.519531 0.015625 180.144531 2.980469 173.839844 12.136719 C 180.011719 2.519531 192.703125 -0.699219 202.765625 5.003906 C 204.816406 6.164062 206.601562 7.613281 208.105469 9.265625 C 208.578125 9.777344 209.019531 10.3125 209.425781 10.867188 C 214.472656 17.554688 215.371094 26.859375 210.980469 34.609375 C 207.339844 41.027344 200.929688 44.878906 194.109375 45.511719 " fill-opacity="1" fill-rule="evenodd"/></g><g clip-path="url(#936ae68697)"><path fill="#4a3226" d="M 182.507812 6.949219 C 182.441406 7.261719 182.542969 7.570312 182.679688 7.757812 C 182.808594 7.71875 182.976562 7.582031 183.074219 7.492188 C 183.066406 7.289062 182.984375 7.273438 182.898438 7.113281 C 182.78125 6.894531 182.765625 6.9375 182.507812 6.949219 Z M 181.726562 7.589844 C 181.894531 7.675781 182.0625 7.675781 182.15625 7.492188 C 182.289062 7.027344 181.78125 6.894531 181.5625 7.203125 C 181.4375 7.394531 181.5625 7.507812 181.726562 7.589844 Z M 181.535156 10.351562 C 181.578125 10.183594 181.628906 10.316406 181.59375 9.929688 C 181.351562 9.851562 181.171875 9.886719 181.003906 10.070312 C 180.742188 10.351562 180.953125 10.402344 180.867188 10.640625 C 180.65625 10.667969 180.6875 10.589844 180.453125 10.667969 C 180.292969 11.097656 180.65625 11.0625 180.839844 11.214844 C 180.910156 11.273438 180.9375 11.328125 181.003906 11.378906 C 181.769531 11.265625 181.492188 10.519531 181.535156 10.351562 Z M 182.925781 9.640625 C 182.710938 9.578125 182.464844 9.429688 182.0625 9.65625 C 181.878906 9.75 181.859375 10.238281 181.859375 10.445312 L 181.875 10.675781 L 182.238281 10.695312 C 182.371094 10.148438 182.316406 10.464844 182.652344 10.210938 C 182.773438 10.113281 182.757812 10.035156 182.828125 9.929688 C 182.941406 9.761719 182.933594 9.867188 182.925781 9.640625 Z M 182.773438 8.519531 C 182.773438 8.898438 182.757812 8.953125 182.921875 9.214844 L 184.699219 8.980469 C 184.921875 8.960938 185.414062 9.144531 185.414062 8.398438 C 185.414062 8.195312 185.21875 8.082031 184.972656 8.082031 C 184.558594 8.082031 184.085938 8.609375 183.636719 8.460938 C 183.398438 8.386719 183.644531 8.417969 183.292969 8.378906 L 183.265625 8.371094 L 183.214844 8.355469 C 183.3125 8.136719 183.398438 8.425781 183.398438 8.109375 C 183.398438 7.90625 183.160156 7.898438 182.96875 7.894531 C 182.757812 7.886719 182.574219 7.859375 182.402344 7.878906 C 182.183594 7.914062 182.238281 8.136719 182.371094 8.257812 C 182.492188 8.363281 182.6875 8.363281 182.773438 8.519531 Z M 180.757812 8.582031 C 180.6875 8.875 180.734375 9.011719 181.113281 9.269531 C 181.199219 9.332031 181.347656 9.355469 181.480469 9.320312 C 181.78125 9.242188 181.753906 9.082031 181.761719 9.023438 L 182.148438 9.304688 C 182.519531 9.199219 182.675781 9.066406 182.476562 8.722656 L 182.140625 8.695312 C 182.015625 8.460938 181.980469 8.117188 181.59375 8.363281 C 181.316406 8.539062 181.171875 8.582031 180.757812 8.582031 Z M 178.050781 9.824219 C 178.15625 10.234375 178.902344 10.410156 179.300781 10.210938 C 179.597656 10.070312 179.527344 9.894531 179.808594 9.8125 C 180.039062 9.75 179.925781 9.769531 180.089844 9.648438 C 180.179688 9.578125 180.335938 9.542969 180.410156 9.480469 C 180.40625 9.179688 180.363281 9.207031 180.164062 9.09375 C 180.207031 8.980469 180.199219 9.023438 180.171875 8.820312 C 179.660156 8.800781 179.90625 9.074219 179.707031 9.429688 L 179.246094 9.171875 C 179.046875 9.015625 179.007812 8.960938 178.761719 9.144531 C 178.535156 9.3125 178.140625 9.585938 178.050781 9.824219 Z M 187.296875 31.523438 C 187.003906 31.355469 186.140625 31.230469 186.019531 31.988281 C 186.222656 32.023438 186.214844 31.960938 186.414062 32.046875 C 186.769531 32.183594 187.257812 32.039062 187.46875 31.882812 C 187.46875 31.742188 187.445312 31.609375 187.296875 31.523438 Z M 185.949219 31.222656 C 185.789062 31.167969 185.6875 31.066406 185.511719 30.976562 C 185.359375 30.898438 185.175781 30.828125 185.035156 30.757812 C 183.765625 30.15625 183.855469 30.484375 183.398438 30.492188 L 183.398438 30.871094 C 184.050781 30.820312 184.171875 30.800781 184.894531 31.1875 C 185.308594 31.414062 185.140625 31.460938 185.402344 31.484375 L 185.492188 31.488281 C 185.542969 31.503906 185.914062 31.863281 185.949219 31.222656 Z M 198.863281 14.308594 C 199.046875 14.265625 199.089844 14.210938 199.238281 14.414062 C 199.210938 14.535156 199.285156 14.46875 199.082031 14.519531 C 199.210938 15.195312 199.246094 14.675781 199.273438 15.089844 C 199.511719 15.136719 199.441406 15.082031 199.511719 15.335938 C 200.101562 15.417969 199.847656 15.539062 200.152344 15.539062 C 200.347656 15.539062 200.699219 15.375 200.824219 15.292969 C 201 15.179688 201.199219 14.933594 201.347656 14.878906 C 201.347656 14.519531 201.28125 14.335938 201.085938 14.132812 C 200.574219 13.605469 200.683594 14 200.4375 14 L 199.539062 14 C 199.328125 14 199.574219 13.84375 199.117188 13.789062 C 198.96875 13.984375 198.90625 13.972656 198.863281 14.308594 Z M 191.058594 9.636719 C 191.136719 10.09375 190.714844 10.132812 191.03125 10.519531 C 191.332031 10.5 191.210938 10.351562 191.5625 10.316406 C 191.605469 10.386719 191.621094 10.386719 191.65625 10.464844 C 191.703125 10.585938 191.648438 10.554688 191.734375 10.640625 C 191.851562 10.765625 192.046875 10.625 191.941406 10.976562 C 191.667969 10.949219 191.78125 10.789062 191.523438 10.789062 C 190.875 10.789062 191.113281 11.828125 191.4375 11.828125 C 191.65625 11.828125 191.761719 11.75 191.929688 11.679688 C 191.929688 11.503906 191.914062 11.503906 191.84375 11.386719 L 192.054688 11.386719 C 192.292969 12.121094 191.628906 11.960938 191.5 12.3125 C 191.472656 12.398438 191.394531 12.460938 191.394531 12.574219 C 191.410156 14.371094 191.464844 13.296875 191.628906 13.984375 C 191.664062 14.140625 191.699219 14.40625 191.710938 14.597656 C 191.9375 14.582031 192 14.492188 192.1875 14.554688 C 192.183594 14.675781 192.054688 14.714844 192.054688 14.941406 C 192.054688 15.417969 192.105469 15.503906 192.40625 15.855469 C 192.5 15.960938 192.597656 16.007812 192.640625 16.113281 C 192.746094 16.417969 192.5625 16.410156 192.984375 16.507812 C 193.722656 16.683594 193.707031 17.296875 194.289062 16.851562 C 194.296875 16.421875 194.4375 16.304688 194.453125 15.96875 C 194.464844 15.550781 194.535156 15.40625 194.796875 15.234375 C 194.796875 14.96875 194.773438 14.738281 194.84375 14.503906 C 194.949219 14.183594 195.007812 14.378906 195.097656 13.984375 C 195.535156 13.902344 195.808594 13.914062 196.136719 13.667969 C 196.546875 13.359375 196.714844 12.945312 196.863281 12.832031 C 196.871094 12.824219 196.945312 12.777344 196.960938 12.769531 C 197.171875 12.644531 197.460938 12.621094 197.742188 12.558594 C 198.824219 12.339844 198.191406 12.109375 198.84375 12.109375 C 198.914062 11.976562 199 11.898438 199.070312 11.773438 C 199.152344 11.617188 199.132812 11.496094 199.265625 11.398438 L 199.140625 11.011719 C 199.089844 10.730469 199.0625 10.929688 198.949219 10.722656 C 198.90625 10.5625 199.011719 10.210938 199 10.121094 C 198.964844 9.921875 198.886719 10.140625 198.886719 9.910156 C 198.886719 9.742188 198.941406 9.78125 198.96875 9.753906 C 199.035156 9.683594 199.054688 9.675781 199.046875 9.683594 C 199.082031 9.640625 199.039062 9.691406 199.082031 9.621094 C 199.140625 9.53125 199.105469 9.558594 199.179688 9.464844 C 199.589844 8.933594 199.203125 9.023438 199.140625 8.6875 C 199.335938 8.707031 199.292969 8.839844 199.503906 8.917969 C 199.644531 8.777344 199.6875 8.742188 199.664062 8.476562 C 199.0625 8.335938 199.398438 8.386719 199.039062 8.074219 C 199.019531 8.0625 198.308594 7.578125 198.757812 7.578125 C 198.941406 7.578125 199.003906 7.695312 199.175781 7.578125 C 199.335938 7.371094 198.90625 7.167969 198.828125 7.105469 C 198.675781 6.992188 198.449219 6.875 198.449219 6.632812 C 198.449219 5.96875 199.003906 5.777344 199.011719 5.265625 C 197.023438 4.640625 197.726562 5.152344 197.355469 5.179688 L 197.367188 4.792969 C 196.792969 4.597656 197.09375 4.710938 196.644531 4.898438 C 196.546875 4.773438 196.628906 4.816406 196.554688 4.667969 C 196.496094 4.554688 196.488281 4.597656 196.433594 4.503906 C 196.382812 4.433594 196.371094 4.359375 196.335938 4.316406 C 196.273438 4.230469 196.222656 4.246094 196.179688 4.175781 L 199.167969 5.074219 C 197.59375 4.464844 195.933594 4.042969 194.207031 3.839844 C 194.210938 3.84375 194.21875 3.84375 194.21875 3.84375 C 194.039062 4.230469 193.65625 3.921875 193.480469 3.921875 C 193.160156 3.921875 193.40625 4.011719 193.039062 4.054688 C 192.378906 4.140625 191.726562 4.125 191.070312 4.082031 C 190.71875 4.0625 190.511719 4.226562 190.144531 4.167969 C 189.890625 4.125 189.6875 4.019531 189.398438 4.054688 C 188.625 4.160156 187.964844 4.324219 187.207031 4.449219 C 186.460938 4.574219 185.964844 4.960938 185.167969 4.960938 C 185.023438 5.125 185.132812 5.160156 184.847656 5.179688 C 184.640625 5.203125 184.535156 5.238281 184.472656 5.40625 C 184.570312 5.609375 184.640625 5.480469 184.71875 5.6875 C 184.355469 5.695312 184.535156 5.59375 184.320312 5.59375 L 183.988281 5.59375 C 183.898438 5.652344 183.355469 6.164062 183.273438 6.25 C 183.117188 6.417969 183.179688 6.515625 183.277344 6.734375 C 183.519531 7.246094 183.636719 7.105469 183.925781 6.988281 C 184.074219 7.15625 184.039062 7.09375 184.03125 7.464844 C 183.90625 7.554688 183.734375 7.652344 183.625 7.78125 C 183.628906 7.789062 183.664062 7.835938 183.679688 7.851562 C 183.9375 8.136719 184.910156 7.878906 185.09375 7.710938 C 185.300781 7.808594 185.28125 7.863281 185.570312 7.765625 C 186.246094 7.519531 185.863281 7.421875 186.117188 6.957031 C 186.273438 6.683594 186.292969 6.738281 186.527344 6.691406 C 186.785156 6.628906 186.917969 5.875 187.523438 5.582031 C 187.894531 5.40625 188.023438 5.285156 188.34375 5.019531 C 188.589844 4.820312 188.5625 4.921875 188.570312 4.539062 C 188.773438 4.527344 188.949219 4.554688 189.203125 4.476562 C 189.363281 4.429688 189.609375 4.335938 189.800781 4.429688 C 189.792969 4.597656 189.8125 4.527344 189.546875 4.617188 C 189.230469 4.722656 189 4.890625 188.691406 4.984375 L 188.695312 5.277344 C 188.851562 5.285156 188.941406 5.300781 189.019531 5.40625 C 188.941406 5.574219 188.914062 5.410156 188.78125 5.6875 C 188.191406 5.6875 188.132812 5.933594 187.679688 6.066406 C 187.496094 6.121094 187.367188 6.042969 187.367188 6.226562 C 187.367188 6.992188 188.09375 6.480469 188.691406 6.671875 C 188.527344 7.097656 187.964844 6.773438 187.71875 6.839844 C 187.621094 6.867188 187.566406 6.929688 187.496094 6.980469 C 187.515625 7.378906 187.613281 7.195312 187.804688 7.289062 C 187.917969 7.335938 187.953125 7.546875 188.015625 7.660156 C 188.542969 7.589844 189.0625 7.511719 189.597656 7.511719 C 189.941406 7.511719 190.460938 8.089844 190.582031 8.347656 C 190.648438 8.503906 190.609375 8.414062 190.691406 8.523438 C 190.785156 8.660156 191.035156 9.523438 191.058594 9.636719 Z M 185.386719 11.554688 C 185.589844 11.707031 185.695312 12.011719 185.695312 12.328125 C 185.898438 12.328125 186.222656 12.347656 186.222656 12.542969 C 186.082031 12.671875 185.765625 12.558594 185.546875 12.644531 C 185.386719 12.75 185.316406 13.296875 185.78125 13.261719 C 186.203125 13.226562 186.222656 12.855469 186.511719 12.875 C 186.554688 13.613281 186.328125 13.261719 186.132812 13.859375 C 186.097656 13.972656 186.117188 14.042969 186.097656 14.183594 C 185.429688 14.21875 185.167969 14.246094 185.167969 14.8125 C 185.78125 15.011719 185.582031 14.871094 186.160156 14.722656 C 186.875 15.277344 186.308594 15.355469 187.503906 15.890625 C 187.769531 16.007812 187.867188 16.105469 188.113281 15.960938 C 188.042969 15.453125 187.558594 15.460938 187.53125 15.207031 C 187.894531 15.234375 188.132812 15.488281 188.5 15.574219 C 188.753906 14.847656 188.550781 14.835938 188.308594 14.554688 C 187.9375 14.117188 187.855469 14.167969 187.875 13.578125 C 188.394531 13.660156 188.21875 14.328125 188.78125 14.316406 C 189.1875 14.308594 189.363281 13.351562 189.351562 13.324219 C 189.246094 13.078125 189.140625 13.21875 188.964844 13.078125 L 188.621094 12.769531 C 187.964844 12.222656 188 12.621094 187.996094 12.109375 C 188.105469 12.101562 188.128906 12.09375 188.183594 12.058594 C 188.183594 12.03125 188.070312 11.246094 188.015625 11.335938 C 188.007812 11.351562 187.980469 11.320312 187.957031 11.308594 C 187.742188 11.1875 187.847656 11.238281 187.707031 11.105469 C 187.515625 10.933594 187.515625 11.089844 187.328125 10.914062 C 186.980469 10.589844 187.164062 10.449219 186.601562 10.5625 C 186.539062 10.472656 186.476562 10.421875 186.390625 10.332031 C 186.28125 10.199219 186.152344 9.917969 186.070312 9.75 C 185.964844 9.535156 186 9.726562 186.003906 9.445312 C 185.40625 9.296875 185.941406 9.339844 184.972656 9.339844 C 184.796875 9.339844 184.917969 9.417969 184.601562 9.429688 C 184.515625 9.4375 184.5 9.425781 184.425781 9.453125 C 184.320312 9.488281 184.453125 9.472656 184.261719 9.550781 C 183.871094 9.050781 183.167969 9.9375 182.984375 10.339844 C 182.925781 10.445312 182.828125 10.789062 182.78125 10.871094 C 183.019531 11.0625 183.046875 10.929688 183.242188 11.210938 C 183.097656 11.457031 183.101562 11.300781 182.996094 11.6875 C 183.546875 11.8125 184.339844 11.820312 184.929688 11.75 C 185.289062 11.703125 185.175781 11.636719 185.386719 11.554688 Z M 181.992188 18.699219 C 182.394531 18.839844 182.75 19.042969 183.101562 19.269531 C 183.433594 19.480469 183.707031 19.289062 183.925781 19.542969 C 184.042969 19.816406 183.730469 20.578125 184.171875 20.816406 L 184.523438 21.019531 C 185.023438 20.773438 184.601562 20.402344 184.601562 20.015625 L 184.664062 19.628906 C 184.734375 19.402344 184.636719 19.53125 184.851562 19.445312 C 185.121094 19.355469 185.035156 19.320312 185.164062 19.066406 C 185.296875 18.804688 185.269531 18.855469 185.203125 18.523438 C 185.097656 17.933594 184.734375 17.808594 184.929688 17.5625 C 185.121094 17.324219 185.105469 17.457031 185.097656 17.027344 C 185.097656 16.796875 185.105469 16.5625 185.097656 16.332031 C 185.097656 15.761719 184.902344 15.875 186.363281 15.890625 C 186.460938 16.039062 186.734375 16.332031 186.855469 16.417969 C 187.023438 16.523438 187.074219 16.453125 187.15625 16.648438 C 187.402344 17.210938 187.082031 17.511719 187.058594 17.722656 C 187.207031 17.722656 187.320312 17.675781 187.410156 17.703125 C 187.671875 17.773438 187.65625 18.019531 188.007812 17.644531 C 188.316406 17.324219 188.09375 17.203125 188.273438 16.980469 C 188.519531 16.675781 188.730469 17.191406 188.808594 17.367188 C 188.929688 17.609375 189.070312 17.816406 189.167969 18.074219 C 189.179688 18.109375 189.195312 18.144531 189.210938 18.195312 C 189.246094 18.277344 189.265625 18.285156 189.28125 18.335938 C 189.355469 18.601562 188.984375 18.601562 189.457031 18.96875 C 189.601562 19.078125 189.679688 19.214844 189.800781 19.355469 L 190.3125 19.382812 L 190.488281 19.777344 C 190.503906 19.816406 190.523438 19.886719 190.550781 19.921875 C 190.691406 20.105469 190.539062 19.929688 190.664062 20.007812 C 190.753906 20.0625 190.71875 20.023438 190.777344 20.097656 C 190.988281 20.367188 190.894531 20.824219 190.894531 21.203125 C 190.894531 21.441406 190.742188 21.320312 190.777344 21.699219 C 191.007812 21.785156 190.988281 21.769531 191.28125 21.777344 C 191.367188 21.980469 191.359375 21.847656 191.402344 22.144531 C 191.429688 22.347656 191.480469 22.355469 191.59375 22.488281 C 191.773438 22.707031 191.746094 23.050781 191.394531 22.972656 C 190.847656 22.851562 190.972656 22.558594 189.792969 22.558594 C 189.847656 22.355469 189.960938 22.242188 190.039062 22.050781 C 190.136719 21.8125 190.371094 21.40625 190.347656 21.1875 C 189.953125 21.105469 189.933594 21.300781 189.898438 21.460938 C 189.785156 21.476562 189.046875 21.566406 188.984375 21.609375 C 189.035156 21.671875 189.097656 21.679688 189.195312 21.679688 L 189.1875 22.058594 C 188.605469 22.058594 188.773438 22.050781 188.519531 21.742188 C 188.34375 21.523438 188 21.652344 187.769531 21.75 C 187.398438 21.898438 187.390625 21.882812 187.207031 22.214844 C 187.050781 22.488281 186.792969 22.515625 186.769531 22.816406 C 187.121094 22.785156 187.074219 22.445312 187.496094 22.171875 C 187.664062 22.058594 188.070312 21.800781 188.296875 21.882812 C 188.738281 22.046875 188.105469 22.347656 188.554688 22.734375 C 188.65625 22.8125 188.789062 22.832031 188.894531 22.886719 C 189.210938 23.027344 189.398438 22.980469 189.730469 22.910156 C 189.730469 23.316406 189.742188 23.246094 189.527344 23.464844 C 189.355469 23.621094 189.28125 23.65625 189.019531 23.695312 C 188.789062 23.730469 188.753906 23.859375 188.570312 23.984375 C 188.34375 24.140625 188.34375 24.132812 188.015625 24.132812 C 187.945312 23.738281 188.148438 23.9375 188.148438 23.640625 C 187.726562 23.613281 187.953125 23.746094 187.609375 23.835938 C 187.417969 23.886719 187.328125 23.902344 187.1875 24.027344 L 186.871094 24.320312 C 186.792969 24.449219 186.863281 24.671875 186.863281 24.855469 C 186.628906 24.933594 186.414062 25.011719 186.222656 25.160156 C 185.949219 25.363281 185.992188 25.433594 185.84375 25.761719 C 185.746094 25.988281 185.648438 26.175781 185.5625 26.464844 C 185.335938 27.230469 185.40625 26.976562 185.007812 27.378906 C 184.78125 27.605469 184.375 27.785156 184.214844 28.0625 C 183.882812 28.636719 184.542969 28.863281 184.535156 29.796875 L 184.53125 29.957031 C 184.410156 29.957031 184.285156 29.957031 184.191406 29.921875 C 184.03125 29.859375 183.855469 29.402344 183.792969 29.21875 C 183.539062 28.539062 183.539062 28.390625 182.210938 28.554688 L 182.15625 28.792969 C 181.675781 28.863281 181.667969 28.601562 181.25 28.601562 C 181.015625 28.601562 180.503906 29.023438 180.503906 29.226562 C 180.503906 30.613281 180.382812 30.238281 180.785156 30.996094 C 180.890625 31.195312 180.972656 31.417969 181.207031 31.476562 C 181.71875 31.59375 182.097656 31.285156 182.175781 30.773438 C 182.640625 30.773438 182.554688 30.722656 182.871094 30.914062 C 182.851562 31.308594 182.738281 31.363281 182.738281 32.109375 C 182.992188 32.261719 183.40625 32.289062 183.699219 32.417969 C 184.050781 32.574219 183.9375 33.058594 183.9375 33.519531 C 183.996094 33.617188 184.128906 33.738281 184.207031 33.792969 C 184.382812 33.941406 184.394531 33.894531 184.613281 33.871094 C 185.296875 33.792969 185.007812 33.96875 185.464844 34.082031 C 185.648438 33.96875 185.71875 33.753906 185.984375 33.632812 C 186.097656 33.589844 186.238281 33.554688 186.355469 33.515625 C 186.777344 33.359375 186.175781 32.988281 187.433594 33.597656 L 187.777344 33.78125 C 188.167969 33.964844 188.871094 33.71875 189.125 33.871094 C 189.285156 33.96875 189.175781 34 189.300781 34.105469 C 189.398438 34.175781 189.636719 34.210938 189.855469 34.371094 C 190.019531 34.492188 190.460938 34.890625 190.582031 34.917969 C 191.164062 35.058594 191.796875 34.820312 192.230469 35.714844 C 192.5625 36.410156 192.097656 36.203125 192.898438 36.359375 C 193.066406 36.386719 193.167969 36.429688 193.34375 36.484375 C 194.007812 36.691406 193.898438 36.824219 194.382812 36.753906 C 194.761719 36.695312 195.703125 37.203125 196.054688 37.328125 C 196.054688 38.152344 195.96875 38.023438 195.492188 38.476562 C 195.316406 38.636719 195.121094 38.726562 195.042969 38.890625 C 194.992188 38.964844 194.921875 39.410156 194.867188 39.570312 C 194.738281 39.929688 194.472656 40.371094 194.15625 40.574219 C 193.988281 40.6875 193.546875 40.539062 192.828125 41.011719 C 192.632812 41.144531 192.617188 41.488281 192.046875 41.945312 C 191.941406 42.03125 191.886719 42.039062 191.808594 42.121094 C 191.65625 42.289062 191.804688 42.253906 191.542969 42.3125 C 190.707031 42.472656 191.035156 42.761719 190.375 42.847656 C 190.171875 42.875 189.84375 42.949219 189.703125 43.035156 C 189.351562 43.253906 189.179688 43.5625 188.878906 43.730469 C 188.800781 43.773438 188.871094 43.730469 188.800781 43.78125 C 188.753906 43.816406 188.613281 43.929688 188.304688 43.773438 C 188.105469 43.683594 187.875 43.753906 187.648438 43.695312 C 187.628906 43.351562 187.488281 43.675781 187.628906 43.34375 C 187.707031 43.15625 187.707031 43.070312 187.585938 42.945312 C 187.269531 42.613281 187.277344 42.613281 187.460938 42.183594 C 187.671875 41.679688 187.375 41.6875 187.503906 41.335938 C 187.542969 41.238281 187.542969 41.320312 187.558594 41.136719 L 187.578125 39.949219 C 187.550781 39.804688 187.585938 39.9375 187.507812 39.832031 C 187.347656 39.621094 187.417969 39.613281 187.136719 39.5 C 186.25 39.136719 186.1875 38.960938 185.652344 38.242188 C 185.578125 38.136719 185.542969 38.058594 185.472656 37.976562 C 184.367188 36.585938 184.902344 37.292969 184.796875 36.445312 C 184.78125 36.289062 184.78125 36.136719 184.789062 35.972656 C 184.964844 35.820312 185.414062 35.375 185.414062 35.117188 C 185.414062 34.863281 185.191406 34.335938 184.929688 34.335938 C 184.148438 34.335938 184.585938 34.539062 183.828125 34.097656 C 183.382812 33.828125 183.171875 33.132812 182.703125 32.964844 C 182.535156 32.910156 182.535156 32.910156 182.386719 32.832031 C 182.21875 32.742188 182.167969 32.789062 182.042969 32.734375 C 181.921875 32.675781 181.957031 32.613281 181.796875 32.53125 C 181.613281 32.425781 181.667969 32.480469 181.527344 32.339844 C 181.347656 32.152344 181.078125 32.207031 180.832031 32.183594 C 180.609375 32.164062 180.460938 32.003906 180.242188 31.910156 C 179.617188 31.644531 179.019531 31.292969 178.832031 30.617188 C 178.703125 30.160156 178.375 29.894531 178.121094 29.527344 L 177.171875 28.019531 C 177.066406 27.878906 177.160156 27.957031 177.03125 27.921875 C 176.984375 28.066406 176.996094 28.089844 177.082031 28.195312 C 177.292969 28.46875 177.109375 28.46875 177.285156 28.609375 L 177.472656 28.902344 C 177.539062 29.050781 177.609375 29.164062 177.707031 29.324219 C 177.855469 29.5625 178.347656 29.832031 177.972656 30.125 C 177.601562 30.078125 177.3125 29.289062 177.117188 29.015625 C 176.96875 28.820312 176.878906 28.59375 176.773438 28.382812 C 176.574219 27.996094 176.484375 27.28125 176.132812 27.011719 C 175.753906 26.738281 175.121094 25.390625 175.121094 25.054688 C 175.121094 24.539062 175.058594 24.027344 175.167969 23.507812 C 175.203125 23.324219 175.28125 23.351562 175.183594 23.140625 C 175.015625 22.789062 175.253906 22.75 174.9375 22.363281 C 174.496094 21.820312 174.882812 21.644531 174.628906 21.160156 C 174.566406 21.039062 174.539062 20.976562 174.425781 20.894531 C 174.226562 20.746094 174.71875 20.195312 173.988281 20.195312 C 173.988281 19.917969 173.8125 19.605469 173.777344 19.3125 C 173.757812 19.148438 173.804688 19.207031 173.722656 19.078125 L 173.484375 18.734375 C 173.320312 18.589844 173.273438 18.664062 173.160156 18.757812 C 172.992188 18.898438 173.070312 18.800781 172.929688 18.863281 C 172.789062 18.917969 172.738281 19.128906 172.6875 19.269531 C 172.542969 19.710938 172.757812 20.070312 172.289062 20.191406 C 172.148438 19.945312 172.308594 19.726562 172.167969 19.578125 C 172.085938 20.035156 171.992188 19.789062 171.921875 20.105469 C 172.308594 18.089844 173 16.175781 173.941406 14.414062 C 173.910156 14.484375 173.90625 14.539062 173.910156 14.574219 C 174.058594 14.667969 174.226562 14.492188 174.402344 14.433594 C 174.636719 14.363281 174.789062 14.386719 175.070312 14.371094 C 175.132812 14.265625 175.140625 14.203125 175.203125 14.097656 C 175.269531 13.992188 175.34375 13.929688 175.410156 13.851562 C 175.695312 13.527344 175.753906 13.621094 176.132812 13.621094 C 176.355469 13.621094 176.703125 13.359375 176.914062 13.351562 C 177.074219 13.351562 177.398438 13.4375 177.566406 13.515625 C 177.691406 13.5625 177.671875 13.550781 177.75 13.621094 L 177.714844 13.949219 C 177.796875 13.992188 178.113281 13.84375 178.464844 13.84375 C 178.632812 13.84375 178.597656 13.984375 178.726562 14.070312 C 178.78125 14.113281 178.789062 14.105469 178.867188 14.117188 C 178.871094 13.800781 178.9375 13.835938 178.753906 13.632812 C 178.589844 13.453125 178.683594 13.492188 178.421875 13.492188 C 178.253906 13.492188 178.3125 13.726562 178.03125 13.414062 C 177.796875 13.15625 177.832031 13.324219 177.574219 13.191406 C 177.523438 12.929688 177.664062 12.839844 177.867188 12.785156 C 178.171875 12.707031 178.105469 12.734375 178.289062 12.53125 C 178.042969 12.410156 178.007812 12.621094 177.664062 12.550781 C 177.566406 12.417969 177.664062 12.542969 177.613281 12.441406 L 177.433594 12.128906 C 177.328125 12.285156 177.261719 12.261719 177.125 12.410156 C 176.996094 12.550781 176.949219 12.578125 176.703125 12.53125 C 176.679688 12.03125 177.117188 11.28125 177.460938 10.90625 C 177.59375 10.765625 177.960938 10.722656 178.175781 10.722656 C 178.382812 10.722656 178.695312 10.992188 178.800781 11.082031 C 178.914062 11.175781 178.972656 11.238281 179.070312 11.316406 L 179.203125 11.425781 C 179.308594 11.539062 179.167969 11.503906 179.363281 11.539062 C 179.371094 11.53125 179.378906 11.511719 179.378906 11.519531 C 179.398438 11.597656 179.398438 11.46875 179.398438 11.457031 C 179.492188 11.179688 179.511719 10.898438 179.640625 10.632812 C 179.746094 10.429688 180.257812 10 180.257812 10.484375 C 180.257812 10.667969 180.128906 10.792969 179.96875 10.835938 C 179.96875 11.089844 179.953125 11.386719 179.96875 11.632812 C 179.988281 12.152344 180.539062 11.800781 180.382812 12.339844 C 180.347656 12.476562 180.265625 12.503906 180.164062 12.574219 C 180.277344 13.148438 180.003906 12.996094 179.75 13.078125 L 179.667969 13.113281 L 179.640625 13.128906 L 179.589844 13.15625 L 179.5625 13.171875 C 179.5625 13.171875 179.546875 13.175781 179.539062 13.183594 C 179.589844 13.289062 179.757812 13.375 179.855469 13.472656 L 180.347656 13.464844 C 180.503906 13.304688 180.601562 13.234375 180.707031 12.972656 C 180.8125 12.714844 180.796875 12.578125 180.996094 12.367188 C 181.386719 12.367188 181.136719 12.476562 181.375 12.550781 C 181.492188 12.550781 181.710938 12.566406 181.632812 12.390625 C 181.605469 12.320312 181.351562 12.257812 181.351562 12.082031 C 181.351562 11.335938 181.5 11.511719 181.632812 11.28125 C 181.769531 11.046875 181.621094 11.105469 182.027344 11.105469 C 182.195312 11.105469 182.300781 11.625 182.300781 11.792969 C 182.300781 12.109375 182.195312 11.941406 182.371094 12.222656 C 182.484375 12.402344 182.449219 12.53125 182.519531 12.699219 C 182.675781 12.648438 182.746094 12.433594 182.785156 12.269531 C 182.816406 12.296875 182.828125 12.304688 182.835938 12.304688 C 182.835938 12.3125 182.835938 12.328125 182.855469 12.363281 C 182.871094 12.398438 182.878906 12.445312 182.890625 12.480469 C 183.019531 12.46875 182.984375 12.441406 183.082031 12.488281 C 183.082031 12.714844 182.933594 13.015625 183.03125 13.242188 C 183.167969 13.28125 183.195312 13.253906 183.308594 13.199219 C 183.335938 13.050781 183.328125 12.910156 183.390625 12.785156 C 183.460938 12.628906 183.554688 12.609375 183.625 12.488281 C 183.695312 12.199219 183.363281 11.652344 184.515625 12.121094 C 184.523438 12.320312 184.472656 12.523438 184.472656 12.691406 C 184.472656 13.207031 184.648438 13.226562 184.25 13.605469 C 184.121094 13.71875 184.148438 13.789062 183.972656 13.964844 C 183.996094 14.117188 184.023438 14.078125 184.015625 14.195312 C 184.003906 14.324219 183.960938 14.292969 183.9375 14.449219 C 184.144531 14.710938 184.566406 14.925781 184.507812 15.335938 C 184.253906 15.46875 184.207031 15.265625 183.863281 15.230469 C 183.792969 15.511719 183.820312 15.441406 183.496094 15.480469 C 183.292969 15.511719 183.097656 15.40625 183.066406 15.242188 C 183.019531 15.003906 183.242188 14.988281 183.242188 14.777344 C 183.242188 14.617188 183.222656 14.527344 183.132812 14.457031 C 182.925781 14.652344 183.292969 14.777344 182.5625 15.269531 C 181.929688 15.699219 182.359375 15.863281 181.921875 16.023438 C 181.421875 16.210938 181.71875 16.140625 181.332031 16.832031 C 181.136719 17.191406 180.96875 17.40625 181.207031 17.890625 C 181.445312 18.027344 181.402344 17.808594 181.488281 18.136719 C 181.570312 18.503906 181.640625 18.589844 181.992188 18.699219 " fill-opacity="1" fill-rule="evenodd"/></g><g fill="#4a3226" fill-opacity="1"><g transform="translate(23.086431, 54.969068)"><g><path d="M 1.15625 0 L 1.15625 -8.65625 L 2.171875 -8.65625 L 2.171875 -0.859375 L 7.84375 -0.859375 L 7.84375 0 Z M 1.15625 0 "/></g></g></g><g fill="#4a3226" fill-opacity="1"><g transform="translate(33.270355, 54.969068)"><g><path d="M 1.15625 0 L 1.15625 -8.65625 L 7.859375 -8.65625 L 7.859375 -7.8125 L 2.171875 -7.8125 L 2.171875 -4.75 L 7.640625 -4.75 L 7.640625 -3.890625 L 2.171875 -3.890625 L 2.171875 -0.859375 L 7.859375 -0.859375 L 7.859375 0 Z M 1.15625 0 "/></g></g></g><g fill="#4a3226" fill-opacity="1"><g transform="translate(44.072881, 54.969068)"><g><path d="M 5.1875 0.171875 C 4.519531 0.171875 3.90625 0.0625 3.34375 -0.15625 C 2.789062 -0.382812 2.304688 -0.695312 1.890625 -1.09375 C 1.484375 -1.5 1.164062 -1.972656 0.9375 -2.515625 C 0.71875 -3.066406 0.609375 -3.664062 0.609375 -4.3125 C 0.609375 -4.976562 0.71875 -5.585938 0.9375 -6.140625 C 1.164062 -6.691406 1.484375 -7.171875 1.890625 -7.578125 C 2.304688 -7.984375 2.789062 -8.296875 3.34375 -8.515625 C 3.90625 -8.742188 4.519531 -8.859375 5.1875 -8.859375 C 5.738281 -8.859375 6.273438 -8.773438 6.796875 -8.609375 C 7.328125 -8.441406 7.796875 -8.175781 8.203125 -7.8125 C 8.617188 -7.457031 8.929688 -6.992188 9.140625 -6.421875 L 8.25 -6.234375 C 8.050781 -6.671875 7.789062 -7.015625 7.46875 -7.265625 C 7.144531 -7.515625 6.785156 -7.695312 6.390625 -7.8125 C 6.003906 -7.925781 5.601562 -7.984375 5.1875 -7.984375 C 4.488281 -7.984375 3.875 -7.828125 3.34375 -7.515625 C 2.8125 -7.203125 2.394531 -6.769531 2.09375 -6.21875 C 1.789062 -5.664062 1.640625 -5.03125 1.640625 -4.3125 C 1.640625 -3.601562 1.789062 -2.972656 2.09375 -2.421875 C 2.394531 -1.878906 2.8125 -1.453125 3.34375 -1.140625 C 3.875 -0.835938 4.488281 -0.6875 5.1875 -0.6875 C 5.582031 -0.6875 5.984375 -0.734375 6.390625 -0.828125 C 6.796875 -0.929688 7.171875 -1.097656 7.515625 -1.328125 C 7.859375 -1.566406 8.117188 -1.890625 8.296875 -2.296875 L 8.296875 -3.765625 L 5.046875 -3.765625 L 5.046875 -4.609375 L 9.1875 -4.609375 L 9.1875 -2.109375 C 8.957031 -1.554688 8.632812 -1.109375 8.21875 -0.765625 C 7.800781 -0.429688 7.328125 -0.191406 6.796875 -0.046875 C 6.273438 0.0976562 5.738281 0.171875 5.1875 0.171875 Z M 5.1875 0.171875 "/></g></g></g><g fill="#4a3226" fill-opacity="1"><g transform="translate(56.199165, 54.969068)"><g><path d="M 0.171875 0 L 4.609375 -8.75 L 5.65625 -8.75 L 10.078125 0 L 8.953125 0 L 7.8125 -2.28125 L 2.453125 -2.28125 L 1.296875 0 Z M 2.890625 -3.125 L 7.375 -3.125 L 5.140625 -7.5625 Z M 2.890625 -3.125 "/></g></g></g><g fill="#4a3226" fill-opacity="1"><g transform="translate(68.659578, 54.969068)"><g><path d="M 1.15625 0 L 1.15625 -8.65625 L 2.171875 -8.65625 L 2.171875 -0.859375 L 7.84375 -0.859375 L 7.84375 0 Z M 1.15625 0 "/></g></g></g><g fill="#4a3226" fill-opacity="1"><g transform="translate(78.843501, 54.969068)"><g/></g></g><g fill="#4a3226" fill-opacity="1"><g transform="translate(85.043565, 54.969068)"><g><path d="M 4.71875 0.1875 C 4.25 0.1875 3.796875 0.132812 3.359375 0.03125 C 2.960938 -0.0625 2.578125 -0.203125 2.203125 -0.390625 C 1.828125 -0.585938 1.507812 -0.84375 1.25 -1.15625 C 1 -1.46875 0.835938 -1.847656 0.765625 -2.296875 C 0.742188 -2.429688 0.734375 -2.566406 0.734375 -2.703125 C 0.734375 -3.222656 0.882812 -3.660156 1.1875 -4.015625 C 1.5 -4.378906 1.894531 -4.640625 2.375 -4.796875 C 2.289062 -4.867188 2.207031 -4.945312 2.125 -5.03125 C 2.050781 -5.125 1.984375 -5.222656 1.921875 -5.328125 C 1.691406 -5.691406 1.578125 -6.070312 1.578125 -6.46875 C 1.578125 -6.851562 1.675781 -7.21875 1.875 -7.5625 C 2.082031 -7.914062 2.378906 -8.203125 2.765625 -8.421875 C 3.003906 -8.554688 3.285156 -8.65625 3.609375 -8.71875 C 3.941406 -8.789062 4.285156 -8.828125 4.640625 -8.828125 C 5.078125 -8.828125 5.5 -8.773438 5.90625 -8.671875 C 6.3125 -8.566406 6.648438 -8.410156 6.921875 -8.203125 C 7.179688 -7.992188 7.394531 -7.742188 7.5625 -7.453125 C 7.726562 -7.160156 7.816406 -6.820312 7.828125 -6.4375 L 6.875 -6.421875 C 6.875 -6.671875 6.816406 -6.882812 6.703125 -7.0625 C 6.597656 -7.25 6.460938 -7.40625 6.296875 -7.53125 C 6.085938 -7.695312 5.84375 -7.816406 5.5625 -7.890625 C 5.28125 -7.960938 4.988281 -8 4.6875 -8 C 4.4375 -8 4.179688 -7.972656 3.921875 -7.921875 C 3.671875 -7.867188 3.445312 -7.785156 3.25 -7.671875 C 3.039062 -7.546875 2.875 -7.367188 2.75 -7.140625 C 2.632812 -6.921875 2.578125 -6.691406 2.578125 -6.453125 C 2.578125 -6.210938 2.640625 -6 2.765625 -5.8125 C 2.828125 -5.707031 2.910156 -5.601562 3.015625 -5.5 C 3.128906 -5.394531 3.242188 -5.300781 3.359375 -5.21875 L 7.53125 -2 C 7.664062 -2.195312 7.765625 -2.414062 7.828125 -2.65625 C 7.898438 -2.894531 7.9375 -3.160156 7.9375 -3.453125 L 8.921875 -3.453125 C 8.921875 -3.046875 8.863281 -2.671875 8.75 -2.328125 C 8.644531 -1.984375 8.492188 -1.671875 8.296875 -1.390625 L 9.96875 -0.125 L 9.96875 0 L 8.625 0 L 7.65625 -0.734375 C 7.375 -0.503906 7.054688 -0.316406 6.703125 -0.171875 C 6.359375 -0.0351562 5.984375 0.0625 5.578125 0.125 C 5.441406 0.144531 5.296875 0.160156 5.140625 0.171875 C 4.992188 0.179688 4.851562 0.1875 4.71875 0.1875 Z M 4.671875 -0.6875 C 4.796875 -0.6875 4.921875 -0.691406 5.046875 -0.703125 C 5.179688 -0.710938 5.3125 -0.726562 5.4375 -0.75 C 5.988281 -0.84375 6.46875 -1.035156 6.875 -1.328125 L 3.140625 -4.1875 C 2.773438 -4.09375 2.453125 -3.914062 2.171875 -3.65625 C 1.890625 -3.40625 1.75 -3.082031 1.75 -2.6875 C 1.75 -2.21875 1.921875 -1.828125 2.265625 -1.515625 C 2.609375 -1.203125 3.035156 -0.976562 3.546875 -0.84375 C 3.898438 -0.738281 4.273438 -0.6875 4.671875 -0.6875 Z M 4.671875 -0.6875 "/></g></g></g><g fill="#4a3226" fill-opacity="1"><g transform="translate(97.640072, 54.969068)"><g/></g></g><g fill="#4a3226" fill-opacity="1"><g transform="translate(103.840136, 54.969068)"><g><path d="M 5.21875 0.1875 C 4.550781 0.1875 3.9375 0.0703125 3.375 -0.15625 C 2.820312 -0.382812 2.34375 -0.703125 1.9375 -1.109375 C 1.53125 -1.515625 1.210938 -1.992188 0.984375 -2.546875 C 0.765625 -3.097656 0.65625 -3.703125 0.65625 -4.359375 C 0.65625 -5.003906 0.765625 -5.601562 0.984375 -6.15625 C 1.210938 -6.707031 1.53125 -7.179688 1.9375 -7.578125 C 2.34375 -7.984375 2.820312 -8.296875 3.375 -8.515625 C 3.9375 -8.742188 4.550781 -8.859375 5.21875 -8.859375 C 5.769531 -8.859375 6.3125 -8.773438 6.84375 -8.609375 C 7.382812 -8.441406 7.863281 -8.175781 8.28125 -7.8125 C 8.707031 -7.457031 9.019531 -7 9.21875 -6.4375 L 8.34375 -6.234375 C 8.15625 -6.671875 7.894531 -7.015625 7.5625 -7.265625 C 7.226562 -7.523438 6.859375 -7.710938 6.453125 -7.828125 C 6.054688 -7.941406 5.644531 -8 5.21875 -8 C 4.53125 -8 3.921875 -7.84375 3.390625 -7.53125 C 2.859375 -7.226562 2.441406 -6.800781 2.140625 -6.25 C 1.847656 -5.707031 1.703125 -5.078125 1.703125 -4.359375 C 1.703125 -3.640625 1.847656 -3.003906 2.140625 -2.453125 C 2.441406 -1.910156 2.859375 -1.476562 3.390625 -1.15625 C 3.921875 -0.84375 4.53125 -0.6875 5.21875 -0.6875 C 5.613281 -0.6875 6.015625 -0.75 6.421875 -0.875 C 6.835938 -1 7.210938 -1.191406 7.546875 -1.453125 C 7.890625 -1.722656 8.148438 -2.0625 8.328125 -2.46875 L 9.21875 -2.28125 C 8.988281 -1.707031 8.664062 -1.238281 8.25 -0.875 C 7.832031 -0.507812 7.359375 -0.238281 6.828125 -0.0625 C 6.304688 0.101562 5.769531 0.1875 5.21875 0.1875 Z M 5.21875 0.1875 "/></g></g></g><g fill="#4a3226" fill-opacity="1"><g transform="translate(115.669555, 54.969068)"><g><path d="M 5.234375 0.140625 C 4.566406 0.140625 3.953125 0.03125 3.390625 -0.1875 C 2.835938 -0.414062 2.359375 -0.726562 1.953125 -1.125 C 1.546875 -1.53125 1.226562 -2.007812 1 -2.5625 C 0.78125 -3.113281 0.671875 -3.71875 0.671875 -4.375 C 0.671875 -5.019531 0.78125 -5.613281 1 -6.15625 C 1.226562 -6.707031 1.546875 -7.179688 1.953125 -7.578125 C 2.359375 -7.984375 2.835938 -8.296875 3.390625 -8.515625 C 3.953125 -8.742188 4.566406 -8.859375 5.234375 -8.859375 C 5.898438 -8.859375 6.507812 -8.742188 7.0625 -8.515625 C 7.625 -8.296875 8.109375 -7.984375 8.515625 -7.578125 C 8.929688 -7.179688 9.25 -6.707031 9.46875 -6.15625 C 9.6875 -5.613281 9.796875 -5.019531 9.796875 -4.375 C 9.796875 -3.71875 9.6875 -3.113281 9.46875 -2.5625 C 9.25 -2.007812 8.929688 -1.53125 8.515625 -1.125 C 8.109375 -0.726562 7.625 -0.414062 7.0625 -0.1875 C 6.507812 0.03125 5.898438 0.140625 5.234375 0.140625 Z M 5.234375 -0.734375 C 5.929688 -0.734375 6.546875 -0.882812 7.078125 -1.1875 C 7.609375 -1.5 8.023438 -1.925781 8.328125 -2.46875 C 8.628906 -3.019531 8.78125 -3.65625 8.78125 -4.375 C 8.78125 -5.082031 8.628906 -5.707031 8.328125 -6.25 C 8.023438 -6.800781 7.609375 -7.226562 7.078125 -7.53125 C 6.546875 -7.84375 5.929688 -8 5.234375 -8 C 4.535156 -8 3.921875 -7.84375 3.390625 -7.53125 C 2.859375 -7.226562 2.441406 -6.800781 2.140625 -6.25 C 1.847656 -5.707031 1.703125 -5.082031 1.703125 -4.375 C 1.703125 -3.65625 1.847656 -3.019531 2.140625 -2.46875 C 2.441406 -1.925781 2.859375 -1.5 3.390625 -1.1875 C 3.921875 -0.882812 4.535156 -0.734375 5.234375 -0.734375 Z M 5.234375 -0.734375 "/></g></g></g><g fill="#4a3226" fill-opacity="1"><g transform="translate(128.365039, 54.969068)"><g><path d="M 1.15625 0 L 1.15625 -8.65625 L 2.234375 -8.65625 L 6.21875 -3.59375 L 10.21875 -8.65625 L 11.296875 -8.65625 L 11.296875 0 L 10.265625 0 L 10.265625 -7.21875 L 6.515625 -2.5 L 5.921875 -2.5 L 2.171875 -7.21875 L 2.171875 0 Z M 1.15625 0 "/></g></g></g><g fill="#4a3226" fill-opacity="1"><g transform="translate(143.027699, 54.969068)"><g><path d="M 1.15625 0 L 1.15625 -8.671875 L 5.390625 -8.671875 C 5.828125 -8.671875 6.257812 -8.613281 6.6875 -8.5 C 7.125 -8.394531 7.507812 -8.195312 7.84375 -7.90625 C 8.132812 -7.65625 8.351562 -7.34375 8.5 -6.96875 C 8.644531 -6.601562 8.71875 -6.222656 8.71875 -5.828125 C 8.71875 -5.421875 8.640625 -5.023438 8.484375 -4.640625 C 8.328125 -4.253906 8.097656 -3.929688 7.796875 -3.671875 C 7.460938 -3.390625 7.082031 -3.195312 6.65625 -3.09375 C 6.226562 -2.988281 5.800781 -2.9375 5.375 -2.9375 L 2.171875 -2.9375 L 2.171875 0 Z M 2.171875 -3.796875 L 5.390625 -3.796875 C 5.679688 -3.796875 5.988281 -3.832031 6.3125 -3.90625 C 6.632812 -3.976562 6.910156 -4.117188 7.140625 -4.328125 C 7.328125 -4.492188 7.46875 -4.710938 7.5625 -4.984375 C 7.65625 -5.253906 7.703125 -5.535156 7.703125 -5.828125 C 7.703125 -6.109375 7.65625 -6.378906 7.5625 -6.640625 C 7.476562 -6.898438 7.347656 -7.109375 7.171875 -7.265625 C 6.941406 -7.484375 6.664062 -7.628906 6.34375 -7.703125 C 6.019531 -7.773438 5.703125 -7.8125 5.390625 -7.8125 L 2.171875 -7.8125 Z M 2.171875 -3.796875 "/></g></g></g><g fill="#4a3226" fill-opacity="1"><g transform="translate(154.560185, 54.969068)"><g><path d="M 1.15625 0 L 1.15625 -8.65625 L 2.171875 -8.65625 L 2.171875 -0.859375 L 7.84375 -0.859375 L 7.84375 0 Z M 1.15625 0 "/></g></g></g><g fill="#4a3226" fill-opacity="1"><g transform="translate(164.744108, 54.969068)"><g><path d="M 1.15625 0 L 1.15625 -8.65625 L 2.171875 -8.65625 L 2.171875 0 Z M 1.15625 0 "/></g></g></g><g fill="#4a3226" fill-opacity="1"><g transform="translate(170.288443, 54.969068)"><g><path d="M 0.171875 0 L 4.609375 -8.75 L 5.65625 -8.75 L 10.078125 0 L 8.953125 0 L 7.8125 -2.28125 L 2.453125 -2.28125 L 1.296875 0 Z M 2.890625 -3.125 L 7.375 -3.125 L 5.140625 -7.5625 Z M 2.890625 -3.125 "/></g></g></g><g fill="#4a3226" fill-opacity="1"><g transform="translate(182.488969, 54.969068)"><g><path d="M 1.15625 0 L 1.15625 -8.65625 L 2.1875 -8.65625 L 8.28125 -1.390625 L 8.28125 -8.65625 L 9.296875 -8.65625 L 9.296875 0 L 8.25 0 L 2.171875 -7.265625 L 2.171875 0 Z M 1.15625 0 "/></g></g></g><g fill="#4a3226" fill-opacity="1"><g transform="translate(195.147338, 54.969068)"><g><path d="M 5.21875 0.1875 C 4.550781 0.1875 3.9375 0.0703125 3.375 -0.15625 C 2.820312 -0.382812 2.34375 -0.703125 1.9375 -1.109375 C 1.53125 -1.515625 1.210938 -1.992188 0.984375 -2.546875 C 0.765625 -3.097656 0.65625 -3.703125 0.65625 -4.359375 C 0.65625 -5.003906 0.765625 -5.601562 0.984375 -6.15625 C 1.210938 -6.707031 1.53125 -7.179688 1.9375 -7.578125 C 2.34375 -7.984375 2.820312 -8.296875 3.375 -8.515625 C 3.9375 -8.742188 4.550781 -8.859375 5.21875 -8.859375 C 5.769531 -8.859375 6.3125 -8.773438 6.84375 -8.609375 C 7.382812 -8.441406 7.863281 -8.175781 8.28125 -7.8125 C 8.707031 -7.457031 9.019531 -7 9.21875 -6.4375 L 8.34375 -6.234375 C 8.15625 -6.671875 7.894531 -7.015625 7.5625 -7.265625 C 7.226562 -7.523438 6.859375 -7.710938 6.453125 -7.828125 C 6.054688 -7.941406 5.644531 -8 5.21875 -8 C 4.53125 -8 3.921875 -7.84375 3.390625 -7.53125 C 2.859375 -7.226562 2.441406 -6.800781 2.140625 -6.25 C 1.847656 -5.707031 1.703125 -5.078125 1.703125 -4.359375 C 1.703125 -3.640625 1.847656 -3.003906 2.140625 -2.453125 C 2.441406 -1.910156 2.859375 -1.476562 3.390625 -1.15625 C 3.921875 -0.84375 4.53125 -0.6875 5.21875 -0.6875 C 5.613281 -0.6875 6.015625 -0.75 6.421875 -0.875 C 6.835938 -1 7.210938 -1.191406 7.546875 -1.453125 C 7.890625 -1.722656 8.148438 -2.0625 8.328125 -2.46875 L 9.21875 -2.28125 C 8.988281 -1.707031 8.664062 -1.238281 8.25 -0.875 C 7.832031 -0.507812 7.359375 -0.238281 6.828125 -0.0625 C 6.304688 0.101562 5.769531 0.1875 5.21875 0.1875 Z M 5.21875 0.1875 "/></g></g></g><g fill="#4a3226" fill-opacity="1"><g transform="translate(206.976757, 54.969068)"><g><path d="M 1.15625 0 L 1.15625 -8.65625 L 7.859375 -8.65625 L 7.859375 -7.8125 L 2.171875 -7.8125 L 2.171875 -4.75 L 7.640625 -4.75 L 7.640625 -3.890625 L 2.171875 -3.890625 L 2.171875 -0.859375 L 7.859375 -0.859375 L 7.859375 0 Z M 1.15625 0 "/></g></g></g></svg>