<svg xmlns="http://www.w3.org/2000/svg" xmlns:xlink="http://www.w3.org/1999/xlink" width="330" zoomAndPan="magnify" viewBox="0 0 247.5 60" height="80" preserveAspectRatio="xMidYMid meet" version="1.0"><defs><g/><clipPath id="0df366f4d6"><path d="M 18 1 L 72.914062 1 L 72.914062 59.9375 L 18 59.9375 Z M 18 1 " clip-rule="nonzero"/></clipPath><clipPath id="9f32dac94e"><path d="M 16.027344 3 L 56 3 L 56 58 L 16.027344 58 Z M 16.027344 3 " clip-rule="nonzero"/></clipPath></defs><g fill="#ffffff" fill-opacity="1"><g transform="translate(89.578721, 39.555989)"><g><path d="M 20.1875 -25 L 20.1875 -20.125 L 13.5625 -20.125 L 13.5625 0 L 7.484375 0 L 7.484375 -20.125 L 0.859375 -20.125 L 0.859375 -25 Z M 20.1875 -25 "/></g></g></g><g fill="#ffffff" fill-opacity="1"><g transform="translate(112.398693, 39.555989)"><g><path d="M 20.9375 -10.25 C 20.9375 -9.6875 20.898438 -9.09375 20.828125 -8.46875 L 7.046875 -8.46875 C 7.140625 -7.238281 7.535156 -6.296875 8.234375 -5.640625 C 8.941406 -4.992188 9.804688 -4.671875 10.828125 -4.671875 C 12.347656 -4.671875 13.40625 -5.3125 14 -6.59375 L 20.46875 -6.59375 C 20.144531 -5.28125 19.546875 -4.101562 18.671875 -3.0625 C 17.804688 -2.019531 16.71875 -1.203125 15.40625 -0.609375 C 14.101562 -0.015625 12.644531 0.28125 11.03125 0.28125 C 9.09375 0.28125 7.363281 -0.128906 5.84375 -0.953125 C 4.320312 -1.785156 3.132812 -2.972656 2.28125 -4.515625 C 1.425781 -6.066406 1 -7.875 1 -9.9375 C 1 -12 1.421875 -13.800781 2.265625 -15.34375 C 3.109375 -16.882812 4.285156 -18.070312 5.796875 -18.90625 C 7.316406 -19.738281 9.0625 -20.15625 11.03125 -20.15625 C 12.957031 -20.15625 14.664062 -19.75 16.15625 -18.9375 C 17.65625 -18.132812 18.828125 -16.984375 19.671875 -15.484375 C 20.515625 -13.992188 20.9375 -12.25 20.9375 -10.25 Z M 14.703125 -11.859375 C 14.703125 -12.898438 14.34375 -13.726562 13.625 -14.34375 C 12.914062 -14.96875 12.03125 -15.28125 10.96875 -15.28125 C 9.945312 -15.28125 9.082031 -14.984375 8.375 -14.390625 C 7.675781 -13.796875 7.25 -12.953125 7.09375 -11.859375 Z M 14.703125 -11.859375 "/></g></g></g><g fill="#ffffff" fill-opacity="1"><g transform="translate(136.108671, 39.555989)"><g><path d="M 8.296875 -16.5625 C 9.003906 -17.65625 9.890625 -18.515625 10.953125 -19.140625 C 12.023438 -19.765625 13.21875 -20.078125 14.53125 -20.078125 L 14.53125 -13.640625 L 12.859375 -13.640625 C 11.335938 -13.640625 10.195312 -13.3125 9.4375 -12.65625 C 8.675781 -12.007812 8.296875 -10.863281 8.296875 -9.21875 L 8.296875 0 L 2.203125 0 L 2.203125 -19.875 L 8.296875 -19.875 Z M 8.296875 -16.5625 "/></g></g></g><g fill="#ffffff" fill-opacity="1"><g transform="translate(153.125839, 39.555989)"><g><path d="M 8.296875 -16.5625 C 9.003906 -17.65625 9.890625 -18.515625 10.953125 -19.140625 C 12.023438 -19.765625 13.21875 -20.078125 14.53125 -20.078125 L 14.53125 -13.640625 L 12.859375 -13.640625 C 11.335938 -13.640625 10.195312 -13.3125 9.4375 -12.65625 C 8.675781 -12.007812 8.296875 -10.863281 8.296875 -9.21875 L 8.296875 0 L 2.203125 0 L 2.203125 -19.875 L 8.296875 -19.875 Z M 8.296875 -16.5625 "/></g></g></g><g fill="#ffffff" fill-opacity="1"><g transform="translate(170.143008, 39.555989)"><g><path d="M 1 -9.96875 C 1 -12.007812 1.382812 -13.800781 2.15625 -15.34375 C 2.925781 -16.882812 3.972656 -18.070312 5.296875 -18.90625 C 6.628906 -19.738281 8.113281 -20.15625 9.75 -20.15625 C 11.15625 -20.15625 12.382812 -19.867188 13.4375 -19.296875 C 14.5 -18.734375 15.3125 -17.988281 15.875 -17.0625 L 15.875 -19.875 L 21.96875 -19.875 L 21.96875 0 L 15.875 0 L 15.875 -2.8125 C 15.28125 -1.882812 14.457031 -1.132812 13.40625 -0.5625 C 12.351562 0 11.125 0.28125 9.71875 0.28125 C 8.101562 0.28125 6.628906 -0.140625 5.296875 -0.984375 C 3.972656 -1.828125 2.925781 -3.023438 2.15625 -4.578125 C 1.382812 -6.128906 1 -7.925781 1 -9.96875 Z M 15.875 -9.9375 C 15.875 -11.457031 15.453125 -12.65625 14.609375 -13.53125 C 13.773438 -14.40625 12.75 -14.84375 11.53125 -14.84375 C 10.320312 -14.84375 9.296875 -14.410156 8.453125 -13.546875 C 7.609375 -12.679688 7.1875 -11.488281 7.1875 -9.96875 C 7.1875 -8.445312 7.609375 -7.238281 8.453125 -6.34375 C 9.296875 -5.457031 10.320312 -5.015625 11.53125 -5.015625 C 12.75 -5.015625 13.773438 -5.453125 14.609375 -6.328125 C 15.453125 -7.210938 15.875 -8.414062 15.875 -9.9375 Z M 15.875 -9.9375 "/></g></g></g><g clip-path="url(#0df366f4d6)"><path fill="#79af57" d="M 46.121094 59.929688 C 69.597656 49.671875 52.414062 34.078125 65.226562 15.121094 C 66.359375 24.210938 68.636719 34.070312 63.597656 43.679688 C 68.75 35.554688 71.246094 18.476562 63.941406 10.941406 C 62.035156 8.980469 59.816406 7.246094 57.320312 5.824219 C 43.964844 -1.738281 27.191406 2.28125 18.648438 14.695312 C 27.011719 1.652344 44.214844 -2.707031 57.855469 5.027344 C 60.636719 6.597656 63.054688 8.558594 65.09375 10.796875 C 65.730469 11.492188 66.332031 12.21875 66.882812 12.96875 C 73.722656 22.039062 74.941406 34.648438 68.988281 45.15625 C 64.054688 53.851562 55.367188 59.074219 46.121094 59.929688 " fill-opacity="1" fill-rule="evenodd"/></g><g clip-path="url(#9f32dac94e)"><path fill="#4a3226" d="M 30.394531 7.664062 C 30.308594 8.082031 30.441406 8.5 30.632812 8.757812 C 30.804688 8.703125 31.03125 8.519531 31.164062 8.398438 C 31.15625 8.121094 31.042969 8.101562 30.925781 7.882812 C 30.765625 7.585938 30.746094 7.644531 30.394531 7.664062 Z M 29.335938 8.53125 C 29.566406 8.644531 29.792969 8.644531 29.917969 8.398438 C 30.097656 7.769531 29.414062 7.585938 29.117188 8.007812 C 28.945312 8.261719 29.117188 8.414062 29.335938 8.53125 Z M 29.078125 12.273438 C 29.136719 12.042969 29.203125 12.226562 29.15625 11.703125 C 28.832031 11.597656 28.582031 11.644531 28.355469 11.890625 C 28.003906 12.273438 28.289062 12.339844 28.175781 12.664062 C 27.886719 12.703125 27.925781 12.597656 27.613281 12.703125 C 27.394531 13.28125 27.886719 13.234375 28.136719 13.445312 C 28.230469 13.519531 28.269531 13.597656 28.355469 13.664062 C 29.394531 13.511719 29.023438 12.5 29.078125 12.273438 Z M 30.964844 11.3125 C 30.667969 11.226562 30.335938 11.023438 29.792969 11.328125 C 29.546875 11.453125 29.515625 12.121094 29.515625 12.398438 L 29.535156 12.710938 L 30.03125 12.742188 C 30.210938 11.996094 30.136719 12.425781 30.59375 12.082031 C 30.753906 11.949219 30.738281 11.84375 30.832031 11.703125 C 30.984375 11.472656 30.972656 11.617188 30.964844 11.3125 Z M 30.753906 9.789062 C 30.753906 10.300781 30.738281 10.378906 30.957031 10.730469 L 33.367188 10.414062 C 33.671875 10.386719 34.335938 10.636719 34.335938 9.625 C 34.335938 9.347656 34.070312 9.195312 33.738281 9.195312 C 33.175781 9.195312 32.535156 9.910156 31.925781 9.710938 C 31.601562 9.605469 31.9375 9.652344 31.460938 9.597656 L 31.421875 9.585938 L 31.355469 9.566406 C 31.488281 9.273438 31.601562 9.664062 31.601562 9.234375 C 31.601562 8.957031 31.277344 8.949219 31.023438 8.941406 C 30.738281 8.929688 30.488281 8.890625 30.25 8.921875 C 29.957031 8.96875 30.03125 9.273438 30.210938 9.433594 C 30.375 9.578125 30.640625 9.578125 30.753906 9.789062 Z M 28.019531 9.871094 C 27.925781 10.273438 27.992188 10.453125 28.507812 10.804688 C 28.621094 10.890625 28.820312 10.921875 29.003906 10.875 C 29.414062 10.769531 29.375 10.550781 29.382812 10.472656 L 29.90625 10.855469 C 30.414062 10.710938 30.621094 10.53125 30.355469 10.0625 L 29.898438 10.023438 C 29.726562 9.710938 29.679688 9.246094 29.15625 9.578125 C 28.785156 9.816406 28.582031 9.871094 28.019531 9.871094 Z M 24.355469 11.558594 C 24.496094 12.113281 25.507812 12.351562 26.050781 12.082031 C 26.449219 11.890625 26.355469 11.652344 26.734375 11.539062 C 27.050781 11.453125 26.898438 11.484375 27.117188 11.320312 C 27.242188 11.226562 27.449219 11.179688 27.554688 11.09375 C 27.546875 10.683594 27.488281 10.71875 27.222656 10.570312 C 27.277344 10.414062 27.269531 10.472656 27.230469 10.195312 C 26.535156 10.167969 26.867188 10.539062 26.601562 11.023438 L 25.972656 10.671875 C 25.707031 10.464844 25.648438 10.386719 25.316406 10.636719 C 25.011719 10.863281 24.476562 11.234375 24.355469 11.558594 Z M 36.890625 40.972656 C 36.488281 40.746094 35.316406 40.574219 35.15625 41.601562 C 35.433594 41.648438 35.421875 41.5625 35.691406 41.679688 C 36.175781 41.867188 36.832031 41.667969 37.117188 41.457031 C 37.117188 41.269531 37.089844 41.085938 36.890625 40.972656 Z M 35.0625 40.5625 C 34.84375 40.488281 34.707031 40.355469 34.46875 40.230469 C 34.261719 40.125 34.011719 40.03125 33.824219 39.933594 C 32.097656 39.113281 32.222656 39.5625 31.601562 39.574219 L 31.601562 40.085938 C 32.488281 40.019531 32.652344 39.992188 33.632812 40.515625 C 34.195312 40.820312 33.964844 40.886719 34.316406 40.914062 L 34.441406 40.925781 C 34.507812 40.945312 35.011719 41.429688 35.0625 40.5625 Z M 52.566406 17.636719 C 52.816406 17.578125 52.871094 17.503906 53.074219 17.777344 C 53.035156 17.941406 53.140625 17.855469 52.863281 17.921875 C 53.035156 18.835938 53.082031 18.132812 53.121094 18.691406 C 53.445312 18.761719 53.347656 18.683594 53.445312 19.027344 C 54.246094 19.140625 53.902344 19.304688 54.3125 19.304688 C 54.578125 19.304688 55.054688 19.085938 55.226562 18.96875 C 55.464844 18.816406 55.730469 18.484375 55.929688 18.40625 C 55.929688 17.921875 55.84375 17.675781 55.578125 17.398438 C 54.882812 16.683594 55.035156 17.21875 54.703125 17.21875 L 53.480469 17.21875 C 53.195312 17.21875 53.53125 17.007812 52.910156 16.929688 C 52.710938 17.199219 52.625 17.179688 52.566406 17.636719 Z M 41.984375 11.300781 C 42.089844 11.921875 41.519531 11.976562 41.949219 12.5 C 42.355469 12.472656 42.195312 12.273438 42.671875 12.226562 C 42.730469 12.320312 42.746094 12.320312 42.796875 12.425781 C 42.863281 12.585938 42.785156 12.550781 42.898438 12.664062 C 43.0625 12.835938 43.328125 12.644531 43.1875 13.121094 C 42.8125 13.082031 42.964844 12.863281 42.613281 12.863281 C 41.738281 12.863281 42.0625 14.273438 42.5 14.273438 C 42.796875 14.273438 42.9375 14.167969 43.167969 14.074219 C 43.167969 13.835938 43.148438 13.835938 43.050781 13.671875 L 43.339844 13.671875 C 43.664062 14.671875 42.757812 14.453125 42.585938 14.929688 C 42.546875 15.046875 42.441406 15.132812 42.441406 15.28125 C 42.460938 17.722656 42.539062 16.265625 42.757812 17.199219 C 42.804688 17.40625 42.851562 17.769531 42.871094 18.027344 C 43.175781 18.007812 43.261719 17.882812 43.519531 17.96875 C 43.507812 18.132812 43.339844 18.1875 43.339844 18.492188 C 43.339844 19.140625 43.40625 19.253906 43.816406 19.730469 C 43.9375 19.875 44.070312 19.941406 44.128906 20.085938 C 44.273438 20.492188 44.023438 20.484375 44.59375 20.617188 C 45.59375 20.855469 45.578125 21.683594 46.367188 21.085938 C 46.375 20.503906 46.566406 20.339844 46.585938 19.882812 C 46.605469 19.320312 46.699219 19.121094 47.054688 18.894531 C 47.054688 18.53125 47.023438 18.21875 47.121094 17.902344 C 47.261719 17.464844 47.339844 17.730469 47.460938 17.199219 C 48.054688 17.082031 48.425781 17.101562 48.871094 16.769531 C 49.425781 16.351562 49.652344 15.789062 49.851562 15.636719 C 49.863281 15.625 49.96875 15.558594 49.988281 15.550781 C 50.273438 15.378906 50.664062 15.351562 51.042969 15.265625 C 52.511719 14.96875 51.652344 14.65625 52.539062 14.65625 C 52.636719 14.472656 52.75 14.367188 52.84375 14.199219 C 52.957031 13.988281 52.929688 13.824219 53.109375 13.691406 L 52.941406 13.167969 C 52.871094 12.789062 52.835938 13.054688 52.683594 12.777344 C 52.625 12.558594 52.769531 12.082031 52.75 11.957031 C 52.703125 11.691406 52.597656 11.988281 52.597656 11.671875 C 52.597656 11.445312 52.671875 11.503906 52.710938 11.464844 C 52.796875 11.367188 52.824219 11.359375 52.816406 11.367188 C 52.863281 11.3125 52.804688 11.378906 52.863281 11.28125 C 52.941406 11.160156 52.890625 11.195312 52.996094 11.074219 C 53.550781 10.347656 53.027344 10.472656 52.941406 10.015625 C 53.207031 10.042969 53.148438 10.226562 53.433594 10.328125 C 53.625 10.140625 53.683594 10.09375 53.652344 9.730469 C 52.835938 9.539062 53.292969 9.605469 52.804688 9.1875 C 52.777344 9.167969 51.816406 8.511719 52.425781 8.511719 C 52.671875 8.511719 52.757812 8.671875 52.988281 8.511719 C 53.207031 8.234375 52.625 7.957031 52.519531 7.871094 C 52.3125 7.71875 52.007812 7.558594 52.007812 7.234375 C 52.007812 6.328125 52.757812 6.070312 52.769531 5.378906 C 50.070312 4.527344 51.023438 5.222656 50.519531 5.261719 L 50.539062 4.738281 C 49.757812 4.472656 50.167969 4.625 49.558594 4.882812 C 49.425781 4.710938 49.539062 4.769531 49.433594 4.566406 C 49.359375 4.414062 49.347656 4.472656 49.273438 4.347656 C 49.207031 4.253906 49.1875 4.148438 49.140625 4.089844 C 49.054688 3.976562 48.988281 3.996094 48.929688 3.902344 L 52.976562 5.121094 C 50.84375 4.289062 48.597656 3.71875 46.253906 3.441406 C 46.261719 3.453125 46.273438 3.453125 46.273438 3.453125 C 46.023438 3.976562 45.511719 3.558594 45.273438 3.558594 C 44.832031 3.558594 45.167969 3.679688 44.671875 3.738281 C 43.777344 3.851562 42.890625 3.835938 42.003906 3.777344 C 41.527344 3.75 41.242188 3.96875 40.746094 3.890625 C 40.40625 3.835938 40.128906 3.691406 39.738281 3.738281 C 38.691406 3.882812 37.792969 4.101562 36.765625 4.273438 C 35.757812 4.445312 35.078125 4.96875 34.003906 4.96875 C 33.804688 5.1875 33.957031 5.234375 33.566406 5.261719 C 33.289062 5.292969 33.144531 5.339844 33.058594 5.566406 C 33.195312 5.84375 33.289062 5.671875 33.394531 5.949219 C 32.898438 5.957031 33.144531 5.824219 32.851562 5.824219 L 32.402344 5.824219 C 32.28125 5.902344 31.546875 6.597656 31.433594 6.710938 C 31.222656 6.9375 31.308594 7.074219 31.441406 7.367188 C 31.765625 8.0625 31.925781 7.871094 32.316406 7.710938 C 32.515625 7.9375 32.46875 7.855469 32.460938 8.359375 C 32.289062 8.480469 32.058594 8.617188 31.90625 8.785156 C 31.917969 8.796875 31.964844 8.863281 31.984375 8.882812 C 32.335938 9.273438 33.652344 8.921875 33.898438 8.691406 C 34.183594 8.824219 34.15625 8.902344 34.546875 8.769531 C 35.460938 8.433594 34.945312 8.300781 35.289062 7.671875 C 35.5 7.300781 35.527344 7.378906 35.84375 7.308594 C 36.195312 7.226562 36.375 6.207031 37.195312 5.804688 C 37.699219 5.566406 37.871094 5.40625 38.308594 5.042969 C 38.640625 4.777344 38.605469 4.910156 38.613281 4.394531 C 38.890625 4.375 39.128906 4.414062 39.472656 4.308594 C 39.691406 4.242188 40.023438 4.121094 40.28125 4.242188 C 40.269531 4.472656 40.300781 4.375 39.9375 4.5 C 39.507812 4.644531 39.195312 4.871094 38.777344 4.996094 L 38.785156 5.394531 C 38.996094 5.40625 39.117188 5.425781 39.222656 5.566406 C 39.117188 5.796875 39.082031 5.578125 38.898438 5.949219 C 38.097656 5.949219 38.023438 6.28125 37.402344 6.464844 C 37.15625 6.539062 36.984375 6.433594 36.984375 6.683594 C 36.984375 7.71875 37.964844 7.023438 38.777344 7.28125 C 38.554688 7.863281 37.792969 7.425781 37.460938 7.511719 C 37.328125 7.550781 37.25 7.632812 37.15625 7.699219 C 37.183594 8.242188 37.316406 7.996094 37.574219 8.121094 C 37.726562 8.1875 37.777344 8.472656 37.859375 8.625 C 38.574219 8.53125 39.28125 8.425781 40.003906 8.425781 C 40.472656 8.425781 41.175781 9.207031 41.339844 9.558594 C 41.433594 9.769531 41.375 9.644531 41.492188 9.796875 C 41.613281 9.976562 41.957031 11.148438 41.984375 11.300781 Z M 34.296875 13.902344 C 34.574219 14.113281 34.71875 14.519531 34.71875 14.949219 C 34.996094 14.949219 35.433594 14.976562 35.433594 15.246094 C 35.242188 15.417969 34.8125 15.265625 34.519531 15.378906 C 34.296875 15.519531 34.203125 16.265625 34.832031 16.214844 C 35.402344 16.167969 35.433594 15.664062 35.824219 15.691406 C 35.878906 16.691406 35.574219 16.214844 35.308594 17.027344 C 35.261719 17.179688 35.289062 17.273438 35.261719 17.464844 C 34.355469 17.511719 34.003906 17.550781 34.003906 18.320312 C 34.832031 18.589844 34.566406 18.398438 35.347656 18.199219 C 36.316406 18.949219 35.546875 19.054688 37.164062 19.78125 C 37.527344 19.941406 37.660156 20.074219 37.996094 19.875 C 37.898438 19.1875 37.242188 19.199219 37.203125 18.855469 C 37.699219 18.894531 38.023438 19.234375 38.519531 19.351562 C 38.859375 18.371094 38.585938 18.351562 38.261719 17.96875 C 37.757812 17.378906 37.640625 17.445312 37.671875 16.644531 C 38.375 16.757812 38.136719 17.664062 38.898438 17.644531 C 39.453125 17.636719 39.691406 16.339844 39.671875 16.300781 C 39.527344 15.96875 39.386719 16.160156 39.148438 15.96875 L 38.679688 15.550781 C 37.792969 14.808594 37.84375 15.351562 37.832031 14.65625 C 37.984375 14.644531 38.011719 14.636719 38.089844 14.589844 C 38.089844 14.550781 37.9375 13.484375 37.859375 13.605469 C 37.851562 13.625 37.8125 13.589844 37.785156 13.570312 C 37.488281 13.40625 37.632812 13.472656 37.441406 13.292969 C 37.183594 13.0625 37.183594 13.273438 36.925781 13.035156 C 36.460938 12.597656 36.707031 12.40625 35.945312 12.558594 C 35.859375 12.433594 35.773438 12.367188 35.660156 12.246094 C 35.507812 12.0625 35.335938 11.683594 35.222656 11.453125 C 35.078125 11.167969 35.128906 11.425781 35.136719 11.042969 C 34.328125 10.84375 35.050781 10.902344 33.738281 10.902344 C 33.5 10.902344 33.660156 11.007812 33.230469 11.023438 C 33.117188 11.035156 33.097656 11.015625 32.992188 11.054688 C 32.851562 11.101562 33.03125 11.082031 32.773438 11.1875 C 32.242188 10.511719 31.289062 11.710938 31.042969 12.253906 C 30.964844 12.398438 30.832031 12.863281 30.765625 12.976562 C 31.089844 13.234375 31.125 13.054688 31.394531 13.433594 C 31.195312 13.769531 31.203125 13.558594 31.058594 14.082031 C 31.804688 14.253906 32.878906 14.265625 33.679688 14.167969 C 34.164062 14.101562 34.011719 14.015625 34.296875 13.902344 Z M 29.699219 23.589844 C 30.242188 23.78125 30.726562 24.054688 31.203125 24.359375 C 31.652344 24.648438 32.023438 24.390625 32.316406 24.730469 C 32.480469 25.105469 32.050781 26.132812 32.652344 26.457031 L 33.128906 26.734375 C 33.804688 26.398438 33.230469 25.894531 33.230469 25.371094 L 33.316406 24.847656 C 33.414062 24.542969 33.28125 24.714844 33.574219 24.597656 C 33.9375 24.476562 33.824219 24.425781 33.992188 24.085938 C 34.175781 23.734375 34.136719 23.796875 34.050781 23.351562 C 33.90625 22.550781 33.414062 22.378906 33.679688 22.046875 C 33.9375 21.722656 33.917969 21.902344 33.90625 21.320312 C 33.90625 21.007812 33.917969 20.695312 33.90625 20.378906 C 33.90625 19.609375 33.640625 19.761719 35.621094 19.78125 C 35.757812 19.980469 36.128906 20.378906 36.289062 20.492188 C 36.519531 20.636719 36.585938 20.542969 36.699219 20.808594 C 37.03125 21.570312 36.59375 21.980469 36.566406 22.265625 C 36.765625 22.265625 36.917969 22.199219 37.042969 22.238281 C 37.394531 22.332031 37.375 22.664062 37.851562 22.160156 C 38.269531 21.722656 37.964844 21.5625 38.214844 21.253906 C 38.546875 20.847656 38.832031 21.542969 38.9375 21.78125 C 39.097656 22.113281 39.289062 22.390625 39.421875 22.742188 C 39.441406 22.789062 39.460938 22.835938 39.480469 22.902344 C 39.527344 23.019531 39.554688 23.027344 39.574219 23.09375 C 39.679688 23.457031 39.175781 23.457031 39.8125 23.953125 C 40.015625 24.105469 40.117188 24.285156 40.28125 24.476562 L 40.976562 24.511719 L 41.214844 25.046875 C 41.234375 25.105469 41.261719 25.199219 41.300781 25.246094 C 41.492188 25.496094 41.28125 25.257812 41.453125 25.359375 C 41.578125 25.4375 41.527344 25.378906 41.605469 25.484375 C 41.890625 25.847656 41.765625 26.464844 41.765625 26.980469 C 41.765625 27.304688 41.558594 27.140625 41.605469 27.65625 C 41.917969 27.769531 41.890625 27.75 42.289062 27.761719 C 42.40625 28.039062 42.394531 27.855469 42.453125 28.257812 C 42.492188 28.53125 42.558594 28.542969 42.710938 28.722656 C 42.957031 29.019531 42.917969 29.484375 42.441406 29.378906 C 41.699219 29.21875 41.871094 28.820312 40.269531 28.820312 C 40.347656 28.542969 40.5 28.390625 40.605469 28.132812 C 40.738281 27.808594 41.050781 27.257812 41.023438 26.960938 C 40.488281 26.847656 40.460938 27.113281 40.414062 27.332031 C 40.261719 27.351562 39.261719 27.476562 39.175781 27.53125 C 39.242188 27.617188 39.328125 27.628906 39.460938 27.628906 L 39.453125 28.140625 C 38.660156 28.140625 38.890625 28.132812 38.546875 27.714844 C 38.308594 27.417969 37.84375 27.589844 37.527344 27.722656 C 37.023438 27.921875 37.011719 27.902344 36.765625 28.351562 C 36.554688 28.722656 36.203125 28.761719 36.175781 29.171875 C 36.652344 29.125 36.585938 28.667969 37.15625 28.296875 C 37.386719 28.140625 37.9375 27.789062 38.242188 27.902344 C 38.84375 28.125 37.984375 28.53125 38.59375 29.054688 C 38.726562 29.160156 38.910156 29.191406 39.050781 29.265625 C 39.480469 29.457031 39.738281 29.390625 40.183594 29.292969 C 40.183594 29.847656 40.203125 29.753906 39.910156 30.046875 C 39.679688 30.257812 39.574219 30.304688 39.222656 30.363281 C 38.910156 30.410156 38.859375 30.582031 38.613281 30.753906 C 38.308594 30.960938 38.308594 30.953125 37.859375 30.953125 C 37.765625 30.417969 38.042969 30.6875 38.042969 30.285156 C 37.46875 30.246094 37.777344 30.429688 37.308594 30.550781 C 37.050781 30.617188 36.925781 30.636719 36.738281 30.808594 L 36.308594 31.210938 C 36.203125 31.382812 36.300781 31.6875 36.300781 31.933594 C 35.984375 32.039062 35.691406 32.144531 35.433594 32.34375 C 35.0625 32.621094 35.117188 32.714844 34.917969 33.164062 C 34.785156 33.46875 34.652344 33.722656 34.535156 34.113281 C 34.230469 35.152344 34.328125 34.808594 33.785156 35.351562 C 33.480469 35.65625 32.925781 35.90625 32.707031 36.277344 C 32.261719 37.058594 33.15625 37.363281 33.144531 38.628906 L 33.136719 38.847656 C 32.976562 38.847656 32.804688 38.847656 32.679688 38.800781 C 32.460938 38.714844 32.222656 38.097656 32.136719 37.847656 C 31.792969 36.925781 31.792969 36.722656 29.992188 36.945312 L 29.917969 37.265625 C 29.269531 37.363281 29.261719 37.011719 28.6875 37.011719 C 28.375 37.011719 27.679688 37.582031 27.679688 37.859375 C 27.679688 39.734375 27.515625 39.230469 28.058594 40.257812 C 28.203125 40.527344 28.316406 40.832031 28.632812 40.90625 C 29.328125 41.070312 29.839844 40.648438 29.945312 39.953125 C 30.574219 39.953125 30.460938 39.886719 30.890625 40.144531 C 30.859375 40.675781 30.707031 40.753906 30.707031 41.765625 C 31.050781 41.972656 31.613281 42.011719 32.011719 42.183594 C 32.488281 42.390625 32.335938 43.050781 32.335938 43.679688 C 32.414062 43.8125 32.59375 43.972656 32.699219 44.050781 C 32.9375 44.25 32.957031 44.183594 33.25 44.15625 C 34.175781 44.050781 33.785156 44.289062 34.402344 44.441406 C 34.652344 44.289062 34.746094 43.992188 35.109375 43.832031 C 35.261719 43.773438 35.453125 43.726562 35.613281 43.667969 C 36.183594 43.457031 35.367188 42.953125 37.070312 43.78125 L 37.539062 44.03125 C 38.070312 44.277344 39.023438 43.945312 39.367188 44.15625 C 39.585938 44.289062 39.433594 44.324219 39.605469 44.46875 C 39.738281 44.5625 40.0625 44.613281 40.355469 44.832031 C 40.574219 44.992188 41.175781 45.535156 41.339844 45.574219 C 42.128906 45.765625 42.984375 45.441406 43.578125 46.648438 C 44.023438 47.59375 43.394531 47.316406 44.480469 47.527344 C 44.710938 47.566406 44.84375 47.621094 45.082031 47.699219 C 45.988281 47.972656 45.832031 48.15625 46.492188 48.058594 C 47.003906 47.984375 48.28125 48.667969 48.757812 48.839844 C 48.757812 49.957031 48.644531 49.785156 47.996094 50.394531 C 47.757812 50.613281 47.492188 50.734375 47.386719 50.957031 C 47.320312 51.058594 47.226562 51.660156 47.148438 51.878906 C 46.976562 52.363281 46.617188 52.964844 46.1875 53.242188 C 45.957031 53.394531 45.359375 53.195312 44.386719 53.832031 C 44.117188 54.011719 44.101562 54.480469 43.328125 55.097656 C 43.1875 55.214844 43.109375 55.222656 43.003906 55.335938 C 42.796875 55.566406 42.996094 55.519531 42.644531 55.59375 C 41.507812 55.8125 41.957031 56.203125 41.0625 56.316406 C 40.785156 56.355469 40.335938 56.460938 40.148438 56.574219 C 39.671875 56.871094 39.441406 57.289062 39.03125 57.519531 C 38.929688 57.574219 39.023438 57.519531 38.929688 57.585938 C 38.859375 57.632812 38.671875 57.785156 38.25 57.574219 C 37.984375 57.453125 37.671875 57.546875 37.367188 57.46875 C 37.335938 57.003906 37.148438 57.441406 37.335938 56.996094 C 37.441406 56.738281 37.441406 56.621094 37.28125 56.453125 C 36.851562 56.003906 36.859375 56.003906 37.109375 55.421875 C 37.394531 54.738281 36.996094 54.746094 37.164062 54.269531 C 37.222656 54.136719 37.222656 54.25 37.242188 54.003906 L 37.269531 52.394531 C 37.234375 52.195312 37.28125 52.375 37.175781 52.230469 C 36.957031 51.945312 37.050781 51.9375 36.671875 51.785156 C 35.46875 51.289062 35.382812 51.050781 34.660156 50.078125 C 34.554688 49.9375 34.507812 49.832031 34.414062 49.71875 C 32.917969 47.832031 33.640625 48.792969 33.5 47.640625 C 33.480469 47.429688 33.480469 47.222656 33.488281 47.003906 C 33.726562 46.792969 34.335938 46.191406 34.335938 45.839844 C 34.335938 45.496094 34.03125 44.785156 33.679688 44.785156 C 32.621094 44.785156 33.214844 45.058594 32.183594 44.460938 C 31.585938 44.097656 31.296875 43.152344 30.660156 42.925781 C 30.429688 42.847656 30.429688 42.847656 30.230469 42.746094 C 30.003906 42.621094 29.9375 42.6875 29.765625 42.609375 C 29.601562 42.535156 29.648438 42.449219 29.429688 42.335938 C 29.183594 42.191406 29.261719 42.269531 29.070312 42.078125 C 28.820312 41.820312 28.460938 41.898438 28.125 41.867188 C 27.820312 41.839844 27.621094 41.621094 27.328125 41.496094 C 26.480469 41.136719 25.667969 40.660156 25.410156 39.742188 C 25.238281 39.125 24.792969 38.761719 24.449219 38.269531 L 23.164062 36.21875 C 23.019531 36.027344 23.144531 36.132812 22.972656 36.085938 C 22.90625 36.285156 22.925781 36.316406 23.039062 36.457031 C 23.324219 36.828125 23.078125 36.828125 23.316406 37.019531 L 23.574219 37.421875 C 23.660156 37.621094 23.753906 37.773438 23.886719 37.992188 C 24.085938 38.316406 24.753906 38.675781 24.25 39.078125 C 23.746094 39.011719 23.355469 37.945312 23.085938 37.570312 C 22.886719 37.304688 22.761719 37 22.621094 36.714844 C 22.355469 36.191406 22.230469 35.21875 21.753906 34.859375 C 21.238281 34.484375 20.382812 32.65625 20.382812 32.199219 C 20.382812 31.503906 20.296875 30.808594 20.449219 30.105469 C 20.496094 29.855469 20.601562 29.894531 20.46875 29.609375 C 20.238281 29.132812 20.5625 29.074219 20.132812 28.550781 C 19.535156 27.820312 20.058594 27.582031 19.714844 26.921875 C 19.628906 26.761719 19.59375 26.675781 19.4375 26.5625 C 19.171875 26.359375 19.839844 25.617188 18.847656 25.617188 C 18.847656 25.238281 18.609375 24.816406 18.5625 24.417969 C 18.535156 24.199219 18.601562 24.273438 18.488281 24.105469 L 18.164062 23.636719 C 17.945312 23.4375 17.878906 23.542969 17.726562 23.664062 C 17.496094 23.855469 17.601562 23.722656 17.410156 23.808594 C 17.21875 23.882812 17.152344 24.171875 17.085938 24.359375 C 16.886719 24.960938 17.183594 25.445312 16.542969 25.609375 C 16.351562 25.277344 16.570312 24.980469 16.382812 24.78125 C 16.265625 25.398438 16.144531 25.066406 16.046875 25.496094 C 16.570312 22.761719 17.503906 20.167969 18.78125 17.777344 C 18.742188 17.875 18.734375 17.949219 18.742188 17.996094 C 18.945312 18.121094 19.171875 17.882812 19.410156 17.808594 C 19.726562 17.710938 19.933594 17.742188 20.316406 17.722656 C 20.402344 17.578125 20.410156 17.492188 20.496094 17.351562 C 20.582031 17.207031 20.6875 17.121094 20.773438 17.015625 C 21.164062 16.578125 21.238281 16.703125 21.753906 16.703125 C 22.058594 16.703125 22.527344 16.351562 22.8125 16.339844 C 23.03125 16.339844 23.46875 16.453125 23.695312 16.558594 C 23.867188 16.625 23.839844 16.609375 23.945312 16.703125 L 23.898438 17.148438 C 24.011719 17.207031 24.441406 17.007812 24.917969 17.007812 C 25.144531 17.007812 25.097656 17.199219 25.269531 17.3125 C 25.34375 17.367188 25.355469 17.359375 25.460938 17.378906 C 25.46875 16.949219 25.554688 16.996094 25.308594 16.722656 C 25.085938 16.472656 25.210938 16.53125 24.859375 16.53125 C 24.628906 16.53125 24.707031 16.84375 24.324219 16.425781 C 24.011719 16.074219 24.058594 16.300781 23.707031 16.121094 C 23.640625 15.769531 23.832031 15.644531 24.105469 15.570312 C 24.515625 15.464844 24.429688 15.503906 24.679688 15.226562 C 24.34375 15.0625 24.296875 15.351562 23.832031 15.253906 C 23.695312 15.074219 23.832031 15.246094 23.761719 15.101562 L 23.515625 14.683594 C 23.375 14.894531 23.289062 14.863281 23.097656 15.0625 C 22.925781 15.253906 22.859375 15.292969 22.527344 15.226562 C 22.496094 14.550781 23.085938 13.53125 23.554688 13.027344 C 23.734375 12.835938 24.230469 12.777344 24.527344 12.777344 C 24.800781 12.777344 25.230469 13.140625 25.375 13.265625 C 25.527344 13.386719 25.601562 13.472656 25.734375 13.578125 L 25.917969 13.730469 C 26.058594 13.882812 25.867188 13.835938 26.136719 13.882812 C 26.144531 13.875 26.15625 13.84375 26.15625 13.855469 C 26.183594 13.960938 26.183594 13.789062 26.183594 13.769531 C 26.308594 13.398438 26.335938 13.015625 26.507812 12.65625 C 26.648438 12.378906 27.34375 11.796875 27.34375 12.453125 C 27.34375 12.703125 27.175781 12.875 26.953125 12.929688 C 26.953125 13.273438 26.9375 13.671875 26.953125 14.007812 C 26.984375 14.710938 27.726562 14.234375 27.515625 14.96875 C 27.46875 15.148438 27.355469 15.1875 27.222656 15.28125 C 27.375 16.066406 27.003906 15.855469 26.660156 15.96875 L 26.546875 16.015625 L 26.507812 16.035156 L 26.441406 16.074219 L 26.402344 16.09375 C 26.402344 16.09375 26.382812 16.101562 26.375 16.113281 C 26.441406 16.253906 26.667969 16.371094 26.800781 16.503906 L 27.46875 16.492188 C 27.679688 16.273438 27.8125 16.179688 27.953125 15.824219 C 28.097656 15.472656 28.078125 15.292969 28.34375 15.007812 C 28.878906 15.007812 28.535156 15.148438 28.859375 15.253906 C 29.023438 15.253906 29.316406 15.273438 29.210938 15.035156 C 29.175781 14.941406 28.832031 14.855469 28.832031 14.617188 C 28.832031 13.605469 29.03125 13.84375 29.210938 13.53125 C 29.394531 13.214844 29.191406 13.292969 29.746094 13.292969 C 29.972656 13.292969 30.117188 13.996094 30.117188 14.226562 C 30.117188 14.65625 29.972656 14.425781 30.210938 14.808594 C 30.363281 15.054688 30.316406 15.226562 30.414062 15.453125 C 30.621094 15.386719 30.71875 15.09375 30.773438 14.875 C 30.8125 14.910156 30.832031 14.921875 30.839844 14.921875 C 30.839844 14.929688 30.839844 14.949219 30.871094 14.996094 C 30.890625 15.046875 30.898438 15.113281 30.917969 15.160156 C 31.089844 15.140625 31.042969 15.101562 31.175781 15.167969 C 31.175781 15.472656 30.972656 15.882812 31.109375 16.1875 C 31.289062 16.246094 31.328125 16.207031 31.480469 16.132812 C 31.515625 15.929688 31.507812 15.742188 31.59375 15.570312 C 31.6875 15.359375 31.8125 15.332031 31.90625 15.167969 C 32.003906 14.777344 31.554688 14.035156 33.117188 14.671875 C 33.128906 14.941406 33.058594 15.214844 33.058594 15.445312 C 33.058594 16.140625 33.296875 16.167969 32.753906 16.683594 C 32.585938 16.835938 32.621094 16.929688 32.382812 17.167969 C 32.414062 17.378906 32.449219 17.320312 32.441406 17.484375 C 32.421875 17.65625 32.363281 17.617188 32.335938 17.828125 C 32.613281 18.179688 33.183594 18.472656 33.109375 19.027344 C 32.765625 19.207031 32.699219 18.929688 32.230469 18.882812 C 32.136719 19.265625 32.175781 19.171875 31.738281 19.226562 C 31.460938 19.265625 31.195312 19.121094 31.15625 18.902344 C 31.089844 18.578125 31.394531 18.558594 31.394531 18.273438 C 31.394531 18.054688 31.363281 17.929688 31.242188 17.835938 C 30.964844 18.101562 31.460938 18.273438 30.46875 18.941406 C 29.613281 19.523438 30.191406 19.742188 29.601562 19.960938 C 28.925781 20.21875 29.328125 20.121094 28.800781 21.054688 C 28.535156 21.542969 28.308594 21.835938 28.632812 22.496094 C 28.957031 22.675781 28.898438 22.378906 29.011719 22.828125 C 29.125 23.324219 29.222656 23.4375 29.699219 23.589844 " fill-opacity="1" fill-rule="evenodd"/></g></svg>