<svg xmlns="http://www.w3.org/2000/svg" xmlns:xlink="http://www.w3.org/1999/xlink" width="330" zoomAndPan="magnify" viewBox="0 0 247.92 67.92" height="80" preserveAspectRatio="xMidYMid meet" version="1.0"><defs><g/><clipPath id="5334ca9ff4"><path d="M 44 26 L 73.933594 26 L 73.933594 58 L 44 58 Z M 44 26 " clip-rule="nonzero"/></clipPath><clipPath id="aa1b27f8ea"><path d="M 17 1.269531 L 70 1.269531 L 70 54 L 17 54 Z M 17 1.269531 " clip-rule="nonzero"/></clipPath></defs><g fill="#253900" fill-opacity="1"><g transform="translate(89.759971, 43.022748)"><g><path d="M 20.203125 -25.015625 L 20.203125 -20.140625 L 13.578125 -20.140625 L 13.578125 0 L 7.484375 0 L 7.484375 -20.140625 L 0.859375 -20.140625 L 0.859375 -25.015625 Z M 20.203125 -25.015625 "/></g></g></g><g fill="#253900" fill-opacity="1"><g transform="translate(112.599142, 43.022748)"><g><path d="M 20.953125 -10.265625 C 20.953125 -9.691406 20.914062 -9.097656 20.84375 -8.484375 L 7.0625 -8.484375 C 7.15625 -7.242188 7.550781 -6.296875 8.25 -5.640625 C 8.945312 -4.992188 9.804688 -4.671875 10.828125 -4.671875 C 12.347656 -4.671875 13.40625 -5.3125 14 -6.59375 L 20.5 -6.59375 C 20.164062 -5.289062 19.5625 -4.113281 18.6875 -3.0625 C 17.820312 -2.019531 16.734375 -1.203125 15.421875 -0.609375 C 14.117188 -0.015625 12.660156 0.28125 11.046875 0.28125 C 9.097656 0.28125 7.363281 -0.128906 5.84375 -0.953125 C 4.320312 -1.785156 3.132812 -2.972656 2.28125 -4.515625 C 1.425781 -6.066406 1 -7.875 1 -9.9375 C 1 -12.007812 1.421875 -13.816406 2.265625 -15.359375 C 3.109375 -16.898438 4.289062 -18.085938 5.8125 -18.921875 C 7.332031 -19.753906 9.078125 -20.171875 11.046875 -20.171875 C 12.972656 -20.171875 14.679688 -19.765625 16.171875 -18.953125 C 17.671875 -18.148438 18.84375 -17 19.6875 -15.5 C 20.53125 -14.007812 20.953125 -12.265625 20.953125 -10.265625 Z M 14.71875 -11.875 C 14.71875 -12.914062 14.359375 -13.742188 13.640625 -14.359375 C 12.929688 -14.984375 12.046875 -15.296875 10.984375 -15.296875 C 9.953125 -15.296875 9.085938 -15 8.390625 -14.40625 C 7.691406 -13.8125 7.257812 -12.96875 7.09375 -11.875 Z M 14.71875 -11.875 "/></g></g></g><g fill="#253900" fill-opacity="1"><g transform="translate(136.329069, 43.022748)"><g><path d="M 8.296875 -16.578125 C 9.015625 -17.671875 9.90625 -18.53125 10.96875 -19.15625 C 12.039062 -19.78125 13.234375 -20.09375 14.546875 -20.09375 L 14.546875 -13.65625 L 12.859375 -13.65625 C 11.335938 -13.65625 10.195312 -13.328125 9.4375 -12.671875 C 8.675781 -12.015625 8.296875 -10.867188 8.296875 -9.234375 L 8.296875 0 L 2.203125 0 L 2.203125 -19.890625 L 8.296875 -19.890625 Z M 8.296875 -16.578125 "/></g></g></g><g fill="#253900" fill-opacity="1"><g transform="translate(153.360555, 43.022748)"><g><path d="M 8.296875 -16.578125 C 9.015625 -17.671875 9.90625 -18.53125 10.96875 -19.15625 C 12.039062 -19.78125 13.234375 -20.09375 14.546875 -20.09375 L 14.546875 -13.65625 L 12.859375 -13.65625 C 11.335938 -13.65625 10.195312 -13.328125 9.4375 -12.671875 C 8.675781 -12.015625 8.296875 -10.867188 8.296875 -9.234375 L 8.296875 0 L 2.203125 0 L 2.203125 -19.890625 L 8.296875 -19.890625 Z M 8.296875 -16.578125 "/></g></g></g><g fill="#253900" fill-opacity="1"><g transform="translate(170.392041, 43.022748)"><g><path d="M 1 -9.984375 C 1 -12.023438 1.382812 -13.816406 2.15625 -15.359375 C 2.925781 -16.898438 3.976562 -18.085938 5.3125 -18.921875 C 6.644531 -19.753906 8.128906 -20.171875 9.765625 -20.171875 C 11.171875 -20.171875 12.398438 -19.882812 13.453125 -19.3125 C 14.515625 -18.75 15.328125 -18.003906 15.890625 -17.078125 L 15.890625 -19.890625 L 21.984375 -19.890625 L 21.984375 0 L 15.890625 0 L 15.890625 -2.8125 C 15.296875 -1.882812 14.46875 -1.132812 13.40625 -0.5625 C 12.351562 0 11.128906 0.28125 9.734375 0.28125 C 8.117188 0.28125 6.644531 -0.140625 5.3125 -0.984375 C 3.976562 -1.828125 2.925781 -3.023438 2.15625 -4.578125 C 1.382812 -6.140625 1 -7.941406 1 -9.984375 Z M 15.890625 -9.9375 C 15.890625 -11.457031 15.46875 -12.65625 14.625 -13.53125 C 13.78125 -14.414062 12.753906 -14.859375 11.546875 -14.859375 C 10.335938 -14.859375 9.3125 -14.425781 8.46875 -13.5625 C 7.625 -12.695312 7.203125 -11.503906 7.203125 -9.984375 C 7.203125 -8.460938 7.625 -7.253906 8.46875 -6.359375 C 9.3125 -5.472656 10.335938 -5.03125 11.546875 -5.03125 C 12.753906 -5.03125 13.78125 -5.46875 14.625 -6.34375 C 15.46875 -7.21875 15.890625 -8.414062 15.890625 -9.9375 Z M 15.890625 -9.9375 "/></g></g></g><g clip-path="url(#5334ca9ff4)"><path fill="#08cb00" d="M 72.949219 26.355469 C 48.785156 27.109375 46.992188 37.105469 47.816406 42.5 C 52.234375 37.023438 58.691406 35.195312 58.902344 35.136719 C 51.300781 39.019531 45.644531 44.96875 44.34375 56.019531 C 44.046875 58.542969 47.960938 58.652344 47.792969 56.109375 C 47.601562 53.1875 48.277344 49.828125 49.976562 46.519531 C 66.757812 54.789062 72.601562 31.695312 73.578125 27.113281 C 73.664062 26.71875 73.355469 26.347656 72.949219 26.355469 Z M 72.949219 26.355469 " fill-opacity="1" fill-rule="nonzero"/></g><g clip-path="url(#aa1b27f8ea)"><path fill="#08cb00" d="M 47.511719 31.441406 C 50.082031 28.351562 54.09375 26.089844 59.480469 24.667969 C 59.410156 24.597656 59.335938 24.519531 59.265625 24.441406 C 58.234375 23.394531 56.925781 22.972656 55.664062 22.566406 C 54.847656 22.300781 54.082031 22.054688 53.453125 21.660156 C 51.34375 20.328125 50.898438 17.253906 51.554688 15.039062 C 52.226562 12.734375 53.742188 10.878906 55.398438 9.144531 C 60.324219 12.402344 63.875 17.570312 64.972656 23.582031 C 66.3125 23.394531 67.722656 23.242188 69.195312 23.136719 C 67.085938 10.742188 56.273438 1.273438 43.28125 1.273438 C 28.789062 1.273438 17 13.066406 17 27.558594 C 17 41.351562 27.683594 52.703125 41.210938 53.761719 C 41.449219 52.300781 41.765625 50.90625 42.15625 49.578125 C 39.835938 49.460938 37.613281 48.984375 35.53125 48.203125 C 38.601562 46.253906 41.53125 44.105469 44.289062 41.777344 C 43.992188 37.902344 45.09375 34.347656 47.511719 31.441406 Z M 41.210938 25.902344 C 40.488281 27.050781 39.75 28.238281 39.589844 29.699219 C 39.492188 30.609375 39.636719 31.488281 39.777344 32.332031 C 39.960938 33.417969 40.109375 34.359375 39.703125 35.058594 C 39.53125 35.347656 39.109375 35.855469 38.277344 35.925781 C 37.511719 35.988281 35.898438 35.703125 33.675781 33.074219 C 29.949219 28.675781 27.335938 28.570312 25.03125 28.480469 C 23.734375 28.433594 22.597656 28.382812 21.234375 27.519531 C 21.253906 15.8125 30.449219 6.21875 41.996094 5.542969 C 41.875 6.9375 41.019531 8.492188 40.238281 9.917969 C 39.457031 11.347656 38.773438 12.582031 38.746094 13.71875 C 38.699219 15.722656 39.78125 17.328125 40.828125 18.886719 C 41.742188 20.253906 42.609375 21.542969 42.523438 22.898438 C 42.457031 23.910156 41.847656 24.875 41.210938 25.902344 Z M 41.210938 25.902344 " fill-opacity="1" fill-rule="nonzero"/></g></svg>