<svg xmlns="http://www.w3.org/2000/svg" xmlns:xlink="http://www.w3.org/1999/xlink" width="330" zoomAndPan="magnify" viewBox="0 0 247.92 67.92" height="80" preserveAspectRatio="xMidYMid meet" version="1.0"><defs><g/><clipPath id="d54c25d1b9"><path d="M 20 1.777344 L 75 1.777344 L 75 58.710938 L 20 58.710938 Z M 20 1.777344 " clip-rule="nonzero"/></clipPath><clipPath id="e9c063e8ac"><path d="M 9.035156 15 L 25 15 L 25 30 L 9.035156 30 Z M 9.035156 15 " clip-rule="nonzero"/></clipPath></defs><g fill="#253900" fill-opacity="1"><g transform="translate(100.247523, 45.399858)"><g><path d="M 18.03125 -24.84375 L 18.03125 -22.203125 L 11.265625 -22.203125 L 11.265625 0 L 8.015625 0 L 8.015625 -22.203125 L 1.21875 -22.203125 L 1.21875 -24.84375 Z M 18.03125 -24.84375 "/></g></g></g><g fill="#253900" fill-opacity="1"><g transform="translate(121.305197, 45.399858)"><g><path d="M 20.5625 -10.515625 C 20.5625 -9.898438 20.523438 -9.242188 20.453125 -8.546875 L 4.84375 -8.546875 C 4.96875 -6.628906 5.628906 -5.128906 6.828125 -4.046875 C 8.023438 -2.960938 9.476562 -2.421875 11.1875 -2.421875 C 12.59375 -2.421875 13.765625 -2.75 14.703125 -3.40625 C 15.640625 -4.0625 16.300781 -4.929688 16.6875 -6.015625 L 20.171875 -6.015625 C 19.648438 -4.140625 18.601562 -2.613281 17.03125 -1.4375 C 15.46875 -0.257812 13.519531 0.328125 11.1875 0.328125 C 9.332031 0.328125 7.675781 -0.0859375 6.21875 -0.921875 C 4.757812 -1.753906 3.613281 -2.9375 2.78125 -4.46875 C 1.945312 -6 1.53125 -7.773438 1.53125 -9.796875 C 1.53125 -11.816406 1.929688 -13.585938 2.734375 -15.109375 C 3.546875 -16.628906 4.679688 -17.800781 6.140625 -18.625 C 7.609375 -19.445312 9.289062 -19.859375 11.1875 -19.859375 C 13.039062 -19.859375 14.679688 -19.453125 16.109375 -18.640625 C 17.535156 -17.828125 18.632812 -16.710938 19.40625 -15.296875 C 20.175781 -13.890625 20.5625 -12.296875 20.5625 -10.515625 Z M 17.21875 -11.1875 C 17.21875 -12.425781 16.941406 -13.488281 16.390625 -14.375 C 15.847656 -15.269531 15.109375 -15.945312 14.171875 -16.40625 C 13.234375 -16.875 12.191406 -17.109375 11.046875 -17.109375 C 9.410156 -17.109375 8.015625 -16.582031 6.859375 -15.53125 C 5.703125 -14.488281 5.039062 -13.039062 4.875 -11.1875 Z M 17.21875 -11.1875 "/></g></g></g><g fill="#253900" fill-opacity="1"><g transform="translate(145.17764, 45.399858)"><g><path d="M 5.984375 -16.359375 C 6.554688 -17.472656 7.367188 -18.335938 8.421875 -18.953125 C 9.484375 -19.578125 10.773438 -19.890625 12.296875 -19.890625 L 12.296875 -16.53125 L 11.4375 -16.53125 C 7.800781 -16.53125 5.984375 -14.5625 5.984375 -10.625 L 5.984375 0 L 2.75 0 L 2.75 -19.53125 L 5.984375 -19.53125 Z M 5.984375 -16.359375 "/></g></g></g><g fill="#253900" fill-opacity="1"><g transform="translate(160.249471, 45.399858)"><g><path d="M 5.984375 -16.359375 C 6.554688 -17.472656 7.367188 -18.335938 8.421875 -18.953125 C 9.484375 -19.578125 10.773438 -19.890625 12.296875 -19.890625 L 12.296875 -16.53125 L 11.4375 -16.53125 C 7.800781 -16.53125 5.984375 -14.5625 5.984375 -10.625 L 5.984375 0 L 2.75 0 L 2.75 -19.53125 L 5.984375 -19.53125 Z M 5.984375 -16.359375 "/></g></g></g><g fill="#253900" fill-opacity="1"><g transform="translate(175.321303, 45.399858)"><g><path d="M 1.53125 -9.84375 C 1.53125 -11.832031 1.929688 -13.582031 2.734375 -15.09375 C 3.546875 -16.601562 4.660156 -17.773438 6.078125 -18.609375 C 7.492188 -19.441406 9.066406 -19.859375 10.796875 -19.859375 C 12.503906 -19.859375 13.988281 -19.488281 15.25 -18.75 C 16.507812 -18.007812 17.445312 -17.082031 18.0625 -15.96875 L 18.0625 -19.53125 L 21.34375 -19.53125 L 21.34375 0 L 18.0625 0 L 18.0625 -3.640625 C 17.425781 -2.492188 16.472656 -1.546875 15.203125 -0.796875 C 13.929688 -0.046875 12.453125 0.328125 10.765625 0.328125 C 9.023438 0.328125 7.453125 -0.0976562 6.046875 -0.953125 C 4.648438 -1.816406 3.546875 -3.019531 2.734375 -4.5625 C 1.929688 -6.101562 1.53125 -7.863281 1.53125 -9.84375 Z M 18.0625 -9.796875 C 18.0625 -11.273438 17.765625 -12.5625 17.171875 -13.65625 C 16.578125 -14.75 15.773438 -15.582031 14.765625 -16.15625 C 13.765625 -16.738281 12.65625 -17.03125 11.4375 -17.03125 C 10.226562 -17.03125 9.125 -16.742188 8.125 -16.171875 C 7.125 -15.609375 6.328125 -14.78125 5.734375 -13.6875 C 5.140625 -12.59375 4.84375 -11.3125 4.84375 -9.84375 C 4.84375 -8.34375 5.140625 -7.039062 5.734375 -5.9375 C 6.328125 -4.832031 7.125 -3.988281 8.125 -3.40625 C 9.125 -2.820312 10.226562 -2.53125 11.4375 -2.53125 C 12.65625 -2.53125 13.765625 -2.820312 14.765625 -3.40625 C 15.773438 -3.988281 16.578125 -4.832031 17.171875 -5.9375 C 17.765625 -7.039062 18.0625 -8.328125 18.0625 -9.796875 Z M 18.0625 -9.796875 "/></g></g></g><path fill="#08cb00" d="M 65.949219 19.007812 C 66.328125 19.402344 66.171875 19.277344 65.695312 18.816406 L 65.664062 18.847656 C 65.742188 18.941406 65.789062 19.085938 65.835938 19.195312 C 65.550781 18.972656 65.265625 18.625 64.914062 18.449219 C 64.898438 18.417969 64.914062 18.371094 64.914062 18.339844 C 64.566406 18.292969 64.453125 18.019531 64.121094 17.972656 C 64.230469 18.085938 65.089844 18.671875 64.582031 18.753906 C 64.628906 18.832031 64.660156 18.972656 64.726562 19.023438 C 64.707031 19.023438 64.691406 19.023438 64.675781 19.023438 C 64.535156 18.878906 64.34375 18.769531 64.183594 18.65625 C 64.214844 18.785156 64.246094 18.925781 64.3125 19.023438 C 64.183594 18.941406 64.023438 18.910156 63.882812 18.910156 C 63.914062 18.972656 63.898438 19.007812 63.914062 19.070312 C 63.898438 19.054688 63.882812 19.023438 63.867188 19.007812 C 63.785156 19.148438 63.675781 19.246094 63.515625 19.277344 C 63.675781 19.402344 63.769531 19.5625 63.675781 19.738281 C 63.628906 19.738281 63.566406 19.753906 63.515625 19.753906 C 63.546875 19.800781 63.582031 19.945312 63.644531 20.007812 C 63.421875 20.007812 63.292969 20.132812 63.375 20.375 C 63.183594 20.40625 63.167969 20.578125 63.292969 20.753906 C 63.292969 20.816406 63.292969 20.945312 63.324219 21.054688 C 62.960938 20.660156 62.769531 20.261719 62.402344 19.945312 C 62.578125 20.039062 62.769531 19.976562 63.007812 19.992188 C 63.292969 19.691406 62.085938 18.65625 61.753906 18.671875 C 61.640625 18.578125 61.578125 18.5625 61.546875 18.402344 C 61.054688 18.433594 60.78125 18.117188 60.433594 17.863281 C 60.242188 17.71875 59.464844 17.210938 59.558594 17.863281 C 59.464844 17.832031 59.398438 17.863281 59.304688 17.847656 C 59.257812 17.894531 59.195312 17.957031 59.160156 18.019531 C 59.179688 18.070312 59.210938 18.070312 59.210938 18.117188 C 58.90625 18.355469 59.144531 18.816406 58.921875 19.054688 C 59.082031 19.484375 58.957031 20.039062 58.796875 20.4375 C 59.335938 21.40625 57.398438 21.230469 59.019531 23.488281 C 59.160156 23.410156 59.273438 23.28125 59.289062 23.136719 C 59.558594 23.171875 59.542969 23.679688 59.859375 23.535156 C 60.050781 23.933594 60.289062 24.378906 60.003906 24.777344 C 60.511719 24.695312 60.640625 24.234375 61.023438 24.058594 C 61.003906 23.566406 60.496094 23.648438 60.800781 23.121094 C 60.957031 22.835938 61.242188 22.535156 60.71875 22.457031 C 60.671875 22.488281 60.625 22.503906 60.578125 22.519531 C 60.257812 22.199219 60.257812 22.152344 60.496094 21.820312 C 60.417969 21.40625 60.542969 21.167969 60.578125 20.738281 C 60.578125 20.59375 60.5625 20.246094 60.671875 20.183594 C 60.703125 20.246094 60.78125 20.308594 60.816406 20.355469 C 60.863281 20.324219 60.941406 20.292969 60.988281 20.261719 C 61.003906 20.292969 61.023438 20.324219 61.039062 20.339844 C 61.085938 20.339844 61.070312 20.308594 61.117188 20.308594 C 61.402344 20.59375 60.957031 20.976562 60.941406 21.246094 C 60.941406 21.535156 61.195312 21.707031 61.039062 22.042969 C 61.210938 22.234375 61.277344 22.644531 61.5625 22.597656 C 61.578125 22.695312 61.671875 22.757812 61.703125 22.820312 C 61.878906 22.675781 62.070312 22.519531 62.246094 22.726562 C 62.515625 22.582031 62.738281 22.695312 62.753906 23.027344 C 62.546875 22.996094 62.324219 22.835938 62.132812 23.027344 C 62.007812 22.964844 61.960938 23.027344 61.847656 23.058594 C 61.832031 23.296875 62.101562 23.3125 62.199219 23.535156 C 62.292969 23.742188 62.183594 23.949219 62.277344 24.15625 C 62.164062 23.996094 62.023438 23.855469 61.925781 23.695312 C 61.878906 23.679688 61.863281 23.726562 61.816406 23.742188 C 61.785156 23.710938 61.769531 23.648438 61.703125 23.648438 C 61.386719 23.917969 62.007812 24.125 61.738281 24.519531 C 61.816406 24.679688 61.769531 24.757812 61.640625 24.855469 C 61.417969 24.902344 61.53125 25.203125 61.515625 25.410156 C 61.433594 25.078125 61.148438 24.964844 60.863281 25.03125 C 60.703125 25.0625 60.703125 25.203125 60.542969 25.203125 C 60.433594 25.203125 60.273438 25.09375 60.132812 25.078125 C 60.035156 24.933594 59.925781 24.808594 59.796875 24.695312 C 59.910156 24.347656 59.640625 23.871094 59.304688 23.855469 C 59.195312 24.042969 59.320312 24.234375 59.210938 24.363281 C 59.320312 24.457031 59.433594 24.585938 59.480469 24.742188 C 59.640625 24.824219 59.605469 24.980469 59.542969 25.078125 C 59.6875 25.21875 59.640625 25.253906 59.511719 25.363281 C 59.210938 25.203125 59.019531 25.554688 58.890625 25.808594 C 58.875 25.792969 58.84375 25.792969 58.8125 25.792969 C 58.605469 26.808594 58.035156 26.507812 57.984375 27.160156 C 57.730469 27.113281 57.382812 27 57.316406 27.285156 C 57.160156 27.269531 57.078125 27.300781 56.984375 27.367188 C 57.414062 27.667969 58.144531 27.9375 57.589844 28.558594 C 57.796875 28.75 57.859375 28.988281 57.8125 29.257812 C 57.300781 28.941406 56.714844 28.925781 56.175781 29.066406 C 55.96875 29.335938 56.683594 29.765625 56.175781 29.878906 C 56.269531 30.371094 56.09375 30.734375 56.175781 31.246094 C 56.316406 31.246094 56.652344 31.023438 56.746094 31.085938 C 57.0625 31.402344 56.476562 32.183594 56.285156 32.5 C 56.300781 32.53125 56.300781 32.5625 56.300781 32.59375 L 56.285156 32.59375 C 56.398438 33.277344 55.695312 32.753906 55.507812 33.738281 C 55.378906 33.835938 55.347656 33.898438 55.285156 34.058594 C 55.234375 34.058594 55.171875 34.042969 55.125 34.042969 C 54.839844 34.488281 53.835938 35.648438 54.410156 35.964844 C 54.347656 36.265625 54.171875 36.535156 54.140625 36.855469 C 54.140625 36.980469 54.28125 36.933594 54.265625 37.09375 C 54.25 37.171875 54.140625 37.1875 54.140625 37.234375 C 54.125 37.378906 54.09375 37.714844 54.027344 37.808594 C 54.15625 38.046875 54.15625 38.445312 54.332031 38.636719 C 54.457031 38.761719 54.585938 38.667969 54.710938 38.792969 C 54.964844 39.160156 54.949219 39.636719 55.332031 39.921875 C 55.347656 39.921875 55.617188 40 55.664062 40.035156 C 56.363281 40.574219 57.222656 39.8125 58 40.066406 C 58.144531 40.050781 58.257812 39.90625 58.398438 39.921875 C 58.8125 39.984375 58.511719 40.398438 58.796875 40.558594 C 59.398438 39.921875 59.75 41.066406 59.558594 41.496094 C 59.433594 41.78125 59.195312 41.972656 59.304688 42.320312 C 59.417969 42.65625 59.734375 42.863281 59.796875 43.261719 C 59.84375 43.546875 59.894531 44.070312 59.84375 44.339844 C 59.574219 45.023438 59.195312 44.625 59.226562 45.597656 C 58.84375 46.105469 59.128906 46.773438 59.226562 47.34375 C 59.289062 47.851562 59.179688 48.378906 59.226562 48.886719 C 59.542969 49.824219 59.703125 49.21875 59.382812 50.410156 C 59.417969 50.410156 59.589844 50.410156 59.640625 50.410156 C 59.894531 49.984375 60.148438 50.238281 60.464844 50.269531 C 60.972656 50.332031 61.070312 50.0625 61.449219 49.761719 C 62.132812 49.363281 62.117188 48.664062 62.5625 48.058594 C 63.375 48.726562 63.070312 47.40625 63.136719 46.996094 C 63.375 46.757812 63.34375 46.691406 63.707031 46.628906 C 64.296875 46.199219 65.027344 45.515625 64.613281 44.753906 C 64.882812 44.277344 64.867188 43.65625 65.058594 43.148438 C 65.296875 42.480469 66.234375 42.195312 66.617188 41.574219 C 66.710938 41.144531 66.679688 41.257812 67.0625 41.003906 C 67.617188 40.527344 67.871094 39.699219 68.109375 39.0625 C 68.09375 39.046875 68.0625 39.046875 68.0625 39.015625 C 67.824219 38.984375 67.316406 39.652344 67.078125 39.269531 C 67.078125 39.269531 67.027344 39.300781 66.996094 39.269531 C 67.046875 38.921875 66.664062 38.9375 66.949219 38.570312 C 66.648438 38.414062 66.488281 38.554688 66.21875 38.253906 C 66.011719 38.03125 65.867188 37.746094 65.867188 37.441406 C 65.867188 36.996094 65.964844 36.949219 65.773438 36.519531 C 65.597656 36.140625 65.566406 35.804688 65.648438 35.410156 C 65.265625 35.1875 65.628906 34.757812 65.34375 34.421875 C 65.375 34.390625 65.425781 34.359375 65.457031 34.328125 C 65.488281 34.613281 65.695312 34.550781 65.820312 34.742188 C 65.964844 34.949219 65.980469 35.171875 66.058594 35.390625 C 66.21875 35.804688 66.664062 36.203125 66.441406 36.648438 C 66.679688 37.21875 66.632812 38.0625 67.027344 38.570312 C 67.15625 38.476562 67.285156 38.363281 67.394531 38.253906 C 67.617188 38.460938 68.683594 37.871094 68.90625 37.632812 C 69.09375 37.441406 69.207031 37.109375 69.351562 36.855469 C 69.460938 36.664062 69.714844 36.347656 69.667969 36.074219 C 69.046875 35.695312 69.554688 35.503906 69.269531 35.171875 C 69.191406 35.410156 68.9375 35.410156 68.839844 35.679688 C 68.363281 35.632812 68.316406 35.042969 68.222656 34.691406 C 68.0625 34.582031 67.984375 34.40625 68.125 34.214844 C 68.078125 33.945312 67.746094 33.882812 67.902344 33.660156 C 68.15625 33.804688 68.253906 34.058594 68.570312 34.058594 C 68.699219 34.710938 68.570312 34.835938 69.285156 34.996094 C 69.777344 35.28125 70.398438 35.582031 70.921875 35.773438 C 71.160156 36.378906 70.90625 36.410156 71.464844 37.0625 C 71.496094 37.109375 71.527344 37.15625 71.542969 37.203125 C 72.558594 30.050781 69.351562 22.074219 65.949219 19.007812 Z M 65.089844 29.703125 C 64.914062 29.734375 64.929688 29.941406 64.789062 29.972656 C 64.660156 30.003906 64.597656 29.863281 64.421875 29.941406 C 64.265625 30.019531 64.3125 30.132812 64.105469 30.148438 C 63.960938 30.164062 63.882812 30.101562 63.753906 30.117188 C 63.722656 30.339844 63.914062 30.511719 63.835938 30.734375 C 63.914062 30.765625 63.976562 30.832031 64.074219 30.832031 C 64.230469 31.148438 64.136719 31.308594 64.519531 31.515625 C 64.535156 31.515625 64.535156 31.515625 64.550781 31.515625 C 64.945312 31.179688 65.3125 32.023438 65.566406 31.417969 C 65.710938 31.785156 65.582031 32.039062 65.425781 32.355469 C 65.359375 32.609375 65.425781 33.277344 64.980469 33.039062 C 64.964844 33.46875 64.136719 32.992188 63.929688 32.960938 C 63.375 32.976562 63.453125 32.945312 63.121094 32.546875 C 63.105469 32.59375 63.007812 32.644531 62.976562 32.691406 C 62.882812 32.609375 62.769531 32.578125 62.660156 32.628906 C 62.691406 32.800781 62.722656 33.375 62.402344 33.199219 C 62.214844 33.054688 62.199219 33.089844 61.992188 33.105469 C 61.847656 33.054688 61.703125 32.914062 61.722656 32.753906 C 61.546875 32.691406 61.402344 32.515625 61.355469 32.339844 C 61.277344 32.421875 61.117188 32.453125 61.003906 32.453125 C 60.816406 32.292969 60.847656 32.167969 60.5625 32.117188 C 60.496094 31.992188 60.542969 31.894531 60.671875 31.847656 C 60.6875 31.738281 60.640625 31.65625 60.5625 31.59375 C 60.625 31.433594 60.59375 31.148438 60.609375 30.972656 C 60.195312 31.179688 59.765625 31.054688 59.335938 31.085938 C 58.90625 31.195312 58.496094 31.355469 58.082031 31.59375 C 58.066406 31.578125 58.035156 31.546875 58.019531 31.53125 C 57.523438 31.894531 56.539062 31.054688 57.828125 31.148438 C 57.828125 31.039062 57.96875 30.894531 57.984375 30.765625 C 57.984375 30.800781 57.984375 30.816406 57.984375 30.832031 C 58.066406 30.75 58.160156 30.671875 58.207031 30.640625 C 58.175781 30.527344 58.191406 30.464844 58.289062 30.386719 C 58.304688 30.402344 58.320312 30.402344 58.335938 30.402344 C 58.367188 30.324219 58.382812 30.195312 58.398438 30.117188 C 58.320312 29.925781 58.667969 29.65625 58.84375 29.65625 C 58.875 29.589844 58.941406 29.542969 58.972656 29.511719 C 59.050781 29.351562 58.796875 28.78125 59.082031 28.972656 C 59.226562 28.75 59.558594 28.957031 59.71875 29.097656 C 59.71875 29.082031 59.71875 29.066406 59.734375 29.050781 C 59.925781 29.113281 59.988281 28.925781 59.972656 28.765625 C 60.082031 28.78125 60.164062 28.703125 60.289062 28.765625 C 60.304688 28.859375 60.339844 28.941406 60.371094 29.035156 C 60.671875 29.082031 60.640625 29.558594 61.003906 29.574219 C 60.765625 29.925781 61.371094 30.085938 61.515625 30.273438 C 61.433594 30.386719 61.464844 30.402344 61.515625 30.496094 C 61.449219 30.878906 60.734375 30.71875 60.816406 30.941406 C 61.039062 31.007812 61.339844 31.277344 61.5625 31.277344 C 61.5625 31.179688 61.53125 31.085938 61.480469 31.007812 C 61.515625 31.023438 61.53125 31.023438 61.5625 31.039062 C 61.578125 31.023438 61.609375 31.007812 61.625 31.023438 C 61.625 30.703125 62.132812 30.546875 61.816406 30.289062 C 61.832031 30.273438 61.832031 30.242188 61.832031 30.210938 C 61.925781 30.273438 62.023438 30.304688 62.132812 30.304688 C 62.132812 30.085938 61.925781 29.84375 61.847656 29.65625 C 61.769531 29.574219 61.59375 29.589844 61.5 29.542969 C 61.402344 29.480469 61.402344 29.367188 61.261719 29.335938 C 61.210938 29.226562 61.117188 29.164062 61.085938 29.066406 C 61.054688 29.003906 61.054688 28.828125 61.023438 28.78125 C 60.925781 28.636719 60.640625 28.683594 60.78125 28.429688 C 60.800781 28.429688 60.816406 28.429688 60.832031 28.445312 C 60.863281 28.335938 60.910156 28.289062 61.003906 28.257812 C 61.070312 28.273438 61.132812 28.304688 61.164062 28.335938 C 61.117188 28.429688 61.117188 28.542969 61.148438 28.636719 C 61.292969 28.574219 61.355469 28.703125 61.480469 28.75 C 61.464844 29.113281 61.847656 29.257812 62.039062 29.496094 C 62.148438 29.464844 62.261719 29.527344 62.324219 29.605469 C 62.261719 29.75 62.371094 30.226562 62.5 30.289062 C 62.515625 30.324219 62.515625 30.386719 62.53125 30.417969 C 62.546875 30.734375 62.4375 30.785156 62.675781 31.007812 C 62.847656 31.164062 62.976562 31.339844 63.121094 31.53125 C 63.136719 31.5 63.136719 31.433594 63.136719 31.402344 C 63.167969 31.402344 63.214844 31.417969 63.246094 31.402344 C 63.199219 31.292969 63.167969 31.195312 63.167969 31.070312 C 63.261719 31.085938 63.308594 31.054688 63.390625 31.054688 C 63.453125 30.816406 63.121094 30.609375 63.324219 30.449219 C 63.277344 30.371094 63.261719 30.273438 63.214844 30.210938 C 63.292969 30.066406 63.421875 30.117188 63.546875 30.101562 C 63.613281 30.101562 63.644531 30.179688 63.707031 30.164062 C 63.769531 30.164062 63.804688 30.050781 63.804688 30.035156 C 64.136719 29.988281 64.246094 30.003906 64.230469 29.605469 C 63.546875 29.605469 64.4375 28.273438 64.390625 28.066406 C 64.390625 28.066406 64.453125 28.097656 64.4375 28.097656 C 64.421875 28.144531 64.40625 28.160156 64.40625 28.207031 C 64.566406 28.222656 64.691406 28.335938 64.789062 28.464844 C 64.996094 28.480469 64.804688 28.828125 64.945312 28.972656 C 65.027344 28.8125 65.121094 28.667969 65.328125 28.734375 C 65.550781 28.496094 65.167969 28.398438 65.058594 28.242188 C 65.058594 28.242188 65.089844 28.191406 65.089844 28.191406 C 65.328125 28.304688 65.566406 28.035156 65.757812 27.90625 C 65.679688 27.96875 65.710938 28.113281 65.664062 28.242188 C 65.441406 28.257812 65.390625 28.765625 65.597656 28.78125 C 65.679688 29.144531 66.109375 29.335938 66.3125 29.589844 C 66.503906 30.417969 65.359375 29.65625 65.089844 29.703125 Z M 65.089844 29.703125 " fill-opacity="1" fill-rule="nonzero"/><path fill="#08cb00" d="M 39.4375 15.667969 C 39.34375 15.667969 39.261719 15.765625 39.183594 15.796875 C 39.199219 15.8125 39.214844 15.8125 39.230469 15.828125 C 39.328125 15.765625 39.421875 15.699219 39.535156 15.636719 C 39.5 15.652344 39.46875 15.667969 39.4375 15.667969 Z M 39.4375 15.667969 " fill-opacity="1" fill-rule="nonzero"/><path fill="#08cb00" d="M 39.898438 15.429688 C 40.058594 15.335938 40.21875 15.238281 40.375 15.160156 C 40.34375 15.160156 40.3125 15.144531 40.296875 15.144531 C 40.136719 15.222656 39.996094 15.289062 39.898438 15.429688 Z M 39.898438 15.429688 " fill-opacity="1" fill-rule="nonzero"/><path fill="#08cb00" d="M 41.203125 15.113281 C 41.21875 15.015625 41.140625 14.90625 41.1875 14.828125 C 40.980469 15.160156 40.933594 15.03125 40.613281 15.03125 C 40.519531 15.066406 40.457031 15.160156 40.359375 15.144531 C 39.980469 15.367188 39.613281 15.605469 39.230469 15.828125 C 39.375 15.90625 39.535156 16.019531 39.675781 15.921875 C 39.804688 15.84375 39.945312 15.589844 39.980469 15.445312 C 40.089844 15.445312 40.21875 15.398438 40.328125 15.414062 C 40.34375 15.414062 40.359375 15.367188 40.421875 15.382812 C 40.4375 15.429688 40.457031 15.542969 40.488281 15.574219 C 40.566406 15.636719 40.644531 15.492188 40.710938 15.558594 C 40.742188 15.589844 40.726562 15.765625 40.742188 15.828125 C 40.789062 15.953125 40.851562 15.90625 40.882812 15.765625 C 40.898438 15.683594 40.835938 15.558594 40.851562 15.492188 C 40.964844 15.335938 41.171875 15.289062 41.203125 15.113281 Z M 41.203125 15.113281 " fill-opacity="1" fill-rule="nonzero"/><path fill="#08cb00" d="M 36.65625 19.214844 C 36.734375 19.230469 36.832031 19.230469 36.925781 19.214844 C 36.925781 19.230469 36.941406 19.246094 36.941406 19.246094 C 37.007812 19.214844 37.179688 19.164062 37.246094 19.179688 C 37.246094 19.164062 37.246094 19.164062 37.261719 19.148438 C 37.308594 19.148438 37.339844 19.117188 37.355469 19.085938 C 37.4375 19.101562 37.515625 19.007812 37.546875 18.972656 C 37.5625 18.894531 37.929688 18.785156 37.976562 18.894531 C 37.992188 18.878906 38.023438 18.878906 38.039062 18.847656 C 38.054688 18.863281 38.070312 18.863281 38.085938 18.878906 C 38.292969 18.753906 38.484375 18.972656 38.675781 18.972656 C 38.691406 18.941406 38.707031 18.941406 38.722656 18.910156 C 38.738281 18.910156 38.753906 18.910156 38.769531 18.910156 C 38.800781 18.785156 38.691406 18.65625 38.722656 18.53125 C 38.816406 18.53125 38.914062 18.5625 39.007812 18.5625 C 39.136719 18.5625 39.296875 18.371094 39.089844 18.355469 C 39.074219 18.195312 39.074219 18.148438 38.914062 18.085938 C 39.007812 17.878906 38.816406 17.589844 39.007812 17.417969 C 39.152344 17.386719 39.121094 17.195312 39.167969 17.179688 C 39.199219 17.050781 39.199219 16.890625 39.3125 16.8125 C 39.359375 16.6875 39.5 16.605469 39.46875 16.449219 C 39.375 16.414062 39.375 16.511719 39.3125 16.558594 C 39.246094 16.605469 39.183594 16.589844 39.136719 16.652344 C 39.023438 16.542969 38.945312 16.75 38.882812 16.796875 C 38.800781 16.875 38.660156 16.875 38.597656 16.972656 C 38.515625 17.066406 38.5625 17.226562 38.5 17.335938 C 38.421875 17.480469 38.308594 17.433594 38.324219 17.289062 C 38.292969 17.289062 38.246094 17.273438 38.214844 17.273438 C 38.199219 17.242188 38.199219 17.195312 38.183594 17.164062 C 38.117188 17.148438 38.054688 17.148438 37.976562 17.195312 C 37.914062 17.148438 37.863281 16.957031 37.960938 16.941406 C 37.976562 16.859375 37.960938 16.796875 37.960938 16.71875 C 37.960938 16.703125 37.960938 16.6875 37.960938 16.671875 C 37.976562 16.652344 37.992188 16.636719 38.007812 16.621094 C 37.515625 17.003906 37.039062 17.386719 36.578125 17.8125 C 36.578125 17.8125 36.578125 17.8125 36.59375 17.8125 C 36.59375 17.832031 36.59375 17.847656 36.59375 17.863281 C 36.59375 17.894531 36.578125 17.925781 36.5625 17.957031 C 36.5625 17.972656 36.578125 17.972656 36.59375 17.972656 C 36.578125 18.019531 36.59375 18.085938 36.609375 18.117188 C 36.6875 18.117188 37.007812 18.085938 36.925781 18.226562 C 36.894531 18.273438 36.832031 18.273438 36.785156 18.308594 C 36.6875 18.417969 36.53125 18.464844 36.386719 18.464844 C 36.371094 18.546875 36.273438 18.5625 36.257812 18.640625 C 36.226562 18.847656 36.578125 18.832031 36.703125 18.800781 C 36.769531 18.957031 36.386719 19.085938 36.609375 19.214844 C 36.625 19.230469 36.625 19.230469 36.640625 19.246094 C 36.640625 19.246094 36.65625 19.230469 36.65625 19.214844 Z M 36.65625 19.214844 " fill-opacity="1" fill-rule="nonzero"/><path fill="#08cb00" d="M 45.367188 20.152344 C 45.492188 20.101562 45.558594 19.878906 45.683594 19.878906 C 45.683594 19.675781 45.652344 19.609375 45.460938 19.59375 C 45.429688 19.578125 45.367188 19.484375 45.335938 19.453125 C 45.304688 19.355469 45.285156 19.308594 45.175781 19.308594 C 44.984375 19.324219 45 19.085938 44.90625 18.957031 C 44.792969 18.832031 44.667969 18.863281 44.761719 18.65625 C 44.808594 18.625 44.875 18.609375 44.921875 18.625 C 44.890625 18.59375 44.875 18.546875 44.921875 18.53125 C 44.90625 18.480469 44.859375 18.433594 44.875 18.371094 C 44.90625 18.355469 44.9375 18.148438 44.921875 18.101562 C 44.859375 18.101562 44.824219 18.035156 44.746094 18.035156 C 44.746094 17.941406 44.730469 17.925781 44.683594 17.863281 C 44.621094 17.765625 44.621094 17.832031 44.539062 17.765625 C 44.492188 17.734375 44.476562 17.703125 44.429688 17.6875 C 44.398438 17.703125 44.285156 17.671875 44.253906 17.671875 C 44.269531 17.433594 44.015625 17.351562 43.839844 17.289062 C 43.777344 17.132812 43.824219 16.78125 43.632812 16.765625 C 43.824219 16.574219 43.585938 16.449219 43.410156 16.398438 C 43.203125 16.398438 43.109375 16.480469 42.933594 16.320312 C 42.648438 16.464844 42.777344 16.382812 42.488281 16.335938 C 42.472656 16.226562 42.617188 16.144531 42.710938 16.144531 C 42.742188 16.035156 43.015625 16.003906 43.09375 16.003906 C 43.078125 15.8125 43.222656 15.859375 43.363281 15.859375 C 43.410156 15.84375 43.394531 15.828125 43.460938 15.8125 C 43.476562 15.699219 43.425781 15.636719 43.425781 15.542969 C 43.203125 15.636719 43.171875 15.492188 42.980469 15.476562 C 42.871094 15.492188 42.679688 15.492188 42.617188 15.351562 C 42.648438 15.289062 42.761719 15.207031 42.824219 15.160156 C 42.824219 15.144531 42.839844 15.113281 42.839844 15.097656 C 42.855469 15.097656 42.871094 15.097656 42.886719 15.097656 C 42.886719 15.082031 42.902344 15.082031 42.902344 15.066406 C 42.933594 15.066406 42.949219 15.050781 42.980469 15.03125 C 43.03125 14.984375 43.09375 14.9375 43.109375 14.859375 C 43.15625 14.84375 43.171875 14.808594 43.203125 14.761719 C 43.238281 14.761719 43.285156 14.761719 43.316406 14.761719 C 43.316406 14.792969 43.363281 14.828125 43.363281 14.859375 C 43.394531 14.859375 43.425781 14.875 43.460938 14.859375 C 43.476562 14.875 43.492188 14.875 43.507812 14.890625 C 43.523438 14.808594 43.617188 14.828125 43.664062 14.792969 C 43.730469 14.761719 43.761719 14.730469 43.808594 14.699219 C 43.808594 14.683594 43.824219 14.652344 43.824219 14.636719 C 43.839844 14.605469 43.871094 14.570312 43.9375 14.589844 C 43.9375 14.570312 43.953125 14.570312 43.953125 14.554688 C 44.015625 14.539062 44.078125 14.492188 44.144531 14.507812 C 44.160156 14.382812 44.125 14.332031 44.238281 14.238281 C 44.269531 14.238281 44.300781 14.238281 44.332031 14.238281 C 44.332031 14.222656 44.332031 14.207031 44.316406 14.207031 C 44.347656 14.191406 44.332031 14.191406 44.363281 14.191406 C 44.382812 14.128906 44.414062 14.128906 44.460938 14.109375 C 44.460938 14.09375 44.460938 14.078125 44.460938 14.0625 C 44.476562 14.0625 44.492188 14.0625 44.507812 14.0625 C 44.523438 14.015625 44.605469 13.953125 44.652344 13.96875 C 44.636719 13.9375 44.605469 13.871094 44.652344 13.855469 C 44.652344 13.808594 44.667969 13.777344 44.714844 13.761719 C 44.808594 13.648438 44.859375 13.445312 44.667969 13.363281 C 44.714844 13.347656 44.746094 13.316406 44.777344 13.269531 C 44.792969 13.238281 44.808594 13.222656 44.84375 13.207031 C 44.84375 13.207031 44.859375 13.1875 44.859375 13.1875 C 44.859375 13.1875 44.859375 13.171875 44.859375 13.171875 C 44.300781 13.332031 43.761719 13.523438 43.222656 13.714844 C 43.222656 13.730469 43.238281 13.746094 43.253906 13.746094 C 43.253906 13.761719 43.238281 13.761719 43.238281 13.777344 C 43.171875 13.871094 43.0625 13.90625 43.109375 14.03125 C 43.125 14.0625 43.222656 14.175781 43.253906 14.191406 C 43.253906 14.253906 43.203125 14.347656 43.125 14.347656 C 43.046875 14.367188 43.03125 14.238281 42.949219 14.269531 C 42.839844 14.300781 42.917969 14.445312 42.886719 14.507812 C 42.777344 14.570312 42.761719 14.523438 42.710938 14.683594 C 42.554688 14.683594 42.617188 14.605469 42.503906 14.714844 C 42.394531 14.84375 42.28125 14.808594 42.125 14.828125 C 41.886719 14.96875 41.855469 14.652344 41.648438 14.652344 C 41.566406 14.761719 41.550781 14.667969 41.457031 14.652344 C 41.394531 14.652344 41.328125 14.714844 41.394531 14.761719 C 41.394531 14.828125 41.472656 14.875 41.519531 14.921875 C 41.457031 14.96875 41.519531 15.03125 41.550781 15.066406 C 41.550781 15.144531 41.726562 15.191406 41.789062 15.175781 C 41.789062 15.175781 41.820312 15.207031 41.820312 15.207031 C 41.773438 15.351562 41.726562 15.335938 41.617188 15.320312 C 41.582031 15.445312 41.457031 15.460938 41.34375 15.460938 C 41.265625 15.605469 41.28125 15.75 41.457031 15.8125 C 41.566406 15.859375 41.664062 15.828125 41.742188 15.953125 C 41.933594 15.859375 41.933594 16.160156 42.027344 16.226562 C 41.980469 16.320312 41.996094 16.351562 42.042969 16.449219 C 41.996094 16.480469 41.964844 16.527344 42.011719 16.558594 C 42.027344 16.589844 42.027344 16.605469 42.042969 16.621094 C 42.042969 16.6875 42.171875 16.875 42.011719 16.84375 C 42.042969 16.828125 42.042969 16.765625 42.027344 16.703125 C 41.949219 16.703125 41.902344 16.621094 41.886719 16.558594 C 41.757812 16.527344 41.695312 16.796875 41.648438 16.859375 C 41.503906 17.019531 41.488281 17.179688 41.488281 17.402344 C 41.488281 17.496094 41.105469 17.796875 41.34375 17.796875 C 41.359375 17.863281 41.359375 17.925781 41.441406 17.957031 C 41.425781 17.988281 41.410156 18.035156 41.394531 18.050781 C 41.410156 18.070312 41.425781 18.085938 41.441406 18.101562 C 41.601562 18.101562 41.902344 18.164062 42.027344 18.148438 C 42.140625 18.226562 42.171875 18.292969 42.300781 18.292969 C 42.378906 18.324219 42.457031 18.417969 42.554688 18.386719 C 42.570312 18.308594 42.632812 18.339844 42.679688 18.273438 C 42.710938 18.242188 42.761719 18.148438 42.777344 18.101562 C 43 18.132812 43.015625 18.417969 43.078125 18.578125 C 43.140625 18.753906 43.253906 18.671875 43.347656 18.800781 C 43.441406 18.957031 43.507812 19.164062 43.554688 19.339844 C 43.554688 19.402344 43.492188 19.433594 43.460938 19.484375 C 43.378906 19.59375 43.394531 19.707031 43.300781 19.800781 C 42.949219 20.039062 43.015625 19.929688 43.09375 20.308594 C 43.09375 20.292969 43.078125 20.292969 43.078125 20.292969 C 43.046875 20.324219 43.046875 20.375 43.03125 20.40625 C 42.871094 20.355469 42.777344 20.375 42.648438 20.46875 C 42.570312 20.5 42.523438 20.4375 42.441406 20.46875 C 42.378906 20.484375 42.378906 20.546875 42.265625 20.53125 C 42.265625 20.675781 42.125 20.738281 42.265625 20.851562 C 42.539062 21.007812 42.777344 20.660156 43.03125 21.023438 C 43.316406 21.074219 43.203125 21.230469 43.300781 21.390625 C 43.347656 21.4375 43.394531 21.453125 43.441406 21.4375 C 43.460938 21.453125 43.492188 21.5 43.507812 21.515625 C 43.648438 21.613281 43.777344 21.597656 43.886719 21.738281 C 43.984375 21.898438 44.207031 21.945312 44.398438 21.914062 C 44.332031 21.722656 44.109375 21.789062 44.125 21.484375 C 44.0625 21.46875 43.855469 21.34375 43.839844 21.277344 C 43.808594 21.136719 43.902344 21.105469 44 21.214844 C 44.0625 21.261719 44.109375 21.277344 44.175781 21.296875 C 44.269531 21.34375 44.253906 21.46875 44.347656 21.46875 C 44.382812 21.535156 44.492188 21.5 44.554688 21.550781 C 44.621094 21.582031 44.652344 21.675781 44.730469 21.691406 C 44.761719 21.597656 44.636719 21.5 44.761719 21.453125 C 44.761719 21.4375 44.777344 21.40625 44.777344 21.390625 C 44.792969 21.390625 44.792969 21.375 44.824219 21.359375 C 44.792969 21.039062 44.699219 21.183594 44.667969 21.023438 C 44.683594 20.898438 44.652344 20.785156 44.605469 20.660156 C 44.585938 20.59375 44.621094 20.5 44.605469 20.453125 C 44.570312 20.390625 44.460938 20.390625 44.429688 20.339844 C 44.363281 20.261719 44.382812 20.007812 44.460938 19.945312 C 44.507812 19.992188 44.507812 20.054688 44.539062 20.117188 C 44.605469 20.101562 44.714844 20.085938 44.761719 20.132812 C 44.761719 20.292969 44.875 20.546875 45 20.644531 C 45.03125 20.5625 45.113281 20.546875 45.144531 20.46875 C 45.160156 20.40625 45.097656 20.339844 45.113281 20.292969 C 45.207031 20.199219 45.304688 20.246094 45.367188 20.152344 Z M 45.367188 20.152344 " fill-opacity="1" fill-rule="nonzero"/><path fill="#08cb00" d="M 52.40625 17.832031 C 52.550781 17.671875 52.503906 17.480469 52.421875 17.289062 C 52.214844 16.875 52.199219 17.019531 52.199219 16.511719 C 52.105469 16.414062 52.074219 16.320312 52.230469 16.289062 C 52.230469 16.273438 52.25 16.273438 52.25 16.257812 C 52.296875 16.242188 52.34375 16.210938 52.390625 16.191406 C 52.40625 16.113281 52.375 16.082031 52.359375 16.035156 C 52.390625 15.84375 52.40625 15.667969 52.183594 15.605469 C 52.167969 15.558594 52.199219 15.492188 52.214844 15.445312 C 52.3125 15.304688 52.296875 14.984375 52.105469 14.921875 C 51.976562 14.84375 52.027344 14.792969 51.992188 14.667969 C 51.882812 14.460938 52.011719 14.238281 51.882812 14.03125 C 51.820312 13.90625 51.820312 13.886719 51.851562 13.777344 C 51.945312 13.570312 51.484375 13.445312 51.660156 13.300781 C 51.675781 13.238281 51.722656 13.125 51.753906 13.09375 C 51.753906 13.078125 51.753906 13.046875 51.773438 13.03125 C 51.851562 12.964844 51.945312 12.871094 51.882812 12.761719 C 51.851562 12.761719 51.820312 12.746094 51.804688 12.746094 C 51.804688 12.726562 51.804688 12.664062 51.789062 12.617188 C 51.753906 12.570312 51.722656 12.507812 51.738281 12.457031 C 51.199219 12.425781 50.644531 12.425781 50.101562 12.441406 C 50.660156 12.425781 51.199219 12.425781 51.738281 12.457031 C 51.738281 12.457031 51.738281 12.457031 51.738281 12.441406 C 51.753906 12.441406 51.773438 12.441406 51.789062 12.441406 C 51.804688 12.410156 51.820312 12.394531 51.835938 12.363281 C 49.992188 12.265625 48.101562 12.425781 46.351562 12.792969 C 46.335938 12.824219 46.320312 12.839844 46.304688 12.871094 C 46.957031 12.726562 47.625 12.617188 48.308594 12.554688 C 47.625 12.632812 46.957031 12.746094 46.304688 12.871094 C 46.160156 13.046875 46.050781 13.316406 45.8125 13.378906 C 45.699219 13.425781 45.683594 13.539062 45.574219 13.585938 C 45.414062 13.632812 45.238281 13.761719 45.0625 13.714844 C 45.0625 13.761719 45.046875 13.808594 45 13.839844 C 45.03125 13.9375 45.160156 13.96875 45.238281 14 C 45.238281 14.046875 45.238281 14.0625 45.269531 14.09375 C 45.238281 14.367188 45.507812 14.636719 45.367188 14.890625 C 45.683594 14.875 45.460938 15.144531 45.683594 15.113281 C 45.746094 15.050781 45.84375 15 45.890625 14.9375 C 45.953125 14.859375 45.921875 14.828125 46.019531 14.777344 C 46.050781 14.808594 46.050781 14.792969 46.082031 14.808594 C 46.097656 14.84375 46.113281 14.84375 46.128906 14.875 C 46.175781 14.84375 46.175781 14.859375 46.226562 14.84375 C 46.242188 14.808594 46.257812 14.808594 46.273438 14.761719 C 46.367188 14.761719 46.464844 14.808594 46.511719 14.890625 C 46.496094 14.953125 46.589844 15.066406 46.652344 15.066406 C 46.667969 15.082031 46.667969 15.082031 46.6875 15.097656 C 46.703125 15.175781 46.6875 15.367188 46.796875 15.335938 C 46.796875 15.351562 46.8125 15.367188 46.8125 15.367188 C 46.828125 15.351562 46.828125 15.351562 46.84375 15.351562 C 46.859375 15.367188 46.890625 15.398438 46.890625 15.398438 C 46.71875 15.527344 46.90625 15.75 46.988281 15.859375 C 46.988281 15.90625 47.003906 15.953125 47.050781 15.988281 C 47.066406 16.082031 46.988281 16.175781 46.90625 16.226562 C 46.925781 16.273438 46.988281 16.496094 47.019531 16.496094 C 47.035156 16.558594 46.988281 16.589844 46.925781 16.605469 C 46.925781 16.621094 46.941406 16.636719 46.941406 16.636719 C 46.84375 16.796875 46.925781 16.796875 47.035156 16.910156 C 47.035156 16.972656 47.050781 17.035156 47.097656 17.050781 C 47.113281 17.242188 47.003906 17.257812 46.925781 17.371094 C 47.210938 17.832031 47.148438 17.304688 47.449219 17.257812 C 47.449219 17.386719 47.449219 17.417969 47.542969 17.480469 C 47.640625 17.542969 47.640625 17.511719 47.625 17.625 C 47.542969 17.832031 47.511719 17.925781 47.75 18.019531 C 47.6875 18.132812 47.640625 18.257812 47.589844 18.386719 C 47.542969 18.433594 47.527344 18.402344 47.480469 18.417969 C 47.304688 18.496094 47.386719 18.71875 47.164062 18.785156 C 47.164062 18.863281 47.113281 18.894531 47.097656 18.957031 C 47.082031 19.054688 47.097656 19.195312 47.128906 19.292969 C 47.148438 19.339844 47.242188 19.324219 47.210938 19.402344 C 47.164062 19.402344 47.113281 19.402344 47.066406 19.417969 C 47.035156 19.625 47.050781 19.816406 47.210938 19.929688 C 47.210938 20.054688 47.097656 20.246094 47.273438 20.308594 C 47.386719 20.484375 47.320312 20.660156 47.335938 20.835938 C 47.402344 20.898438 47.417969 20.976562 47.433594 21.074219 C 47.433594 21.089844 47.496094 21.183594 47.511719 21.199219 C 47.433594 21.484375 47.6875 21.597656 47.71875 21.867188 C 47.71875 21.882812 47.671875 21.914062 47.671875 21.929688 C 47.640625 22.199219 48.019531 22.121094 48.066406 22.34375 C 48.5625 22.296875 48.273438 22.4375 48.480469 22.644531 C 48.546875 22.628906 48.5625 22.582031 48.640625 22.582031 C 48.65625 22.628906 48.6875 22.710938 48.71875 22.773438 C 48.734375 22.773438 48.75 22.773438 48.75 22.773438 C 48.800781 22.820312 48.832031 22.851562 48.863281 22.898438 C 48.878906 22.851562 48.894531 22.820312 48.925781 22.804688 C 48.910156 22.582031 48.941406 22.390625 49.054688 22.199219 C 49.148438 22.152344 49.023438 21.628906 49.132812 21.582031 C 49.148438 21.453125 49.261719 21.40625 49.292969 21.296875 C 49.324219 21.199219 49.277344 21.121094 49.324219 21.023438 C 49.386719 20.898438 49.53125 20.800781 49.5625 20.628906 C 49.578125 20.46875 49.402344 20.40625 49.578125 20.261719 C 49.65625 20.199219 49.832031 20.152344 49.929688 20.214844 C 49.960938 20.183594 49.960938 20.183594 50.023438 20.199219 C 50.039062 20.152344 50.101562 20.117188 50.148438 20.101562 C 50.183594 20.152344 50.230469 20.167969 50.292969 20.167969 C 50.324219 20.054688 50.390625 20.023438 50.390625 19.894531 C 50.484375 19.863281 50.5625 19.722656 50.644531 19.691406 C 50.660156 19.609375 50.722656 19.5625 50.707031 19.46875 C 50.769531 19.433594 50.800781 19.339844 50.882812 19.355469 C 50.914062 19.277344 50.769531 19.070312 50.914062 19.023438 C 50.929688 18.957031 51.039062 18.910156 51.089844 18.894531 C 51.214844 18.703125 51.550781 18.894531 51.773438 18.71875 C 51.804688 18.671875 51.867188 18.511719 51.945312 18.511719 C 52.027344 18.417969 52.105469 18.308594 52.25 18.273438 C 52.597656 18.050781 52.375 18.148438 52.40625 17.832031 Z M 48.339844 12.585938 C 48.609375 12.554688 48.894531 12.539062 49.164062 12.507812 C 48.878906 12.539062 48.609375 12.554688 48.339844 12.585938 Z M 48.339844 12.585938 " fill-opacity="1" fill-rule="nonzero"/><path fill="#08cb00" d="M 49.355469 42.449219 C 49.324219 42.417969 49.292969 42.402344 49.261719 42.355469 C 49.179688 42.355469 49.132812 42.257812 49.101562 42.195312 C 49.085938 42.195312 49.085938 42.195312 49.070312 42.210938 C 49.054688 42.179688 49.023438 42.179688 49.007812 42.148438 C 48.910156 42.179688 48.816406 42.019531 48.769531 41.972656 C 48.640625 41.957031 48.402344 41.878906 48.355469 41.734375 C 48.324219 41.734375 48.308594 41.71875 48.289062 41.734375 C 48.257812 41.703125 48.242188 41.671875 48.210938 41.636719 C 48.164062 41.65625 48.117188 41.636719 48.085938 41.605469 C 48.019531 41.65625 47.894531 41.65625 47.8125 41.636719 C 47.6875 41.542969 47.496094 41.398438 47.320312 41.433594 C 47.320312 41.417969 47.320312 41.398438 47.320312 41.382812 C 47.304688 41.367188 47.289062 41.367188 47.289062 41.351562 C 47.066406 41.226562 46.957031 41.097656 46.652344 41.144531 C 46.605469 41.082031 46.6875 41.082031 46.667969 41.035156 C 46.558594 40.828125 46.035156 40.859375 46.019531 40.605469 C 45.96875 40.574219 46.003906 40.542969 45.984375 40.511719 C 45.96875 40.460938 45.921875 40.414062 45.890625 40.367188 C 45.875 40.335938 45.8125 40.351562 45.8125 40.304688 C 45.8125 40.222656 45.875 40.257812 45.890625 40.207031 C 45.953125 40.097656 45.875 39.875 45.746094 39.8125 C 45.765625 39.796875 45.746094 39.777344 45.796875 39.761719 C 45.765625 39.652344 45.542969 39.605469 45.476562 39.492188 C 45.398438 39.476562 45.367188 39.398438 45.269531 39.398438 C 45.269531 39.414062 45.253906 39.429688 45.253906 39.445312 C 45.03125 39.445312 44.875 39.367188 44.667969 39.285156 C 44.492188 39.269531 44.222656 39.175781 44.222656 38.96875 C 44.207031 38.953125 44.207031 38.953125 44.191406 38.9375 C 43.871094 38.808594 43.617188 38.445312 43.363281 38.222656 C 43.347656 38.222656 43.300781 38.238281 43.285156 38.253906 C 43.285156 38.269531 43.285156 38.269531 43.269531 38.285156 C 43.015625 38.347656 42.710938 38 42.488281 38.175781 C 42.410156 38.222656 42.347656 38.175781 42.28125 38.140625 C 42.109375 38.125 41.789062 38.253906 41.820312 37.96875 C 41.757812 37.984375 41.695312 37.917969 41.632812 37.933594 C 41.601562 37.855469 41.488281 37.902344 41.410156 37.917969 C 41.410156 37.933594 41.410156 37.953125 41.394531 37.96875 C 41.34375 37.953125 41.265625 38.015625 41.234375 38 C 41.171875 37.984375 41.203125 37.886719 41.105469 37.886719 C 41.15625 37.824219 41.34375 37.746094 41.3125 37.632812 C 41.1875 37.554688 41.105469 37.664062 41.011719 37.746094 C 40.867188 37.808594 40.742188 37.871094 40.628906 37.96875 C 40.628906 37.984375 40.628906 37.984375 40.613281 38 C 40.519531 38 40.421875 37.917969 40.328125 37.902344 C 40.328125 37.953125 40.296875 37.96875 40.28125 38 C 40.199219 38.015625 40.21875 38.253906 40.183594 38.332031 C 40.167969 38.332031 40.167969 38.347656 40.136719 38.363281 C 40.136719 38.378906 40.121094 38.394531 40.121094 38.429688 C 40.058594 38.429688 40.042969 38.476562 39.996094 38.523438 C 39.976562 38.507812 39.976562 38.507812 39.976562 38.492188 C 39.914062 38.476562 39.835938 38.476562 39.804688 38.394531 C 39.722656 38.347656 39.613281 38.332031 39.566406 38.269531 C 39.484375 38.269531 39.40625 38.269531 39.328125 38.269531 C 39.328125 38.285156 39.328125 38.285156 39.3125 38.300781 C 39.246094 38.269531 39.214844 38.316406 39.136719 38.332031 C 39.136719 38.347656 39.121094 38.347656 39.121094 38.363281 C 38.851562 38.363281 38.738281 38.140625 38.53125 38.015625 C 38.453125 37.917969 38.515625 37.808594 38.53125 37.714844 C 38.515625 37.507812 38.597656 37.316406 38.5625 37.109375 C 38.53125 36.996094 38.40625 36.550781 38.261719 36.550781 C 38.261719 36.570312 38.246094 36.570312 38.246094 36.585938 C 38.230469 36.570312 38.183594 36.585938 38.167969 36.570312 C 38.167969 36.585938 38.152344 36.601562 38.152344 36.617188 C 38.117188 36.601562 38.117188 36.617188 38.101562 36.585938 C 37.863281 36.472656 37.5625 36.585938 37.386719 36.363281 C 37.371094 36.363281 37.355469 36.363281 37.355469 36.363281 C 37.417969 36.203125 37.5625 36.074219 37.53125 35.886719 C 37.59375 35.871094 37.640625 35.835938 37.707031 35.851562 C 37.722656 35.726562 37.722656 35.632812 37.675781 35.503906 C 37.753906 35.3125 37.832031 35.265625 37.800781 35.027344 C 37.769531 35.011719 37.738281 34.980469 37.738281 34.929688 C 37.546875 34.882812 37.453125 34.964844 37.292969 35.011719 C 37.308594 35.058594 37.324219 35.105469 37.308594 35.152344 C 37.246094 35.152344 37.246094 35.21875 37.195312 35.25 C 37.179688 35.265625 37.117188 35.265625 37.085938 35.28125 C 37.070312 35.3125 37.039062 35.34375 36.992188 35.359375 C 37.007812 35.410156 37.023438 35.472656 37.039062 35.519531 C 36.816406 35.835938 36.769531 35.535156 36.640625 35.710938 C 36.59375 35.695312 36.546875 35.726562 36.515625 35.757812 C 36.433594 35.726562 36.433594 35.789062 36.371094 35.789062 C 36.324219 35.789062 36.273438 35.773438 36.226562 35.757812 C 36.210938 35.789062 36.195312 35.789062 36.179688 35.835938 C 35.847656 35.820312 35.734375 35.582031 35.765625 35.265625 C 35.304688 34.898438 35.609375 34.328125 35.542969 33.851562 C 35.625 33.707031 35.71875 33.566406 35.796875 33.40625 C 35.8125 33.359375 35.796875 33.277344 35.832031 33.230469 C 35.910156 33.089844 36.101562 32.945312 36.242188 32.867188 C 36.371094 32.832031 36.449219 32.960938 36.5625 32.945312 C 36.753906 32.816406 36.976562 32.914062 37.132812 33.054688 C 37.417969 33.199219 37.386719 32.691406 37.675781 32.769531 C 37.816406 32.847656 37.863281 32.769531 37.992188 32.707031 C 38.101562 32.691406 38.230469 32.691406 38.292969 32.769531 C 38.324219 32.867188 38.453125 32.898438 38.5625 32.898438 C 38.546875 32.992188 38.613281 33.007812 38.660156 32.992188 C 38.753906 32.945312 38.769531 32.847656 38.816406 33.023438 C 38.867188 33.199219 38.816406 33.390625 38.898438 33.550781 C 38.976562 33.675781 39.039062 33.804688 39.074219 33.945312 C 39.089844 33.992188 39.136719 34.136719 39.183594 34.183594 C 39.246094 34.230469 39.3125 34.183594 39.359375 34.265625 C 39.550781 33.804688 39.375 33.308594 39.390625 32.816406 C 39.34375 32.644531 39.246094 32.484375 39.328125 32.308594 C 39.421875 32.277344 39.46875 32.183594 39.582031 32.148438 C 39.835938 32.054688 39.914062 31.753906 40.183594 31.671875 C 40.28125 31.640625 40.40625 31.546875 40.503906 31.609375 C 40.820312 31.324219 40.4375 31.117188 40.695312 30.957031 C 40.613281 30.785156 40.644531 30.640625 40.757812 30.496094 C 40.835938 30.339844 40.933594 30.132812 41.089844 29.988281 C 41.265625 29.863281 41.472656 29.78125 41.664062 29.65625 C 41.695312 29.625 41.710938 29.589844 41.742188 29.558594 C 41.773438 29.542969 41.820312 29.558594 41.855469 29.542969 C 41.871094 29.558594 41.902344 29.574219 41.917969 29.589844 C 41.964844 29.449219 42.0625 29.496094 42.171875 29.433594 C 42.09375 29.273438 42.21875 28.972656 42.265625 28.828125 C 42.347656 28.78125 42.425781 28.683594 42.519531 28.652344 C 42.519531 28.636719 42.539062 28.636719 42.539062 28.621094 C 42.726562 28.636719 42.871094 28.445312 43.03125 28.480469 C 43.0625 28.382812 43.253906 28.273438 43.316406 28.242188 C 43.332031 28.257812 43.347656 28.257812 43.363281 28.257812 C 43.410156 28.222656 43.460938 28.191406 43.507812 28.144531 C 43.507812 28.113281 43.523438 28.082031 43.570312 28.050781 C 43.554688 28.082031 43.523438 28.113281 43.507812 28.144531 C 43.460938 28.382812 43.238281 28.542969 43.140625 28.734375 C 43.1875 28.75 43.222656 28.75 43.253906 28.71875 C 43.253906 28.703125 43.269531 28.703125 43.269531 28.683594 C 43.410156 28.703125 43.460938 28.621094 43.585938 28.574219 C 43.648438 28.414062 43.839844 28.589844 43.953125 28.511719 C 43.984375 28.335938 44.125 28.382812 44.175781 28.257812 C 44.238281 28.242188 44.285156 28.242188 44.347656 28.273438 C 44.347656 28.257812 44.347656 28.257812 44.363281 28.242188 C 44.429688 28.257812 44.460938 28.207031 44.539062 28.207031 C 44.539062 28.191406 44.539062 28.191406 44.554688 28.175781 C 44.636719 28.160156 44.683594 28.082031 44.746094 28.066406 C 44.761719 28.003906 44.746094 27.9375 44.667969 27.921875 C 44.621094 27.796875 44.792969 27.746094 44.667969 27.621094 C 44.523438 27.761719 44.285156 28.128906 44.09375 27.84375 C 43.761719 27.8125 43.871094 27.683594 43.714844 27.445312 C 43.746094 27.414062 43.792969 27.351562 43.824219 27.320312 C 43.824219 27.300781 43.839844 27.269531 43.839844 27.253906 C 43.9375 27.160156 44 27.03125 43.984375 26.859375 C 43.96875 26.859375 43.953125 26.859375 43.9375 26.84375 C 43.921875 26.808594 43.902344 26.777344 43.902344 26.746094 C 43.792969 26.859375 43.683594 26.761719 43.539062 26.792969 C 43.171875 26.953125 42.886719 27.269531 42.523438 27.476562 C 42.523438 27.476562 42.523438 27.492188 42.523438 27.492188 C 42.523438 27.492188 42.503906 27.492188 42.503906 27.492188 C 42.503906 27.492188 42.523438 27.476562 42.523438 27.476562 C 42.523438 27.320312 42.792969 27.238281 42.808594 27.097656 C 42.886719 27.0625 42.886719 26.96875 42.964844 26.953125 C 43 26.890625 43.09375 26.808594 43.171875 26.824219 C 43.1875 26.761719 43.238281 26.761719 43.253906 26.714844 C 43.285156 26.699219 43.285156 26.699219 43.316406 26.652344 C 43.363281 26.621094 43.394531 26.570312 43.460938 26.585938 C 43.460938 26.570312 43.476562 26.570312 43.476562 26.554688 C 43.492188 26.554688 43.507812 26.570312 43.523438 26.554688 C 43.523438 26.539062 43.539062 26.539062 43.539062 26.523438 C 43.632812 26.539062 43.699219 26.460938 43.792969 26.523438 C 43.792969 26.507812 43.792969 26.507812 43.808594 26.492188 C 43.96875 26.507812 44.125 26.414062 44.269531 26.398438 C 44.285156 26.429688 44.316406 26.460938 44.363281 26.460938 C 44.363281 26.445312 44.363281 26.445312 44.382812 26.429688 C 44.523438 26.382812 44.714844 26.382812 44.84375 26.460938 C 44.84375 26.445312 44.859375 26.445312 44.859375 26.429688 C 44.984375 26.382812 45.082031 26.347656 45.207031 26.363281 C 45.207031 26.175781 45.542969 26.03125 45.683594 26.015625 C 45.746094 26.015625 45.746094 26.0625 45.828125 26.015625 C 45.828125 26 45.84375 26 45.84375 25.984375 C 45.875 25.984375 45.890625 25.984375 45.921875 25.984375 C 45.890625 25.953125 45.890625 25.902344 45.90625 25.855469 C 45.984375 25.746094 46.160156 25.699219 46.144531 25.523438 C 46.367188 25.507812 46.066406 25.316406 46.003906 25.300781 C 45.953125 25.078125 45.699219 25.203125 45.714844 24.855469 C 45.683594 24.855469 45.636719 24.839844 45.605469 24.839844 C 45.621094 24.539062 45.269531 24.441406 45.113281 24.25 C 45.082031 23.886719 45 24.125 44.9375 23.949219 C 44.921875 23.839844 45.0625 23.550781 44.859375 23.519531 C 44.761719 23.34375 44.859375 23.136719 44.84375 22.964844 C 44.746094 22.773438 44.746094 22.503906 44.652344 22.3125 C 44.492188 22.34375 44.492188 22.851562 44.253906 22.835938 C 44.269531 22.949219 44.109375 23.265625 44.015625 23.328125 C 43.921875 23.394531 43.953125 23.328125 43.871094 23.296875 C 43.777344 23.265625 43.714844 23.328125 43.632812 23.296875 C 43.601562 23.171875 43.664062 23.074219 43.632812 22.949219 C 43.570312 22.835938 43.507812 22.789062 43.476562 22.675781 C 43.476562 22.660156 43.492188 22.660156 43.507812 22.660156 C 43.460938 22.472656 43.585938 22.296875 43.730469 22.152344 C 43.664062 21.976562 43.332031 22.28125 43.269531 22.011719 C 43.253906 22.011719 43.238281 21.996094 43.222656 21.996094 C 43.1875 21.707031 42.742188 21.5 42.617188 21.820312 C 42.503906 21.851562 42.21875 21.738281 42.15625 21.660156 C 41.933594 22.042969 42.109375 22.550781 41.871094 22.933594 C 41.820312 23.011719 41.726562 23.105469 41.648438 23.15625 C 41.617188 23.25 41.757812 23.472656 41.820312 23.519531 C 41.886719 23.804688 41.617188 23.996094 41.550781 24.28125 C 41.488281 24.410156 41.410156 24.585938 41.265625 24.648438 C 41.21875 24.664062 41.140625 24.617188 41.105469 24.710938 C 41.089844 24.757812 41.171875 24.808594 41.171875 24.824219 C 41.203125 24.949219 41.089844 25.0625 41.121094 25.203125 C 41.15625 25.347656 41.234375 25.378906 41.203125 25.539062 C 41.1875 25.746094 41.074219 25.679688 40.964844 25.808594 C 40.882812 25.9375 40.851562 26.078125 40.773438 26.207031 C 40.804688 25.953125 40.488281 26.015625 40.535156 25.617188 C 40.566406 25.410156 40.328125 25.269531 40.4375 25.046875 C 40.550781 24.949219 40.660156 24.757812 40.628906 24.585938 C 40.566406 24.570312 40.519531 24.617188 40.457031 24.632812 C 40.3125 24.632812 40.011719 24.710938 39.980469 24.519531 C 39.851562 24.488281 39.789062 24.457031 39.738281 24.347656 C 39.566406 24.425781 39.582031 24.28125 39.46875 24.203125 C 39.390625 24.140625 39.246094 24.140625 39.183594 24.078125 C 39.074219 23.996094 39.121094 23.839844 38.945312 23.871094 C 38.851562 23.886719 38.785156 23.980469 38.660156 23.917969 C 38.722656 23.820312 38.5625 23.425781 38.675781 23.394531 C 38.722656 23.21875 38.453125 23.34375 38.390625 23.378906 C 38.390625 23.328125 38.40625 23.28125 38.4375 23.265625 C 38.4375 23.203125 38.46875 23.121094 38.484375 23.058594 C 38.53125 23.027344 38.484375 22.964844 38.5625 22.949219 C 38.660156 22.867188 38.578125 22.535156 38.769531 22.503906 C 38.816406 22.375 38.976562 22.34375 38.992188 22.167969 C 39.121094 22.152344 39.152344 21.851562 39.246094 21.851562 C 39.246094 21.835938 39.261719 21.835938 39.261719 21.820312 C 39.40625 21.804688 39.5 21.644531 39.628906 21.597656 C 39.691406 21.550781 40.027344 21.375 39.738281 21.328125 C 39.773438 21.277344 39.867188 21.199219 39.945312 21.230469 C 39.996094 21.199219 39.996094 21.199219 40.042969 21.199219 C 40.042969 21.183594 40.058594 21.167969 40.058594 21.152344 C 40.105469 21.167969 40.152344 21.152344 40.199219 21.136719 C 40.25 21.039062 40.375 21.023438 40.472656 20.992188 C 40.472656 20.976562 40.472656 20.976562 40.488281 20.960938 L 40.457031 20.945312 C 40.488281 20.929688 40.488281 20.914062 40.503906 20.898438 C 40.472656 20.851562 40.519531 20.816406 40.550781 20.769531 C 40.710938 20.59375 40.265625 20.5 40.375 20.246094 C 40.472656 20.261719 40.535156 20.375 40.597656 20.4375 C 40.660156 20.40625 40.710938 20.4375 40.742188 20.484375 C 40.773438 20.4375 40.820312 20.375 40.851562 20.324219 C 40.917969 20.246094 41.027344 20.261719 41.011719 20.132812 C 41.074219 20.039062 41.042969 19.929688 41.25 19.960938 C 41.265625 19.976562 41.265625 19.976562 41.28125 19.992188 C 41.25 20.152344 41.378906 20.152344 41.457031 20.101562 C 41.519531 20.054688 41.566406 19.960938 41.648438 19.894531 C 41.757812 19.800781 42.042969 19.707031 42.203125 19.675781 C 42.25 19.433594 41.855469 19.246094 42.171875 19.039062 C 42.21875 18.894531 42.25 18.785156 42.378906 18.703125 C 42.394531 18.625 42.378906 18.417969 42.265625 18.402344 C 42.234375 18.402344 42.234375 18.449219 42.171875 18.449219 C 42.042969 18.449219 41.871094 18.402344 41.757812 18.355469 C 41.804688 18.671875 41.441406 18.6875 41.425781 18.972656 C 41.378906 19.164062 41.28125 19.5 41.074219 19.59375 C 41.042969 19.515625 41.105469 19.484375 41.121094 19.433594 C 41.140625 19.386719 41.140625 19.308594 41.15625 19.261719 C 41.171875 19.261719 41.171875 19.261719 41.1875 19.246094 C 41.011719 19.132812 41.074219 19.054688 41.089844 18.863281 C 41.15625 18.832031 41.089844 18.703125 41.027344 18.671875 C 40.996094 18.769531 40.933594 18.878906 40.820312 18.847656 C 40.820312 18.800781 40.820312 18.734375 40.804688 18.671875 C 40.710938 18.65625 40.679688 18.511719 40.582031 18.578125 C 40.519531 18.464844 40.359375 18.511719 40.359375 18.640625 C 40.21875 18.640625 40.234375 18.734375 40.136719 18.800781 C 40.089844 18.847656 40.058594 18.816406 40.011719 18.878906 C 39.960938 19.132812 39.804688 19.277344 39.628906 19.453125 C 39.613281 19.355469 39.613281 19.277344 39.566406 19.179688 C 39.628906 19.132812 39.597656 18.992188 39.535156 18.941406 C 39.484375 19.039062 39.359375 19.054688 39.277344 19.148438 C 39.199219 19.261719 39.199219 19.292969 39.089844 19.339844 C 39.007812 19.402344 38.882812 19.386719 38.769531 19.417969 C 38.660156 19.453125 38.597656 19.515625 38.453125 19.46875 C 38.261719 19.753906 38.054688 19.355469 38.054688 19.164062 C 37.976562 19.339844 37.753906 19.085938 37.640625 19.339844 C 37.402344 19.691406 37.308594 19.65625 36.925781 19.609375 C 36.847656 19.578125 36.785156 19.578125 36.6875 19.609375 C 36.53125 19.53125 36.433594 19.640625 36.273438 19.625 C 36.257812 19.59375 36.257812 19.546875 36.273438 19.53125 C 36.339844 19.515625 36.417969 19.5 36.496094 19.46875 C 36.496094 19.453125 36.496094 19.453125 36.515625 19.433594 C 36.609375 19.417969 36.671875 19.277344 36.65625 19.195312 C 36.324219 19.023438 35.847656 19.132812 35.8125 18.640625 C 35.8125 18.625 35.796875 18.609375 35.796875 18.59375 C 33.796875 20.613281 32.191406 23.027344 31.125 25.730469 C 31.125 25.730469 31.140625 25.746094 31.140625 25.746094 C 31.15625 25.761719 31.15625 25.761719 31.171875 25.777344 C 31.1875 25.761719 31.207031 25.730469 31.207031 25.714844 C 31.476562 26.078125 31.316406 26.078125 31.332031 26.476562 C 31.363281 26.585938 31.378906 26.601562 31.363281 26.714844 C 31.363281 26.859375 31.539062 27.367188 31.761719 27.175781 C 31.808594 27.207031 31.808594 27.269531 31.777344 27.300781 C 31.746094 27.429688 31.570312 27.507812 31.460938 27.542969 C 31.363281 27.652344 31.632812 27.953125 31.507812 28.019531 C 31.507812 28.097656 31.460938 28.175781 31.460938 28.257812 C 31.394531 28.289062 31.460938 28.511719 31.378906 28.558594 C 31.378906 28.636719 31.347656 28.703125 31.332031 28.765625 C 31.253906 28.8125 31.207031 29.003906 31.1875 29.097656 C 31.125 29.113281 31.125 29.289062 31.046875 29.351562 C 31.207031 29.527344 30.933594 29.71875 31.015625 29.910156 C 31 30.132812 31.15625 30.324219 31.125 30.546875 C 31.269531 30.925781 31.445312 31.308594 31.523438 31.707031 C 31.96875 31.847656 31.871094 32.308594 32.109375 32.628906 C 32.238281 32.800781 32.175781 33.054688 32.269531 33.261719 C 32.398438 33.46875 32.445312 33.613281 32.398438 33.851562 C 33.050781 34.027344 32.636719 34.453125 33.160156 34.660156 C 33.191406 34.503906 33.050781 34.453125 33.050781 34.3125 C 33.015625 34.28125 32.984375 34.152344 32.984375 34.105469 C 32.875 34.058594 32.828125 33.867188 32.84375 33.738281 C 32.828125 33.722656 32.828125 33.707031 32.8125 33.675781 C 32.699219 33.597656 32.777344 33.5 32.714844 33.40625 C 32.570312 33.308594 32.507812 33.167969 32.507812 32.992188 C 32.445312 32.945312 32.398438 32.847656 32.367188 32.753906 C 32.269531 32.707031 32.367188 32.53125 32.367188 32.4375 C 32.351562 32.339844 32.238281 32.199219 32.351562 32.117188 C 32.699219 32.246094 32.554688 32.546875 32.8125 32.53125 C 32.828125 32.59375 32.828125 32.691406 32.8125 32.753906 C 32.761719 33.089844 33.097656 33.421875 33.253906 33.691406 C 33.335938 33.804688 33.476562 33.804688 33.492188 33.960938 C 33.527344 34.136719 33.460938 34.34375 33.621094 34.46875 C 33.683594 34.535156 33.667969 34.519531 33.699219 34.597656 C 33.796875 34.820312 34.191406 34.820312 33.988281 35.121094 C 33.921875 35.152344 34.003906 35.171875 33.988281 35.21875 C 33.84375 35.535156 34.210938 35.613281 34.433594 35.726562 C 34.589844 35.902344 34.78125 36.011719 34.957031 36.171875 C 35.003906 36.296875 35.132812 36.332031 35.257812 36.332031 C 35.480469 36.378906 35.65625 36.503906 35.878906 36.519531 C 35.972656 36.503906 36.019531 36.394531 36.117188 36.363281 C 36.257812 36.332031 36.308594 36.488281 36.386719 36.570312 C 36.769531 36.757812 36.957031 37.21875 37.4375 37.253906 C 37.675781 37.285156 37.738281 37.554688 37.847656 37.746094 C 37.992188 38 38.292969 38.09375 38.421875 38.363281 C 38.5 38.554688 38.578125 38.601562 38.785156 38.636719 C 39.007812 38.585938 39.152344 39 39.230469 38.617188 C 39.230469 38.617188 39.3125 38.523438 39.3125 38.523438 C 39.644531 38.332031 40.183594 39.207031 39.914062 39.492188 C 39.835938 39.589844 39.789062 39.683594 39.773438 39.828125 C 39.738281 39.84375 39.738281 39.890625 39.773438 39.921875 C 39.722656 39.953125 39.675781 39.96875 39.613281 40 C 39.597656 40.097656 39.453125 40.128906 39.4375 40.222656 C 39.390625 40.257812 39.4375 40.320312 39.46875 40.351562 C 39.4375 40.367188 39.40625 40.414062 39.40625 40.460938 C 39.246094 40.429688 39.058594 40.890625 39.277344 40.921875 C 39.296875 41.003906 39.277344 41.097656 39.296875 41.175781 C 39.375 41.175781 39.582031 41.195312 39.550781 41.320312 C 39.484375 41.304688 39.296875 41.335938 39.277344 41.398438 C 39.136719 41.511719 39.261719 41.71875 39.34375 41.84375 C 39.375 41.925781 39.3125 42.035156 39.375 42.117188 C 39.738281 42.304688 39.628906 42.371094 39.835938 42.6875 C 39.882812 42.847656 39.996094 42.957031 40.074219 43.101562 C 40.074219 43.292969 40.199219 43.386719 40.34375 43.5 C 40.582031 43.6875 40.582031 44.085938 40.867188 44.214844 C 41.011719 44.308594 41.011719 44.515625 41.21875 44.546875 C 41.234375 44.660156 41.34375 44.625 41.410156 44.691406 C 41.535156 44.816406 41.503906 44.960938 41.726562 44.882812 C 42.078125 45.183594 41.980469 45.753906 41.996094 46.183594 C 42.011719 46.246094 42.078125 46.390625 41.980469 46.40625 C 42.09375 46.722656 42.28125 47.152344 42.09375 47.503906 C 42.09375 47.742188 42.25 47.980469 42.203125 48.234375 C 42.1875 48.234375 42.171875 48.25 42.15625 48.25 C 42.523438 48.410156 42.363281 48.871094 42.316406 49.1875 C 42.265625 49.617188 42.679688 49.949219 42.601562 50.363281 C 42.886719 50.632812 42.761719 51.0625 42.980469 51.382812 C 43.0625 51.652344 43.125 51.699219 43.363281 51.808594 C 43.648438 52.113281 43.699219 52.558594 43.96875 52.875 C 44.0625 52.972656 44.175781 52.972656 44.285156 53.003906 C 44.507812 53.066406 44.683594 53.210938 44.875 53.304688 C 45 53.335938 45.269531 53.242188 45.304688 53.449219 C 45.398438 53.480469 45.507812 53.398438 45.589844 53.351562 C 45.667969 53.320312 45.78125 53.304688 45.828125 53.242188 C 45.507812 53.320312 45.253906 53.082031 45.207031 52.765625 C 45.097656 52.75 44.9375 52.652344 44.875 52.558594 C 44.808594 52.558594 44.777344 52.511719 44.746094 52.460938 C 44.652344 52.476562 44.476562 52.382812 44.492188 52.253906 C 44.476562 52.253906 44.476562 52.253906 44.460938 52.238281 C 44.636719 51.96875 44.777344 51.96875 44.652344 51.589844 C 44.585938 51.621094 44.476562 51.589844 44.476562 51.507812 C 44.347656 51.445312 44.078125 51.523438 44.109375 51.238281 C 44.03125 51.191406 44.207031 51.015625 44.238281 50.9375 C 44.253906 50.792969 44.285156 50.632812 44.285156 50.492188 C 44.175781 50.410156 44.125 50.316406 44.078125 50.1875 C 44.253906 50.253906 44.429688 50.347656 44.585938 50.140625 C 44.761719 49.902344 44.414062 49.984375 44.398438 49.824219 C 44.269531 49.761719 44.445312 49.695312 44.523438 49.695312 C 44.605469 49.695312 44.714844 49.726562 44.761719 49.648438 C 44.9375 49.710938 45.207031 49.648438 45.175781 49.425781 C 45.082031 49.347656 45.097656 49.171875 45.046875 49.046875 C 44.921875 49.011719 44.808594 48.886719 44.761719 48.757812 C 44.953125 48.773438 45.160156 48.773438 45.320312 48.855469 C 45.382812 48.855469 45.398438 48.804688 45.445312 48.804688 C 45.589844 48.773438 45.574219 48.804688 45.683594 48.695312 C 45.8125 48.550781 45.78125 48.410156 45.859375 48.28125 C 45.96875 48.171875 46.097656 48.074219 46.128906 47.902344 C 46.273438 47.902344 46.289062 47.597656 46.351562 47.503906 C 46.480469 47.40625 46.464844 47.25 46.445312 47.105469 C 46.304688 46.945312 46.574219 46.789062 46.6875 46.742188 C 46.75 46.691406 46.75 46.550781 46.8125 46.503906 C 46.90625 46.46875 47.050781 46.519531 47.128906 46.421875 C 47.273438 46.3125 47.367188 46.28125 47.511719 46.375 C 47.605469 46.390625 47.625 46.34375 47.6875 46.296875 C 47.894531 46.214844 48.003906 46.007812 48.019531 45.785156 C 48.324219 45.5625 48.289062 45.039062 48.402344 44.707031 C 48.273438 44.402344 48.417969 44.292969 48.433594 44.023438 C 48.769531 44.039062 48.769531 43.671875 48.941406 43.515625 C 49.054688 43.417969 49.164062 43.339844 49.230469 43.179688 C 49.246094 43.003906 49.339844 42.863281 49.386719 42.6875 C 49.371094 42.640625 49.339844 42.511719 49.355469 42.449219 Z M 49.355469 42.449219 " fill-opacity="1" fill-rule="nonzero"/><g clip-path="url(#d54c25d1b9)"><path fill="#08cb00" d="M 50.5625 9.789062 C 59.894531 10.011719 68.285156 15.636719 71.894531 24.265625 C 75.597656 33.023438 73.546875 43.277344 66.742188 49.902344 C 60.5625 55.957031 51.5 58.054688 43.285156 55.324219 C 35.113281 52.636719 28.996094 45.40625 27.691406 36.902344 C 27.28125 34.230469 27.328125 31.484375 27.820312 28.828125 C 28.21875 27.082031 28.917969 25.109375 30.140625 23.058594 C 38.390625 9.230469 29.742188 1.792969 29.742188 1.792969 C 26.707031 7.882812 21.113281 8.277344 20.460938 16.671875 C 20.113281 21.167969 22.160156 26.046875 24.132812 29.589844 C 23.832031 26.699219 23.832031 23.773438 24.179688 20.867188 C 24.609375 17.449219 25.578125 14.0625 27.296875 11.074219 C 27.882812 10.042969 28.566406 9.042969 29.3125 8.121094 C 29.3125 8.121094 29.632812 7.722656 29.632812 7.722656 C 29.519531 7.898438 29.3125 8.199219 29.203125 8.359375 C 29.105469 8.515625 28.964844 8.738281 28.867188 8.898438 C 28.011719 10.296875 27.3125 11.804688 26.785156 13.347656 C 25.230469 17.988281 25.132812 22.980469 25.882812 27.796875 C 26.183594 29.703125 26.277344 31.625 26.261719 33.566406 C 26.261719 34.027344 26.261719 34.488281 26.292969 34.949219 C 26.308594 35.265625 26.34375 35.695312 26.375 36.027344 C 27.183594 44.898438 32.84375 52.589844 41.027344 56.101562 C 46.957031 58.628906 53.855469 58.691406 59.8125 56.230469 C 60.242188 56.070312 60.703125 55.832031 61.132812 55.640625 C 61.386719 55.511719 61.738281 55.339844 61.992188 55.195312 C 62.292969 55.054688 62.960938 54.65625 63.246094 54.480469 C 63.582031 54.273438 63.914062 54.035156 64.265625 53.828125 C 64.550781 53.621094 64.964844 53.335938 65.25 53.128906 C 65.519531 52.90625 65.917969 52.605469 66.1875 52.382812 C 66.488281 52.113281 66.789062 51.859375 67.09375 51.589844 C 68.839844 49.96875 70.398438 48.058594 71.589844 45.992188 C 72.304688 44.769531 72.941406 43.433594 73.433594 42.082031 C 73.59375 41.65625 73.753906 41.160156 73.894531 40.71875 C 74.023438 40.273438 74.164062 39.777344 74.261719 39.316406 C 74.386719 38.761719 74.53125 38.015625 74.625 37.441406 C 74.675781 37.171875 74.707031 36.773438 74.753906 36.488281 L 74.816406 36.011719 C 74.832031 35.773438 74.863281 35.296875 74.878906 35.058594 C 75.613281 21.214844 64.4375 9.453125 50.5625 9.789062 Z M 50.5625 9.789062 " fill-opacity="1" fill-rule="nonzero"/></g><g clip-path="url(#e9c063e8ac)"><path fill="#08cb00" d="M 9.128906 15.589844 C 10.925781 19.832031 9.035156 23.34375 12.816406 27.046875 C 14.851562 29.035156 17.933594 29.71875 20.382812 29.925781 C 18.886719 28.957031 17.472656 27.8125 16.21875 26.460938 C 14.738281 24.855469 13.484375 22.933594 12.671875 20.722656 C 12.386719 19.960938 12.164062 19.164062 12.007812 18.339844 C 12.007812 18.339844 11.941406 17.988281 11.941406 17.988281 C 11.972656 18.132812 12.054688 18.371094 12.085938 18.496094 C 12.117188 18.625 12.179688 18.800781 12.210938 18.910156 C 12.5625 19.976562 13.023438 20.992188 13.578125 21.929688 C 15.582031 25.300781 18.632812 27.558594 21.859375 29.019531 C 22.574219 29.335938 23.289062 29.625 24.039062 29.878906 C 23.003906 29.210938 20.777344 27.492188 19.492188 23.710938 C 15.898438 13.285156 9.128906 15.589844 9.128906 15.589844 Z M 9.128906 15.589844 " fill-opacity="1" fill-rule="nonzero"/></g></svg>