<svg xmlns="http://www.w3.org/2000/svg" xmlns:xlink="http://www.w3.org/1999/xlink" width="330" zoomAndPan="magnify" viewBox="0 0 247.92 67.92" height="80" preserveAspectRatio="xMidYMid meet" version="1.0"><defs><g/><clipPath id="224fcb3b6b"><path d="M 173 0 L 213.863281 0 L 213.863281 44.199219 L 173 44.199219 Z M 173 0 " clip-rule="nonzero"/></clipPath><clipPath id="9d2606d21b"><path d="M 171.910156 2 L 202 2 L 202 43 L 171.910156 43 Z M 171.910156 2 " clip-rule="nonzero"/></clipPath></defs><g fill="#79af57" fill-opacity="1"><g transform="translate(22.586173, 37.622264)"><g><path d="M 12.828125 0 L 12.828125 -26.359375 L 0.375 -26.359375 L 0.375 -29.25 L 28.703125 -29.25 L 28.703125 -26.359375 L 16.25 -26.359375 L 16.25 0 Z M 12.828125 0 "/></g></g></g><g fill="#79af57" fill-opacity="1"><g transform="translate(51.661586, 37.622264)"><g><path d="M 3.890625 0 L 3.890625 -29.25 L 26.53125 -29.25 L 26.53125 -26.359375 L 7.359375 -26.359375 L 7.359375 -16.046875 L 25.78125 -16.046875 L 25.78125 -13.15625 L 7.359375 -13.15625 L 7.359375 -2.921875 L 26.53125 -2.921875 L 26.53125 0 Z M 3.890625 0 "/></g></g></g><g fill="#79af57" fill-opacity="1"><g transform="translate(80.653442, 37.622264)"><g><path d="M 3.890625 0 L 3.890625 -29.25 L 18.921875 -29.25 C 20.234375 -29.25 21.640625 -29.09375 23.140625 -28.78125 C 24.648438 -28.476562 25.988281 -27.851562 27.15625 -26.90625 C 28.132812 -26.125 28.875 -25.140625 29.375 -23.953125 C 29.875 -22.773438 30.125 -21.5625 30.125 -20.3125 C 30.125 -19.03125 29.859375 -17.78125 29.328125 -16.5625 C 28.796875 -15.351562 28.003906 -14.34375 26.953125 -13.53125 C 26.054688 -12.84375 24.988281 -12.304688 23.75 -11.921875 C 22.507812 -11.546875 21.082031 -11.347656 19.46875 -11.328125 L 19.46875 -11.28125 L 18.71875 -11.28125 L 30.171875 -0.203125 L 30.171875 0 L 25.828125 0 L 14.15625 -11.28125 L 7.359375 -11.28125 L 7.359375 0 Z M 7.359375 -14.15625 L 19.421875 -14.15625 C 21.816406 -14.25 23.613281 -14.804688 24.8125 -15.828125 C 25.425781 -16.359375 25.882812 -17.023438 26.1875 -17.828125 C 26.5 -18.640625 26.65625 -19.476562 26.65625 -20.34375 C 26.65625 -21.175781 26.515625 -21.984375 26.234375 -22.765625 C 25.960938 -23.546875 25.546875 -24.175781 24.984375 -24.65625 C 24.117188 -25.40625 23.109375 -25.875 21.953125 -26.0625 C 20.796875 -26.257812 19.785156 -26.359375 18.921875 -26.359375 L 7.359375 -26.359375 Z M 7.359375 -14.15625 "/></g></g></g><g fill="#79af57" fill-opacity="1"><g transform="translate(112.444223, 37.622264)"><g><path d="M 3.890625 0 L 3.890625 -29.25 L 18.921875 -29.25 C 20.234375 -29.25 21.640625 -29.09375 23.140625 -28.78125 C 24.648438 -28.476562 25.988281 -27.851562 27.15625 -26.90625 C 28.132812 -26.125 28.875 -25.140625 29.375 -23.953125 C 29.875 -22.773438 30.125 -21.5625 30.125 -20.3125 C 30.125 -19.03125 29.859375 -17.78125 29.328125 -16.5625 C 28.796875 -15.351562 28.003906 -14.34375 26.953125 -13.53125 C 26.054688 -12.84375 24.988281 -12.304688 23.75 -11.921875 C 22.507812 -11.546875 21.082031 -11.347656 19.46875 -11.328125 L 19.46875 -11.28125 L 18.71875 -11.28125 L 30.171875 -0.203125 L 30.171875 0 L 25.828125 0 L 14.15625 -11.28125 L 7.359375 -11.28125 L 7.359375 0 Z M 7.359375 -14.15625 L 19.421875 -14.15625 C 21.816406 -14.25 23.613281 -14.804688 24.8125 -15.828125 C 25.425781 -16.359375 25.882812 -17.023438 26.1875 -17.828125 C 26.5 -18.640625 26.65625 -19.476562 26.65625 -20.34375 C 26.65625 -21.175781 26.515625 -21.984375 26.234375 -22.765625 C 25.960938 -23.546875 25.546875 -24.175781 24.984375 -24.65625 C 24.117188 -25.40625 23.109375 -25.875 21.953125 -26.0625 C 20.796875 -26.257812 19.785156 -26.359375 18.921875 -26.359375 L 7.359375 -26.359375 Z M 7.359375 -14.15625 "/></g></g></g><g fill="#79af57" fill-opacity="1"><g transform="translate(144.235005, 37.622264)"><g><path d="M 0.578125 0 L 15.578125 -29.546875 L 19.09375 -29.546875 L 34.046875 0 L 30.25 0 L 26.359375 -7.6875 L 8.265625 -7.6875 L 4.390625 0 Z M 9.734375 -10.578125 L 24.90625 -10.578125 L 17.34375 -25.53125 Z M 9.734375 -10.578125 "/></g></g></g><g clip-path="url(#224fcb3b6b)"><path fill="#79af57" d="M 194.109375 44.167969 C 211.429688 36.597656 198.753906 25.097656 208.203125 11.113281 C 209.039062 17.816406 210.71875 25.089844 207.003906 32.179688 C 210.804688 26.183594 212.644531 13.585938 207.253906 8.027344 C 205.851562 6.578125 204.210938 5.300781 202.371094 4.253906 C 192.519531 -1.324219 180.144531 1.640625 173.839844 10.796875 C 180.011719 1.175781 192.703125 -2.042969 202.765625 3.664062 C 204.816406 4.824219 206.601562 6.269531 208.105469 7.921875 C 208.578125 8.433594 209.019531 8.96875 209.425781 9.523438 C 214.472656 16.214844 215.371094 25.519531 210.980469 33.269531 C 207.339844 39.683594 200.929688 43.535156 194.109375 44.167969 " fill-opacity="1" fill-rule="evenodd"/></g><g clip-path="url(#9d2606d21b)"><path fill="#4a3226" d="M 182.507812 5.609375 C 182.441406 5.917969 182.542969 6.226562 182.679688 6.417969 C 182.808594 6.375 182.976562 6.242188 183.074219 6.148438 C 183.066406 5.945312 182.984375 5.933594 182.898438 5.769531 C 182.78125 5.550781 182.765625 5.59375 182.507812 5.609375 Z M 181.726562 6.25 C 181.894531 6.332031 182.0625 6.332031 182.15625 6.148438 C 182.289062 5.6875 181.78125 5.550781 181.5625 5.863281 C 181.4375 6.050781 181.5625 6.164062 181.726562 6.25 Z M 181.535156 9.011719 C 181.578125 8.839844 181.628906 8.976562 181.59375 8.589844 C 181.351562 8.511719 181.171875 8.546875 181.003906 8.730469 C 180.742188 9.011719 180.953125 9.058594 180.867188 9.296875 C 180.65625 9.324219 180.6875 9.25 180.453125 9.324219 C 180.292969 9.753906 180.65625 9.71875 180.839844 9.875 C 180.910156 9.929688 180.9375 9.988281 181.003906 10.035156 C 181.769531 9.921875 181.492188 9.179688 181.535156 9.011719 Z M 182.925781 8.300781 C 182.710938 8.238281 182.464844 8.089844 182.0625 8.3125 C 181.878906 8.40625 181.859375 8.898438 181.859375 9.101562 L 181.875 9.332031 L 182.238281 9.355469 C 182.371094 8.804688 182.316406 9.121094 182.652344 8.867188 C 182.773438 8.769531 182.757812 8.695312 182.828125 8.589844 C 182.941406 8.417969 182.933594 8.523438 182.925781 8.300781 Z M 182.773438 7.175781 C 182.773438 7.554688 182.757812 7.609375 182.921875 7.871094 L 184.699219 7.640625 C 184.921875 7.617188 185.414062 7.800781 185.414062 7.054688 C 185.414062 6.851562 185.21875 6.738281 184.972656 6.738281 C 184.558594 6.738281 184.085938 7.265625 183.636719 7.121094 C 183.398438 7.042969 183.644531 7.078125 183.292969 7.035156 L 183.265625 7.027344 L 183.214844 7.015625 C 183.3125 6.796875 183.398438 7.085938 183.398438 6.769531 C 183.398438 6.5625 183.160156 6.558594 182.96875 6.550781 C 182.757812 6.542969 182.574219 6.515625 182.402344 6.535156 C 182.183594 6.570312 182.238281 6.796875 182.371094 6.914062 C 182.492188 7.019531 182.6875 7.019531 182.773438 7.175781 Z M 180.757812 7.238281 C 180.6875 7.535156 180.734375 7.667969 181.113281 7.925781 C 181.199219 7.992188 181.347656 8.011719 181.480469 7.976562 C 181.78125 7.898438 181.753906 7.738281 181.761719 7.683594 L 182.148438 7.960938 C 182.519531 7.859375 182.675781 7.722656 182.476562 7.378906 L 182.140625 7.351562 C 182.015625 7.121094 181.980469 6.773438 181.59375 7.019531 C 181.316406 7.195312 181.171875 7.238281 180.757812 7.238281 Z M 178.050781 8.484375 C 178.15625 8.890625 178.902344 9.066406 179.300781 8.867188 C 179.597656 8.730469 179.527344 8.554688 179.808594 8.46875 C 180.039062 8.40625 179.925781 8.425781 180.089844 8.308594 C 180.179688 8.238281 180.335938 8.203125 180.410156 8.136719 C 180.40625 7.835938 180.363281 7.863281 180.164062 7.753906 C 180.207031 7.640625 180.199219 7.683594 180.171875 7.476562 C 179.660156 7.457031 179.90625 7.730469 179.707031 8.089844 L 179.246094 7.828125 C 179.046875 7.675781 179.007812 7.617188 178.761719 7.800781 C 178.535156 7.96875 178.140625 8.242188 178.050781 8.484375 Z M 187.296875 30.183594 C 187.003906 30.015625 186.140625 29.886719 186.019531 30.648438 C 186.222656 30.683594 186.214844 30.617188 186.414062 30.703125 C 186.769531 30.84375 187.257812 30.695312 187.46875 30.542969 C 187.46875 30.398438 187.445312 30.265625 187.296875 30.183594 Z M 185.949219 29.878906 C 185.789062 29.824219 185.6875 29.726562 185.511719 29.632812 C 185.359375 29.558594 185.175781 29.488281 185.035156 29.417969 C 183.765625 28.8125 183.855469 29.144531 183.398438 29.148438 L 183.398438 29.527344 C 184.050781 29.480469 184.171875 29.457031 184.894531 29.84375 C 185.308594 30.070312 185.140625 30.121094 185.402344 30.140625 L 185.492188 30.148438 C 185.542969 30.160156 185.914062 30.519531 185.949219 29.878906 Z M 198.863281 12.964844 C 199.046875 12.921875 199.089844 12.867188 199.238281 13.070312 C 199.210938 13.191406 199.285156 13.128906 199.082031 13.175781 C 199.210938 13.851562 199.246094 13.332031 199.273438 13.746094 C 199.511719 13.796875 199.441406 13.738281 199.511719 13.992188 C 200.101562 14.078125 199.847656 14.195312 200.152344 14.195312 C 200.347656 14.195312 200.699219 14.035156 200.824219 13.949219 C 201 13.835938 201.199219 13.589844 201.347656 13.535156 C 201.347656 13.175781 201.28125 12.992188 201.085938 12.789062 C 200.574219 12.261719 200.683594 12.65625 200.4375 12.65625 L 199.539062 12.65625 C 199.328125 12.65625 199.574219 12.503906 199.117188 12.445312 C 198.96875 12.644531 198.90625 12.628906 198.863281 12.964844 Z M 191.058594 8.292969 C 191.136719 8.75 190.714844 8.792969 191.03125 9.179688 C 191.332031 9.15625 191.210938 9.011719 191.5625 8.976562 C 191.605469 9.046875 191.621094 9.046875 191.65625 9.121094 C 191.703125 9.242188 191.648438 9.214844 191.734375 9.296875 C 191.851562 9.425781 192.046875 9.285156 191.941406 9.636719 C 191.667969 9.605469 191.78125 9.445312 191.523438 9.445312 C 190.875 9.445312 191.113281 10.484375 191.4375 10.484375 C 191.65625 10.484375 191.761719 10.410156 191.929688 10.339844 C 191.929688 10.164062 191.914062 10.164062 191.84375 10.042969 L 192.054688 10.042969 C 192.292969 10.78125 191.628906 10.621094 191.5 10.96875 C 191.472656 11.054688 191.394531 11.117188 191.394531 11.230469 C 191.410156 13.03125 191.464844 11.953125 191.628906 12.644531 C 191.664062 12.796875 191.699219 13.066406 191.710938 13.253906 C 191.9375 13.242188 192 13.148438 192.1875 13.210938 C 192.183594 13.332031 192.054688 13.375 192.054688 13.597656 C 192.054688 14.078125 192.105469 14.160156 192.40625 14.511719 C 192.5 14.617188 192.597656 14.667969 192.640625 14.773438 C 192.746094 15.074219 192.5625 15.066406 192.984375 15.164062 C 193.722656 15.339844 193.707031 15.953125 194.289062 15.511719 C 194.296875 15.082031 194.4375 14.960938 194.453125 14.625 C 194.464844 14.210938 194.535156 14.0625 194.796875 13.894531 C 194.796875 13.625 194.773438 13.394531 194.84375 13.164062 C 194.949219 12.839844 195.007812 13.035156 195.097656 12.644531 C 195.535156 12.558594 195.808594 12.574219 196.136719 12.328125 C 196.546875 12.015625 196.714844 11.601562 196.863281 11.488281 C 196.871094 11.484375 196.945312 11.433594 196.960938 11.425781 C 197.171875 11.300781 197.460938 11.28125 197.742188 11.214844 C 198.824219 11 198.191406 10.765625 198.84375 10.765625 C 198.914062 10.632812 199 10.554688 199.070312 10.429688 C 199.152344 10.273438 199.132812 10.15625 199.265625 10.058594 L 199.140625 9.671875 C 199.089844 9.390625 199.0625 9.585938 198.949219 9.382812 C 198.90625 9.222656 199.011719 8.867188 199 8.777344 C 198.964844 8.582031 198.886719 8.800781 198.886719 8.566406 C 198.886719 8.398438 198.941406 8.441406 198.96875 8.414062 C 199.035156 8.34375 199.054688 8.335938 199.046875 8.34375 C 199.082031 8.300781 199.039062 8.347656 199.082031 8.277344 C 199.140625 8.1875 199.105469 8.214844 199.179688 8.125 C 199.589844 7.589844 199.203125 7.683594 199.140625 7.34375 C 199.335938 7.367188 199.292969 7.5 199.503906 7.574219 C 199.644531 7.4375 199.6875 7.402344 199.664062 7.132812 C 199.0625 6.992188 199.398438 7.042969 199.039062 6.734375 C 199.019531 6.71875 198.308594 6.234375 198.757812 6.234375 C 198.941406 6.234375 199.003906 6.355469 199.175781 6.234375 C 199.335938 6.03125 198.90625 5.828125 198.828125 5.761719 C 198.675781 5.652344 198.449219 5.53125 198.449219 5.292969 C 198.449219 4.625 199.003906 4.433594 199.011719 3.921875 C 197.023438 3.296875 197.726562 3.808594 197.355469 3.839844 L 197.367188 3.453125 C 196.792969 3.253906 197.09375 3.367188 196.644531 3.554688 C 196.546875 3.429688 196.628906 3.472656 196.554688 3.324219 C 196.496094 3.210938 196.488281 3.253906 196.433594 3.164062 C 196.382812 3.09375 196.371094 3.015625 196.335938 2.972656 C 196.273438 2.890625 196.222656 2.902344 196.179688 2.832031 L 199.167969 3.734375 C 197.59375 3.121094 195.933594 2.699219 194.207031 2.496094 C 194.210938 2.503906 194.21875 2.503906 194.21875 2.503906 C 194.039062 2.890625 193.65625 2.578125 193.480469 2.578125 C 193.160156 2.578125 193.40625 2.671875 193.039062 2.714844 C 192.378906 2.796875 191.726562 2.785156 191.070312 2.742188 C 190.71875 2.71875 190.511719 2.882812 190.144531 2.824219 C 189.890625 2.785156 189.6875 2.679688 189.398438 2.714844 C 188.625 2.820312 187.964844 2.980469 187.207031 3.105469 C 186.460938 3.234375 185.964844 3.621094 185.167969 3.621094 C 185.023438 3.78125 185.132812 3.816406 184.847656 3.839844 C 184.640625 3.859375 184.535156 3.894531 184.472656 4.0625 C 184.570312 4.265625 184.640625 4.140625 184.71875 4.34375 C 184.355469 4.351562 184.535156 4.253906 184.320312 4.253906 L 183.988281 4.253906 C 183.898438 4.308594 183.355469 4.820312 183.273438 4.90625 C 183.117188 5.074219 183.179688 5.171875 183.277344 5.390625 C 183.519531 5.902344 183.636719 5.761719 183.925781 5.644531 C 184.074219 5.8125 184.039062 5.75 184.03125 6.121094 C 183.90625 6.210938 183.734375 6.3125 183.625 6.4375 C 183.628906 6.445312 183.664062 6.496094 183.679688 6.507812 C 183.9375 6.796875 184.910156 6.535156 185.09375 6.367188 C 185.300781 6.464844 185.28125 6.523438 185.570312 6.425781 C 186.246094 6.175781 185.863281 6.078125 186.117188 5.617188 C 186.273438 5.339844 186.292969 5.398438 186.527344 5.347656 C 186.785156 5.285156 186.917969 4.535156 187.523438 4.238281 C 187.894531 4.0625 188.023438 3.941406 188.34375 3.675781 C 188.589844 3.480469 188.5625 3.578125 188.570312 3.199219 C 188.773438 3.183594 188.949219 3.210938 189.203125 3.136719 C 189.363281 3.085938 189.609375 2.996094 189.800781 3.085938 C 189.792969 3.253906 189.8125 3.183594 189.546875 3.277344 C 189.230469 3.382812 189 3.550781 188.691406 3.640625 L 188.695312 3.9375 C 188.851562 3.941406 188.941406 3.957031 189.019531 4.0625 C 188.941406 4.230469 188.914062 4.070312 188.78125 4.34375 C 188.191406 4.34375 188.132812 4.589844 187.679688 4.722656 C 187.496094 4.777344 187.367188 4.703125 187.367188 4.882812 C 187.367188 5.652344 188.09375 5.136719 188.691406 5.328125 C 188.527344 5.757812 187.964844 5.433594 187.71875 5.496094 C 187.621094 5.523438 187.566406 5.585938 187.496094 5.636719 C 187.515625 6.039062 187.613281 5.855469 187.804688 5.945312 C 187.917969 5.996094 187.953125 6.207031 188.015625 6.320312 C 188.542969 6.25 189.0625 6.171875 189.597656 6.171875 C 189.941406 6.171875 190.460938 6.746094 190.582031 7.007812 C 190.648438 7.160156 190.609375 7.070312 190.691406 7.183594 C 190.785156 7.316406 191.035156 8.179688 191.058594 8.292969 Z M 185.386719 10.210938 C 185.589844 10.367188 185.695312 10.667969 185.695312 10.984375 C 185.898438 10.984375 186.222656 11.003906 186.222656 11.203125 C 186.082031 11.328125 185.765625 11.214844 185.546875 11.300781 C 185.386719 11.40625 185.316406 11.953125 185.78125 11.917969 C 186.203125 11.882812 186.222656 11.511719 186.511719 11.53125 C 186.554688 12.269531 186.328125 11.917969 186.132812 12.515625 C 186.097656 12.628906 186.117188 12.699219 186.097656 12.839844 C 185.429688 12.875 185.167969 12.902344 185.167969 13.472656 C 185.78125 13.667969 185.582031 13.527344 186.160156 13.378906 C 186.875 13.9375 186.308594 14.011719 187.503906 14.546875 C 187.769531 14.667969 187.867188 14.765625 188.113281 14.617188 C 188.042969 14.113281 187.558594 14.117188 187.53125 13.867188 C 187.894531 13.894531 188.132812 14.148438 188.5 14.230469 C 188.753906 13.507812 188.550781 13.492188 188.308594 13.210938 C 187.9375 12.777344 187.855469 12.824219 187.875 12.234375 C 188.394531 12.320312 188.21875 12.988281 188.78125 12.972656 C 189.1875 12.964844 189.363281 12.011719 189.351562 11.980469 C 189.246094 11.738281 189.140625 11.878906 188.964844 11.738281 L 188.621094 11.425781 C 187.964844 10.878906 188 11.28125 187.996094 10.765625 C 188.105469 10.757812 188.128906 10.753906 188.183594 10.71875 C 188.183594 10.6875 188.070312 9.902344 188.015625 9.992188 C 188.007812 10.007812 187.980469 9.980469 187.957031 9.964844 C 187.742188 9.847656 187.847656 9.894531 187.707031 9.761719 C 187.515625 9.59375 187.515625 9.746094 187.328125 9.570312 C 186.980469 9.25 187.164062 9.109375 186.601562 9.222656 C 186.539062 9.128906 186.476562 9.082031 186.390625 8.988281 C 186.28125 8.855469 186.152344 8.574219 186.070312 8.40625 C 185.964844 8.195312 186 8.382812 186.003906 8.101562 C 185.40625 7.957031 185.941406 7.996094 184.972656 7.996094 C 184.796875 7.996094 184.917969 8.074219 184.601562 8.089844 C 184.515625 8.097656 184.5 8.082031 184.425781 8.109375 C 184.320312 8.144531 184.453125 8.132812 184.261719 8.207031 C 183.871094 7.710938 183.167969 8.59375 182.984375 8.996094 C 182.925781 9.101562 182.828125 9.445312 182.78125 9.53125 C 183.019531 9.71875 183.046875 9.585938 183.242188 9.867188 C 183.097656 10.113281 183.101562 9.957031 182.996094 10.34375 C 183.546875 10.472656 184.339844 10.480469 184.929688 10.410156 C 185.289062 10.359375 185.175781 10.296875 185.386719 10.210938 Z M 181.992188 17.359375 C 182.394531 17.5 182.75 17.703125 183.101562 17.925781 C 183.433594 18.136719 183.707031 17.949219 183.925781 18.199219 C 184.042969 18.476562 183.730469 19.234375 184.171875 19.472656 L 184.523438 19.675781 C 185.023438 19.429688 184.601562 19.058594 184.601562 18.671875 L 184.664062 18.285156 C 184.734375 18.0625 184.636719 18.1875 184.851562 18.101562 C 185.121094 18.011719 185.035156 17.976562 185.164062 17.722656 C 185.296875 17.464844 185.269531 17.511719 185.203125 17.183594 C 185.097656 16.59375 184.734375 16.464844 184.929688 16.21875 C 185.121094 15.980469 185.105469 16.113281 185.097656 15.683594 C 185.097656 15.453125 185.105469 15.222656 185.097656 14.988281 C 185.097656 14.421875 184.902344 14.535156 186.363281 14.546875 C 186.460938 14.695312 186.734375 14.988281 186.855469 15.074219 C 187.023438 15.179688 187.074219 15.109375 187.15625 15.304688 C 187.402344 15.867188 187.082031 16.171875 187.058594 16.382812 C 187.207031 16.382812 187.320312 16.332031 187.410156 16.359375 C 187.671875 16.429688 187.65625 16.675781 188.007812 16.304688 C 188.316406 15.980469 188.09375 15.863281 188.273438 15.636719 C 188.519531 15.335938 188.730469 15.847656 188.808594 16.023438 C 188.929688 16.269531 189.070312 16.472656 189.167969 16.734375 C 189.179688 16.769531 189.195312 16.804688 189.210938 16.851562 C 189.246094 16.9375 189.265625 16.941406 189.28125 16.992188 C 189.355469 17.257812 188.984375 17.257812 189.457031 17.625 C 189.601562 17.738281 189.679688 17.871094 189.800781 18.011719 L 190.3125 18.039062 L 190.488281 18.433594 C 190.503906 18.476562 190.523438 18.546875 190.550781 18.582031 C 190.691406 18.761719 190.539062 18.589844 190.664062 18.664062 C 190.753906 18.722656 190.71875 18.679688 190.777344 18.757812 C 190.988281 19.023438 190.894531 19.480469 190.894531 19.859375 C 190.894531 20.097656 190.742188 19.980469 190.777344 20.359375 C 191.007812 20.441406 190.988281 20.429688 191.28125 20.4375 C 191.367188 20.640625 191.359375 20.507812 191.402344 20.800781 C 191.429688 21.003906 191.480469 21.011719 191.59375 21.144531 C 191.773438 21.363281 191.746094 21.707031 191.394531 21.628906 C 190.847656 21.511719 190.972656 21.214844 189.792969 21.214844 C 189.847656 21.011719 189.960938 20.898438 190.039062 20.710938 C 190.136719 20.472656 190.371094 20.0625 190.347656 19.847656 C 189.953125 19.761719 189.933594 19.957031 189.898438 20.121094 C 189.785156 20.132812 189.046875 20.226562 188.984375 20.265625 C 189.035156 20.332031 189.097656 20.335938 189.195312 20.335938 L 189.1875 20.71875 C 188.605469 20.71875 188.773438 20.710938 188.519531 20.402344 C 188.34375 20.183594 188 20.308594 187.769531 20.40625 C 187.398438 20.554688 187.390625 20.542969 187.207031 20.871094 C 187.050781 21.144531 186.792969 21.175781 186.769531 21.476562 C 187.121094 21.441406 187.074219 21.105469 187.496094 20.828125 C 187.664062 20.71875 188.070312 20.457031 188.296875 20.542969 C 188.738281 20.703125 188.105469 21.003906 188.554688 21.390625 C 188.65625 21.46875 188.789062 21.488281 188.894531 21.546875 C 189.210938 21.6875 189.398438 21.636719 189.730469 21.566406 C 189.730469 21.976562 189.742188 21.90625 189.527344 22.121094 C 189.355469 22.277344 189.28125 22.3125 189.019531 22.355469 C 188.789062 22.390625 188.753906 22.515625 188.570312 22.640625 C 188.34375 22.796875 188.34375 22.789062 188.015625 22.789062 C 187.945312 22.394531 188.148438 22.59375 188.148438 22.296875 C 187.726562 22.269531 187.953125 22.402344 187.609375 22.496094 C 187.417969 22.542969 187.328125 22.558594 187.1875 22.683594 L 186.871094 22.980469 C 186.792969 23.105469 186.863281 23.332031 186.863281 23.515625 C 186.628906 23.589844 186.414062 23.667969 186.222656 23.816406 C 185.949219 24.019531 185.992188 24.089844 185.84375 24.421875 C 185.746094 24.644531 185.648438 24.835938 185.5625 25.125 C 185.335938 25.890625 185.40625 25.636719 185.007812 26.035156 C 184.78125 26.261719 184.375 26.445312 184.214844 26.71875 C 183.882812 27.292969 184.542969 27.519531 184.535156 28.453125 L 184.53125 28.617188 C 184.410156 28.617188 184.285156 28.617188 184.191406 28.582031 C 184.03125 28.515625 183.855469 28.0625 183.792969 27.878906 C 183.539062 27.195312 183.539062 27.046875 182.210938 27.210938 L 182.15625 27.449219 C 181.675781 27.519531 181.667969 27.257812 181.25 27.257812 C 181.015625 27.257812 180.503906 27.679688 180.503906 27.886719 C 180.503906 29.269531 180.382812 28.898438 180.785156 29.65625 C 180.890625 29.851562 180.972656 30.078125 181.207031 30.132812 C 181.71875 30.253906 182.097656 29.945312 182.175781 29.429688 C 182.640625 29.429688 182.554688 29.382812 182.871094 29.570312 C 182.851562 29.964844 182.738281 30.019531 182.738281 30.765625 C 182.992188 30.921875 183.40625 30.949219 183.699219 31.074219 C 184.050781 31.230469 183.9375 31.714844 183.9375 32.179688 C 183.996094 32.277344 184.128906 32.394531 184.207031 32.453125 C 184.382812 32.601562 184.394531 32.550781 184.613281 32.53125 C 185.296875 32.453125 185.007812 32.628906 185.464844 32.742188 C 185.648438 32.628906 185.71875 32.410156 185.984375 32.289062 C 186.097656 32.25 186.238281 32.214844 186.355469 32.171875 C 186.777344 32.015625 186.175781 31.644531 187.433594 32.253906 L 187.777344 32.4375 C 188.167969 32.621094 188.871094 32.375 189.125 32.53125 C 189.285156 32.628906 189.175781 32.65625 189.300781 32.761719 C 189.398438 32.832031 189.636719 32.867188 189.855469 33.027344 C 190.019531 33.148438 190.460938 33.546875 190.582031 33.578125 C 191.164062 33.71875 191.796875 33.476562 192.230469 34.371094 C 192.5625 35.066406 192.097656 34.863281 192.898438 35.015625 C 193.066406 35.046875 193.167969 35.085938 193.34375 35.144531 C 194.007812 35.347656 193.898438 35.480469 194.382812 35.410156 C 194.761719 35.355469 195.703125 35.859375 196.054688 35.988281 C 196.054688 36.808594 195.96875 36.683594 195.492188 37.132812 C 195.316406 37.292969 195.121094 37.386719 195.042969 37.546875 C 194.992188 37.625 194.921875 38.066406 194.867188 38.230469 C 194.738281 38.585938 194.472656 39.03125 194.15625 39.234375 C 193.988281 39.347656 193.546875 39.199219 192.828125 39.667969 C 192.632812 39.800781 192.617188 40.148438 192.046875 40.605469 C 191.941406 40.6875 191.886719 40.695312 191.808594 40.78125 C 191.65625 40.949219 191.804688 40.914062 191.542969 40.96875 C 190.707031 41.128906 191.035156 41.417969 190.375 41.503906 C 190.171875 41.53125 189.84375 41.609375 189.703125 41.691406 C 189.351562 41.910156 189.179688 42.21875 188.878906 42.386719 C 188.800781 42.429688 188.871094 42.386719 188.800781 42.4375 C 188.753906 42.472656 188.613281 42.585938 188.304688 42.429688 C 188.105469 42.339844 187.875 42.410156 187.648438 42.355469 C 187.628906 42.007812 187.488281 42.332031 187.628906 42.003906 C 187.707031 41.8125 187.707031 41.726562 187.585938 41.601562 C 187.269531 41.273438 187.277344 41.273438 187.460938 40.84375 C 187.671875 40.335938 187.375 40.34375 187.503906 39.992188 C 187.542969 39.894531 187.542969 39.980469 187.558594 39.796875 L 187.578125 38.609375 C 187.550781 38.460938 187.585938 38.59375 187.507812 38.488281 C 187.347656 38.277344 187.417969 38.269531 187.136719 38.160156 C 186.25 37.792969 186.1875 37.617188 185.652344 36.902344 C 185.578125 36.796875 185.542969 36.71875 185.472656 36.632812 C 184.367188 35.242188 184.902344 35.953125 184.796875 35.101562 C 184.78125 34.945312 184.78125 34.792969 184.789062 34.632812 C 184.964844 34.476562 185.414062 34.035156 185.414062 33.773438 C 185.414062 33.519531 185.191406 32.992188 184.929688 32.992188 C 184.148438 32.992188 184.585938 33.199219 183.828125 32.753906 C 183.382812 32.488281 183.171875 31.792969 182.703125 31.625 C 182.535156 31.566406 182.535156 31.566406 182.386719 31.488281 C 182.21875 31.398438 182.167969 31.449219 182.042969 31.390625 C 181.921875 31.335938 181.957031 31.273438 181.796875 31.1875 C 181.613281 31.082031 181.667969 31.136719 181.527344 30.996094 C 181.347656 30.808594 181.078125 30.863281 180.832031 30.84375 C 180.609375 30.820312 180.460938 30.660156 180.242188 30.570312 C 179.617188 30.300781 179.019531 29.949219 178.832031 29.277344 C 178.703125 28.820312 178.375 28.550781 178.121094 28.1875 L 177.171875 26.675781 C 177.066406 26.535156 177.160156 26.613281 177.03125 26.578125 C 176.984375 26.726562 176.996094 26.746094 177.082031 26.851562 C 177.292969 27.125 177.109375 27.125 177.285156 27.265625 L 177.472656 27.5625 C 177.539062 27.707031 177.609375 27.820312 177.707031 27.984375 C 177.855469 28.222656 178.347656 28.488281 177.972656 28.785156 C 177.601562 28.734375 177.3125 27.949219 177.117188 27.671875 C 176.96875 27.476562 176.878906 27.253906 176.773438 27.042969 C 176.574219 26.65625 176.484375 25.9375 176.132812 25.671875 C 175.753906 25.398438 175.121094 24.046875 175.121094 23.710938 C 175.121094 23.199219 175.058594 22.683594 175.167969 22.164062 C 175.203125 21.980469 175.28125 22.011719 175.183594 21.800781 C 175.015625 21.449219 175.253906 21.40625 174.9375 21.019531 C 174.496094 20.476562 174.882812 20.300781 174.628906 19.816406 C 174.566406 19.699219 174.539062 19.632812 174.425781 19.550781 C 174.226562 19.402344 174.71875 18.855469 173.988281 18.855469 C 173.988281 18.574219 173.8125 18.265625 173.777344 17.96875 C 173.757812 17.808594 173.804688 17.863281 173.722656 17.738281 L 173.484375 17.394531 C 173.320312 17.246094 173.273438 17.324219 173.160156 17.414062 C 172.992188 17.554688 173.070312 17.457031 172.929688 17.519531 C 172.789062 17.574219 172.738281 17.785156 172.6875 17.925781 C 172.542969 18.371094 172.757812 18.726562 172.289062 18.847656 C 172.148438 18.601562 172.308594 18.382812 172.167969 18.234375 C 172.085938 18.691406 171.992188 18.449219 171.921875 18.761719 C 172.308594 16.746094 173 14.835938 173.941406 13.070312 C 173.910156 13.140625 173.90625 13.199219 173.910156 13.234375 C 174.058594 13.324219 174.226562 13.148438 174.402344 13.09375 C 174.636719 13.023438 174.789062 13.042969 175.070312 13.03125 C 175.132812 12.921875 175.140625 12.859375 175.203125 12.753906 C 175.269531 12.648438 175.34375 12.585938 175.410156 12.507812 C 175.695312 12.1875 175.753906 12.277344 176.132812 12.277344 C 176.355469 12.277344 176.703125 12.015625 176.914062 12.011719 C 177.074219 12.011719 177.398438 12.09375 177.566406 12.171875 C 177.691406 12.222656 177.671875 12.207031 177.75 12.277344 L 177.714844 12.609375 C 177.796875 12.648438 178.113281 12.503906 178.464844 12.503906 C 178.632812 12.503906 178.597656 12.644531 178.726562 12.726562 C 178.78125 12.769531 178.789062 12.761719 178.867188 12.777344 C 178.871094 12.460938 178.9375 12.496094 178.753906 12.292969 C 178.589844 12.109375 178.683594 12.152344 178.421875 12.152344 C 178.253906 12.152344 178.3125 12.382812 178.03125 12.074219 C 177.796875 11.8125 177.832031 11.980469 177.574219 11.847656 C 177.523438 11.589844 177.664062 11.496094 177.867188 11.441406 C 178.171875 11.363281 178.105469 11.390625 178.289062 11.1875 C 178.042969 11.070312 178.007812 11.28125 177.664062 11.210938 C 177.566406 11.074219 177.664062 11.203125 177.613281 11.097656 L 177.433594 10.789062 C 177.328125 10.941406 177.261719 10.921875 177.125 11.070312 C 176.996094 11.210938 176.949219 11.238281 176.703125 11.1875 C 176.679688 10.6875 177.117188 9.9375 177.460938 9.566406 C 177.59375 9.425781 177.960938 9.382812 178.175781 9.382812 C 178.382812 9.382812 178.695312 9.648438 178.800781 9.742188 C 178.914062 9.832031 178.972656 9.894531 179.070312 9.972656 L 179.203125 10.085938 C 179.308594 10.199219 179.167969 10.164062 179.363281 10.199219 C 179.371094 10.191406 179.378906 10.167969 179.378906 10.175781 C 179.398438 10.253906 179.398438 10.125 179.398438 10.113281 C 179.492188 9.839844 179.511719 9.558594 179.640625 9.289062 C 179.746094 9.085938 180.257812 8.660156 180.257812 9.144531 C 180.257812 9.324219 180.128906 9.453125 179.96875 9.496094 C 179.96875 9.746094 179.953125 10.042969 179.96875 10.289062 C 179.988281 10.808594 180.539062 10.457031 180.382812 11 C 180.347656 11.132812 180.265625 11.160156 180.164062 11.230469 C 180.277344 11.808594 180.003906 11.652344 179.75 11.738281 L 179.640625 11.785156 L 179.589844 11.8125 L 179.5625 11.828125 C 179.5625 11.828125 179.546875 11.835938 179.539062 11.84375 C 179.589844 11.945312 179.757812 12.03125 179.855469 12.128906 L 180.347656 12.121094 C 180.503906 11.960938 180.601562 11.890625 180.707031 11.628906 C 180.8125 11.371094 180.796875 11.238281 180.996094 11.027344 C 181.386719 11.027344 181.136719 11.132812 181.375 11.210938 C 181.492188 11.210938 181.710938 11.222656 181.632812 11.046875 C 181.605469 10.976562 181.351562 10.914062 181.351562 10.738281 C 181.351562 9.992188 181.5 10.167969 181.632812 9.9375 C 181.769531 9.707031 181.621094 9.761719 182.027344 9.761719 C 182.195312 9.761719 182.300781 10.28125 182.300781 10.449219 C 182.300781 10.765625 182.195312 10.597656 182.371094 10.878906 C 182.484375 11.0625 182.449219 11.1875 182.519531 11.355469 C 182.675781 11.308594 182.746094 11.089844 182.785156 10.929688 C 182.816406 10.957031 182.828125 10.964844 182.835938 10.964844 C 182.835938 10.96875 182.835938 10.984375 182.855469 11.019531 C 182.871094 11.054688 182.878906 11.105469 182.890625 11.140625 C 183.019531 11.125 182.984375 11.097656 183.082031 11.144531 C 183.082031 11.371094 182.933594 11.671875 183.03125 11.898438 C 183.167969 11.941406 183.195312 11.910156 183.308594 11.855469 C 183.335938 11.707031 183.328125 11.566406 183.390625 11.441406 C 183.460938 11.285156 183.554688 11.265625 183.625 11.144531 C 183.695312 10.859375 183.363281 10.308594 184.515625 10.78125 C 184.523438 10.976562 184.472656 11.179688 184.472656 11.351562 C 184.472656 11.863281 184.648438 11.882812 184.25 12.261719 C 184.121094 12.375 184.148438 12.445312 183.972656 12.621094 C 183.996094 12.777344 184.023438 12.734375 184.015625 12.851562 C 184.003906 12.980469 183.960938 12.953125 183.9375 13.105469 C 184.144531 13.367188 184.566406 13.585938 184.507812 13.992188 C 184.253906 14.125 184.207031 13.921875 183.863281 13.886719 C 183.792969 14.167969 183.820312 14.097656 183.496094 14.140625 C 183.292969 14.167969 183.097656 14.0625 183.066406 13.902344 C 183.019531 13.660156 183.242188 13.648438 183.242188 13.4375 C 183.242188 13.273438 183.222656 13.183594 183.132812 13.113281 C 182.925781 13.308594 183.292969 13.4375 182.5625 13.929688 C 181.929688 14.359375 182.359375 14.519531 181.921875 14.679688 C 181.421875 14.871094 181.71875 14.800781 181.332031 15.488281 C 181.136719 15.847656 180.96875 16.066406 181.207031 16.550781 C 181.445312 16.683594 181.402344 16.464844 181.488281 16.796875 C 181.570312 17.160156 181.640625 17.246094 181.992188 17.359375 " fill-opacity="1" fill-rule="evenodd"/></g><g fill="#79af57" fill-opacity="1"><g transform="translate(23.086431, 53.626674)"><g><path d="M 1.15625 0 L 1.15625 -8.65625 L 2.171875 -8.65625 L 2.171875 -0.859375 L 7.84375 -0.859375 L 7.84375 0 Z M 1.15625 0 "/></g></g></g><g fill="#79af57" fill-opacity="1"><g transform="translate(33.270355, 53.626674)"><g><path d="M 1.15625 0 L 1.15625 -8.65625 L 7.859375 -8.65625 L 7.859375 -7.8125 L 2.171875 -7.8125 L 2.171875 -4.75 L 7.640625 -4.75 L 7.640625 -3.890625 L 2.171875 -3.890625 L 2.171875 -0.859375 L 7.859375 -0.859375 L 7.859375 0 Z M 1.15625 0 "/></g></g></g><g fill="#79af57" fill-opacity="1"><g transform="translate(44.072881, 53.626674)"><g><path d="M 5.1875 0.171875 C 4.519531 0.171875 3.90625 0.0625 3.34375 -0.15625 C 2.789062 -0.382812 2.304688 -0.695312 1.890625 -1.09375 C 1.484375 -1.5 1.164062 -1.972656 0.9375 -2.515625 C 0.71875 -3.066406 0.609375 -3.664062 0.609375 -4.3125 C 0.609375 -4.976562 0.71875 -5.585938 0.9375 -6.140625 C 1.164062 -6.691406 1.484375 -7.171875 1.890625 -7.578125 C 2.304688 -7.984375 2.789062 -8.296875 3.34375 -8.515625 C 3.90625 -8.742188 4.519531 -8.859375 5.1875 -8.859375 C 5.738281 -8.859375 6.273438 -8.773438 6.796875 -8.609375 C 7.328125 -8.441406 7.796875 -8.175781 8.203125 -7.8125 C 8.617188 -7.457031 8.929688 -6.992188 9.140625 -6.421875 L 8.25 -6.234375 C 8.050781 -6.671875 7.789062 -7.015625 7.46875 -7.265625 C 7.144531 -7.515625 6.785156 -7.695312 6.390625 -7.8125 C 6.003906 -7.925781 5.601562 -7.984375 5.1875 -7.984375 C 4.488281 -7.984375 3.875 -7.828125 3.34375 -7.515625 C 2.8125 -7.203125 2.394531 -6.769531 2.09375 -6.21875 C 1.789062 -5.664062 1.640625 -5.03125 1.640625 -4.3125 C 1.640625 -3.601562 1.789062 -2.972656 2.09375 -2.421875 C 2.394531 -1.878906 2.8125 -1.453125 3.34375 -1.140625 C 3.875 -0.835938 4.488281 -0.6875 5.1875 -0.6875 C 5.582031 -0.6875 5.984375 -0.734375 6.390625 -0.828125 C 6.796875 -0.929688 7.171875 -1.097656 7.515625 -1.328125 C 7.859375 -1.566406 8.117188 -1.890625 8.296875 -2.296875 L 8.296875 -3.765625 L 5.046875 -3.765625 L 5.046875 -4.609375 L 9.1875 -4.609375 L 9.1875 -2.109375 C 8.957031 -1.554688 8.632812 -1.109375 8.21875 -0.765625 C 7.800781 -0.429688 7.328125 -0.191406 6.796875 -0.046875 C 6.273438 0.0976562 5.738281 0.171875 5.1875 0.171875 Z M 5.1875 0.171875 "/></g></g></g><g fill="#79af57" fill-opacity="1"><g transform="translate(56.199165, 53.626674)"><g><path d="M 0.171875 0 L 4.609375 -8.75 L 5.65625 -8.75 L 10.078125 0 L 8.953125 0 L 7.8125 -2.28125 L 2.453125 -2.28125 L 1.296875 0 Z M 2.890625 -3.125 L 7.375 -3.125 L 5.140625 -7.5625 Z M 2.890625 -3.125 "/></g></g></g><g fill="#79af57" fill-opacity="1"><g transform="translate(68.659578, 53.626674)"><g><path d="M 1.15625 0 L 1.15625 -8.65625 L 2.171875 -8.65625 L 2.171875 -0.859375 L 7.84375 -0.859375 L 7.84375 0 Z M 1.15625 0 "/></g></g></g><g fill="#79af57" fill-opacity="1"><g transform="translate(78.843501, 53.626674)"><g/></g></g><g fill="#79af57" fill-opacity="1"><g transform="translate(85.043565, 53.626674)"><g><path d="M 4.71875 0.1875 C 4.25 0.1875 3.796875 0.132812 3.359375 0.03125 C 2.960938 -0.0625 2.578125 -0.203125 2.203125 -0.390625 C 1.828125 -0.585938 1.507812 -0.84375 1.25 -1.15625 C 1 -1.46875 0.835938 -1.847656 0.765625 -2.296875 C 0.742188 -2.429688 0.734375 -2.566406 0.734375 -2.703125 C 0.734375 -3.222656 0.882812 -3.660156 1.1875 -4.015625 C 1.5 -4.378906 1.894531 -4.640625 2.375 -4.796875 C 2.289062 -4.867188 2.207031 -4.945312 2.125 -5.03125 C 2.050781 -5.125 1.984375 -5.222656 1.921875 -5.328125 C 1.691406 -5.691406 1.578125 -6.070312 1.578125 -6.46875 C 1.578125 -6.851562 1.675781 -7.21875 1.875 -7.5625 C 2.082031 -7.914062 2.378906 -8.203125 2.765625 -8.421875 C 3.003906 -8.554688 3.285156 -8.65625 3.609375 -8.71875 C 3.941406 -8.789062 4.285156 -8.828125 4.640625 -8.828125 C 5.078125 -8.828125 5.5 -8.773438 5.90625 -8.671875 C 6.3125 -8.566406 6.648438 -8.410156 6.921875 -8.203125 C 7.179688 -7.992188 7.394531 -7.742188 7.5625 -7.453125 C 7.726562 -7.160156 7.816406 -6.820312 7.828125 -6.4375 L 6.875 -6.421875 C 6.875 -6.671875 6.816406 -6.882812 6.703125 -7.0625 C 6.597656 -7.25 6.460938 -7.40625 6.296875 -7.53125 C 6.085938 -7.695312 5.84375 -7.816406 5.5625 -7.890625 C 5.28125 -7.960938 4.988281 -8 4.6875 -8 C 4.4375 -8 4.179688 -7.972656 3.921875 -7.921875 C 3.671875 -7.867188 3.445312 -7.785156 3.25 -7.671875 C 3.039062 -7.546875 2.875 -7.367188 2.75 -7.140625 C 2.632812 -6.921875 2.578125 -6.691406 2.578125 -6.453125 C 2.578125 -6.210938 2.640625 -6 2.765625 -5.8125 C 2.828125 -5.707031 2.910156 -5.601562 3.015625 -5.5 C 3.128906 -5.394531 3.242188 -5.300781 3.359375 -5.21875 L 7.53125 -2 C 7.664062 -2.195312 7.765625 -2.414062 7.828125 -2.65625 C 7.898438 -2.894531 7.9375 -3.160156 7.9375 -3.453125 L 8.921875 -3.453125 C 8.921875 -3.046875 8.863281 -2.671875 8.75 -2.328125 C 8.644531 -1.984375 8.492188 -1.671875 8.296875 -1.390625 L 9.96875 -0.125 L 9.96875 0 L 8.625 0 L 7.65625 -0.734375 C 7.375 -0.503906 7.054688 -0.316406 6.703125 -0.171875 C 6.359375 -0.0351562 5.984375 0.0625 5.578125 0.125 C 5.441406 0.144531 5.296875 0.160156 5.140625 0.171875 C 4.992188 0.179688 4.851562 0.1875 4.71875 0.1875 Z M 4.671875 -0.6875 C 4.796875 -0.6875 4.921875 -0.691406 5.046875 -0.703125 C 5.179688 -0.710938 5.3125 -0.726562 5.4375 -0.75 C 5.988281 -0.84375 6.46875 -1.035156 6.875 -1.328125 L 3.140625 -4.1875 C 2.773438 -4.09375 2.453125 -3.914062 2.171875 -3.65625 C 1.890625 -3.40625 1.75 -3.082031 1.75 -2.6875 C 1.75 -2.21875 1.921875 -1.828125 2.265625 -1.515625 C 2.609375 -1.203125 3.035156 -0.976562 3.546875 -0.84375 C 3.898438 -0.738281 4.273438 -0.6875 4.671875 -0.6875 Z M 4.671875 -0.6875 "/></g></g></g><g fill="#79af57" fill-opacity="1"><g transform="translate(97.640072, 53.626674)"><g/></g></g><g fill="#79af57" fill-opacity="1"><g transform="translate(103.840136, 53.626674)"><g><path d="M 5.21875 0.1875 C 4.550781 0.1875 3.9375 0.0703125 3.375 -0.15625 C 2.820312 -0.382812 2.34375 -0.703125 1.9375 -1.109375 C 1.53125 -1.515625 1.210938 -1.992188 0.984375 -2.546875 C 0.765625 -3.097656 0.65625 -3.703125 0.65625 -4.359375 C 0.65625 -5.003906 0.765625 -5.601562 0.984375 -6.15625 C 1.210938 -6.707031 1.53125 -7.179688 1.9375 -7.578125 C 2.34375 -7.984375 2.820312 -8.296875 3.375 -8.515625 C 3.9375 -8.742188 4.550781 -8.859375 5.21875 -8.859375 C 5.769531 -8.859375 6.3125 -8.773438 6.84375 -8.609375 C 7.382812 -8.441406 7.863281 -8.175781 8.28125 -7.8125 C 8.707031 -7.457031 9.019531 -7 9.21875 -6.4375 L 8.34375 -6.234375 C 8.15625 -6.671875 7.894531 -7.015625 7.5625 -7.265625 C 7.226562 -7.523438 6.859375 -7.710938 6.453125 -7.828125 C 6.054688 -7.941406 5.644531 -8 5.21875 -8 C 4.53125 -8 3.921875 -7.84375 3.390625 -7.53125 C 2.859375 -7.226562 2.441406 -6.800781 2.140625 -6.25 C 1.847656 -5.707031 1.703125 -5.078125 1.703125 -4.359375 C 1.703125 -3.640625 1.847656 -3.003906 2.140625 -2.453125 C 2.441406 -1.910156 2.859375 -1.476562 3.390625 -1.15625 C 3.921875 -0.84375 4.53125 -0.6875 5.21875 -0.6875 C 5.613281 -0.6875 6.015625 -0.75 6.421875 -0.875 C 6.835938 -1 7.210938 -1.191406 7.546875 -1.453125 C 7.890625 -1.722656 8.148438 -2.0625 8.328125 -2.46875 L 9.21875 -2.28125 C 8.988281 -1.707031 8.664062 -1.238281 8.25 -0.875 C 7.832031 -0.507812 7.359375 -0.238281 6.828125 -0.0625 C 6.304688 0.101562 5.769531 0.1875 5.21875 0.1875 Z M 5.21875 0.1875 "/></g></g></g><g fill="#79af57" fill-opacity="1"><g transform="translate(115.669555, 53.626674)"><g><path d="M 5.234375 0.140625 C 4.566406 0.140625 3.953125 0.03125 3.390625 -0.1875 C 2.835938 -0.414062 2.359375 -0.726562 1.953125 -1.125 C 1.546875 -1.53125 1.226562 -2.007812 1 -2.5625 C 0.78125 -3.113281 0.671875 -3.71875 0.671875 -4.375 C 0.671875 -5.019531 0.78125 -5.613281 1 -6.15625 C 1.226562 -6.707031 1.546875 -7.179688 1.953125 -7.578125 C 2.359375 -7.984375 2.835938 -8.296875 3.390625 -8.515625 C 3.953125 -8.742188 4.566406 -8.859375 5.234375 -8.859375 C 5.898438 -8.859375 6.507812 -8.742188 7.0625 -8.515625 C 7.625 -8.296875 8.109375 -7.984375 8.515625 -7.578125 C 8.929688 -7.179688 9.25 -6.707031 9.46875 -6.15625 C 9.6875 -5.613281 9.796875 -5.019531 9.796875 -4.375 C 9.796875 -3.71875 9.6875 -3.113281 9.46875 -2.5625 C 9.25 -2.007812 8.929688 -1.53125 8.515625 -1.125 C 8.109375 -0.726562 7.625 -0.414062 7.0625 -0.1875 C 6.507812 0.03125 5.898438 0.140625 5.234375 0.140625 Z M 5.234375 -0.734375 C 5.929688 -0.734375 6.546875 -0.882812 7.078125 -1.1875 C 7.609375 -1.5 8.023438 -1.925781 8.328125 -2.46875 C 8.628906 -3.019531 8.78125 -3.65625 8.78125 -4.375 C 8.78125 -5.082031 8.628906 -5.707031 8.328125 -6.25 C 8.023438 -6.800781 7.609375 -7.226562 7.078125 -7.53125 C 6.546875 -7.84375 5.929688 -8 5.234375 -8 C 4.535156 -8 3.921875 -7.84375 3.390625 -7.53125 C 2.859375 -7.226562 2.441406 -6.800781 2.140625 -6.25 C 1.847656 -5.707031 1.703125 -5.082031 1.703125 -4.375 C 1.703125 -3.65625 1.847656 -3.019531 2.140625 -2.46875 C 2.441406 -1.925781 2.859375 -1.5 3.390625 -1.1875 C 3.921875 -0.882812 4.535156 -0.734375 5.234375 -0.734375 Z M 5.234375 -0.734375 "/></g></g></g><g fill="#79af57" fill-opacity="1"><g transform="translate(128.365039, 53.626674)"><g><path d="M 1.15625 0 L 1.15625 -8.65625 L 2.234375 -8.65625 L 6.21875 -3.59375 L 10.21875 -8.65625 L 11.296875 -8.65625 L 11.296875 0 L 10.265625 0 L 10.265625 -7.21875 L 6.515625 -2.5 L 5.921875 -2.5 L 2.171875 -7.21875 L 2.171875 0 Z M 1.15625 0 "/></g></g></g><g fill="#79af57" fill-opacity="1"><g transform="translate(143.027699, 53.626674)"><g><path d="M 1.15625 0 L 1.15625 -8.671875 L 5.390625 -8.671875 C 5.828125 -8.671875 6.257812 -8.613281 6.6875 -8.5 C 7.125 -8.394531 7.507812 -8.195312 7.84375 -7.90625 C 8.132812 -7.65625 8.351562 -7.34375 8.5 -6.96875 C 8.644531 -6.601562 8.71875 -6.222656 8.71875 -5.828125 C 8.71875 -5.421875 8.640625 -5.023438 8.484375 -4.640625 C 8.328125 -4.253906 8.097656 -3.929688 7.796875 -3.671875 C 7.460938 -3.390625 7.082031 -3.195312 6.65625 -3.09375 C 6.226562 -2.988281 5.800781 -2.9375 5.375 -2.9375 L 2.171875 -2.9375 L 2.171875 0 Z M 2.171875 -3.796875 L 5.390625 -3.796875 C 5.679688 -3.796875 5.988281 -3.832031 6.3125 -3.90625 C 6.632812 -3.976562 6.910156 -4.117188 7.140625 -4.328125 C 7.328125 -4.492188 7.46875 -4.710938 7.5625 -4.984375 C 7.65625 -5.253906 7.703125 -5.535156 7.703125 -5.828125 C 7.703125 -6.109375 7.65625 -6.378906 7.5625 -6.640625 C 7.476562 -6.898438 7.347656 -7.109375 7.171875 -7.265625 C 6.941406 -7.484375 6.664062 -7.628906 6.34375 -7.703125 C 6.019531 -7.773438 5.703125 -7.8125 5.390625 -7.8125 L 2.171875 -7.8125 Z M 2.171875 -3.796875 "/></g></g></g><g fill="#79af57" fill-opacity="1"><g transform="translate(154.560185, 53.626674)"><g><path d="M 1.15625 0 L 1.15625 -8.65625 L 2.171875 -8.65625 L 2.171875 -0.859375 L 7.84375 -0.859375 L 7.84375 0 Z M 1.15625 0 "/></g></g></g><g fill="#79af57" fill-opacity="1"><g transform="translate(164.744108, 53.626674)"><g><path d="M 1.15625 0 L 1.15625 -8.65625 L 2.171875 -8.65625 L 2.171875 0 Z M 1.15625 0 "/></g></g></g><g fill="#79af57" fill-opacity="1"><g transform="translate(170.288443, 53.626674)"><g><path d="M 0.171875 0 L 4.609375 -8.75 L 5.65625 -8.75 L 10.078125 0 L 8.953125 0 L 7.8125 -2.28125 L 2.453125 -2.28125 L 1.296875 0 Z M 2.890625 -3.125 L 7.375 -3.125 L 5.140625 -7.5625 Z M 2.890625 -3.125 "/></g></g></g><g fill="#79af57" fill-opacity="1"><g transform="translate(182.488969, 53.626674)"><g><path d="M 1.15625 0 L 1.15625 -8.65625 L 2.1875 -8.65625 L 8.28125 -1.390625 L 8.28125 -8.65625 L 9.296875 -8.65625 L 9.296875 0 L 8.25 0 L 2.171875 -7.265625 L 2.171875 0 Z M 1.15625 0 "/></g></g></g><g fill="#79af57" fill-opacity="1"><g transform="translate(195.147338, 53.626674)"><g><path d="M 5.21875 0.1875 C 4.550781 0.1875 3.9375 0.0703125 3.375 -0.15625 C 2.820312 -0.382812 2.34375 -0.703125 1.9375 -1.109375 C 1.53125 -1.515625 1.210938 -1.992188 0.984375 -2.546875 C 0.765625 -3.097656 0.65625 -3.703125 0.65625 -4.359375 C 0.65625 -5.003906 0.765625 -5.601562 0.984375 -6.15625 C 1.210938 -6.707031 1.53125 -7.179688 1.9375 -7.578125 C 2.34375 -7.984375 2.820312 -8.296875 3.375 -8.515625 C 3.9375 -8.742188 4.550781 -8.859375 5.21875 -8.859375 C 5.769531 -8.859375 6.3125 -8.773438 6.84375 -8.609375 C 7.382812 -8.441406 7.863281 -8.175781 8.28125 -7.8125 C 8.707031 -7.457031 9.019531 -7 9.21875 -6.4375 L 8.34375 -6.234375 C 8.15625 -6.671875 7.894531 -7.015625 7.5625 -7.265625 C 7.226562 -7.523438 6.859375 -7.710938 6.453125 -7.828125 C 6.054688 -7.941406 5.644531 -8 5.21875 -8 C 4.53125 -8 3.921875 -7.84375 3.390625 -7.53125 C 2.859375 -7.226562 2.441406 -6.800781 2.140625 -6.25 C 1.847656 -5.707031 1.703125 -5.078125 1.703125 -4.359375 C 1.703125 -3.640625 1.847656 -3.003906 2.140625 -2.453125 C 2.441406 -1.910156 2.859375 -1.476562 3.390625 -1.15625 C 3.921875 -0.84375 4.53125 -0.6875 5.21875 -0.6875 C 5.613281 -0.6875 6.015625 -0.75 6.421875 -0.875 C 6.835938 -1 7.210938 -1.191406 7.546875 -1.453125 C 7.890625 -1.722656 8.148438 -2.0625 8.328125 -2.46875 L 9.21875 -2.28125 C 8.988281 -1.707031 8.664062 -1.238281 8.25 -0.875 C 7.832031 -0.507812 7.359375 -0.238281 6.828125 -0.0625 C 6.304688 0.101562 5.769531 0.1875 5.21875 0.1875 Z M 5.21875 0.1875 "/></g></g></g><g fill="#79af57" fill-opacity="1"><g transform="translate(206.976757, 53.626674)"><g><path d="M 1.15625 0 L 1.15625 -8.65625 L 7.859375 -8.65625 L 7.859375 -7.8125 L 2.171875 -7.8125 L 2.171875 -4.75 L 7.640625 -4.75 L 7.640625 -3.890625 L 2.171875 -3.890625 L 2.171875 -0.859375 L 7.859375 -0.859375 L 7.859375 0 Z M 1.15625 0 "/></g></g></g></svg>