<svg xmlns="http://www.w3.org/2000/svg" xmlns:xlink="http://www.w3.org/1999/xlink" width="330" zoomAndPan="magnify" viewBox="0 0 247.5 60" height="80" preserveAspectRatio="xMidYMid meet" version="1.0"><defs><g/><clipPath id="fbd1b90ad0"><path d="M 18 1 L 72.914062 1 L 72.914062 59.9375 L 18 59.9375 Z M 18 1 " clip-rule="nonzero"/></clipPath><clipPath id="6f95e53da8"><path d="M 16.027344 4 L 56 4 L 56 59 L 16.027344 59 Z M 16.027344 4 " clip-rule="nonzero"/></clipPath></defs><g fill="#4a3226" fill-opacity="1"><g transform="translate(89.578721, 43.047063)"><g><path d="M 20.1875 -25 L 20.1875 -20.125 L 13.5625 -20.125 L 13.5625 0 L 7.484375 0 L 7.484375 -20.125 L 0.859375 -20.125 L 0.859375 -25 Z M 20.1875 -25 "/></g></g></g><g fill="#4a3226" fill-opacity="1"><g transform="translate(112.398693, 43.047063)"><g><path d="M 20.9375 -10.25 C 20.9375 -9.6875 20.898438 -9.09375 20.828125 -8.46875 L 7.046875 -8.46875 C 7.140625 -7.238281 7.535156 -6.296875 8.234375 -5.640625 C 8.941406 -4.992188 9.804688 -4.671875 10.828125 -4.671875 C 12.347656 -4.671875 13.40625 -5.3125 14 -6.59375 L 20.46875 -6.59375 C 20.144531 -5.28125 19.546875 -4.101562 18.671875 -3.0625 C 17.804688 -2.019531 16.71875 -1.203125 15.40625 -0.609375 C 14.101562 -0.015625 12.644531 0.28125 11.03125 0.28125 C 9.09375 0.28125 7.363281 -0.128906 5.84375 -0.953125 C 4.320312 -1.785156 3.132812 -2.972656 2.28125 -4.515625 C 1.425781 -6.066406 1 -7.875 1 -9.9375 C 1 -12 1.421875 -13.800781 2.265625 -15.34375 C 3.109375 -16.882812 4.285156 -18.070312 5.796875 -18.90625 C 7.316406 -19.738281 9.0625 -20.15625 11.03125 -20.15625 C 12.957031 -20.15625 14.664062 -19.75 16.15625 -18.9375 C 17.65625 -18.132812 18.828125 -16.984375 19.671875 -15.484375 C 20.515625 -13.992188 20.9375 -12.25 20.9375 -10.25 Z M 14.703125 -11.859375 C 14.703125 -12.898438 14.34375 -13.726562 13.625 -14.34375 C 12.914062 -14.96875 12.03125 -15.28125 10.96875 -15.28125 C 9.945312 -15.28125 9.082031 -14.984375 8.375 -14.390625 C 7.675781 -13.796875 7.25 -12.953125 7.09375 -11.859375 Z M 14.703125 -11.859375 "/></g></g></g><g fill="#4a3226" fill-opacity="1"><g transform="translate(136.108671, 43.047063)"><g><path d="M 8.296875 -16.5625 C 9.003906 -17.65625 9.890625 -18.515625 10.953125 -19.140625 C 12.023438 -19.765625 13.21875 -20.078125 14.53125 -20.078125 L 14.53125 -13.640625 L 12.859375 -13.640625 C 11.335938 -13.640625 10.195312 -13.3125 9.4375 -12.65625 C 8.675781 -12.007812 8.296875 -10.863281 8.296875 -9.21875 L 8.296875 0 L 2.203125 0 L 2.203125 -19.875 L 8.296875 -19.875 Z M 8.296875 -16.5625 "/></g></g></g><g fill="#4a3226" fill-opacity="1"><g transform="translate(153.125839, 43.047063)"><g><path d="M 8.296875 -16.5625 C 9.003906 -17.65625 9.890625 -18.515625 10.953125 -19.140625 C 12.023438 -19.765625 13.21875 -20.078125 14.53125 -20.078125 L 14.53125 -13.640625 L 12.859375 -13.640625 C 11.335938 -13.640625 10.195312 -13.3125 9.4375 -12.65625 C 8.675781 -12.007812 8.296875 -10.863281 8.296875 -9.21875 L 8.296875 0 L 2.203125 0 L 2.203125 -19.875 L 8.296875 -19.875 Z M 8.296875 -16.5625 "/></g></g></g><g fill="#4a3226" fill-opacity="1"><g transform="translate(170.143008, 43.047063)"><g><path d="M 1 -9.96875 C 1 -12.007812 1.382812 -13.800781 2.15625 -15.34375 C 2.925781 -16.882812 3.972656 -18.070312 5.296875 -18.90625 C 6.628906 -19.738281 8.113281 -20.15625 9.75 -20.15625 C 11.15625 -20.15625 12.382812 -19.867188 13.4375 -19.296875 C 14.5 -18.734375 15.3125 -17.988281 15.875 -17.0625 L 15.875 -19.875 L 21.96875 -19.875 L 21.96875 0 L 15.875 0 L 15.875 -2.8125 C 15.28125 -1.882812 14.457031 -1.132812 13.40625 -0.5625 C 12.351562 0 11.125 0.28125 9.71875 0.28125 C 8.101562 0.28125 6.628906 -0.140625 5.296875 -0.984375 C 3.972656 -1.828125 2.925781 -3.023438 2.15625 -4.578125 C 1.382812 -6.128906 1 -7.925781 1 -9.96875 Z M 15.875 -9.9375 C 15.875 -11.457031 15.453125 -12.65625 14.609375 -13.53125 C 13.773438 -14.40625 12.75 -14.84375 11.53125 -14.84375 C 10.320312 -14.84375 9.296875 -14.410156 8.453125 -13.546875 C 7.609375 -12.679688 7.1875 -11.488281 7.1875 -9.96875 C 7.1875 -8.445312 7.609375 -7.238281 8.453125 -6.34375 C 9.296875 -5.457031 10.320312 -5.015625 11.53125 -5.015625 C 12.75 -5.015625 13.773438 -5.453125 14.609375 -6.328125 C 15.453125 -7.210938 15.875 -8.414062 15.875 -9.9375 Z M 15.875 -9.9375 "/></g></g></g><g clip-path="url(#fbd1b90ad0)"><path fill="#79af57" d="M 46.121094 60.515625 C 69.597656 50.253906 52.414062 34.660156 65.226562 15.707031 C 66.359375 24.792969 68.636719 34.652344 63.597656 44.265625 C 68.75 36.136719 71.246094 19.058594 63.941406 11.523438 C 62.035156 9.5625 59.816406 7.828125 57.320312 6.410156 C 43.964844 -1.152344 27.191406 2.867188 18.648438 15.277344 C 27.011719 2.238281 44.214844 -2.125 57.855469 5.609375 C 60.636719 7.183594 63.054688 9.144531 65.09375 11.382812 C 65.730469 12.078125 66.332031 12.800781 66.882812 13.554688 C 73.722656 22.621094 74.941406 35.234375 68.988281 45.738281 C 64.054688 54.4375 55.367188 59.65625 46.121094 60.515625 " fill-opacity="1" fill-rule="evenodd"/></g><g clip-path="url(#6f95e53da8)"><path fill="#4a3226" d="M 30.394531 8.246094 C 30.308594 8.664062 30.441406 9.085938 30.632812 9.34375 C 30.804688 9.285156 31.03125 9.105469 31.164062 8.980469 C 31.15625 8.703125 31.042969 8.683594 30.925781 8.464844 C 30.765625 8.171875 30.746094 8.226562 30.394531 8.246094 Z M 29.335938 9.113281 C 29.566406 9.226562 29.792969 9.226562 29.917969 8.980469 C 30.097656 8.351562 29.414062 8.171875 29.117188 8.589844 C 28.945312 8.847656 29.117188 9 29.335938 9.113281 Z M 29.078125 12.859375 C 29.136719 12.628906 29.203125 12.808594 29.15625 12.285156 C 28.832031 12.179688 28.582031 12.230469 28.355469 12.476562 C 28.003906 12.859375 28.289062 12.921875 28.175781 13.246094 C 27.886719 13.285156 27.925781 13.179688 27.613281 13.285156 C 27.394531 13.867188 27.886719 13.820312 28.136719 14.027344 C 28.230469 14.105469 28.269531 14.179688 28.355469 14.246094 C 29.394531 14.097656 29.023438 13.085938 29.078125 12.859375 Z M 30.964844 11.894531 C 30.667969 11.808594 30.335938 11.609375 29.792969 11.914062 C 29.546875 12.039062 29.515625 12.703125 29.515625 12.980469 L 29.535156 13.296875 L 30.03125 13.324219 C 30.210938 12.582031 30.136719 13.011719 30.59375 12.667969 C 30.753906 12.535156 30.738281 12.429688 30.832031 12.285156 C 30.984375 12.058594 30.972656 12.199219 30.964844 11.894531 Z M 30.753906 10.371094 C 30.753906 10.886719 30.738281 10.960938 30.957031 11.316406 L 33.367188 11 C 33.671875 10.972656 34.335938 11.21875 34.335938 10.210938 C 34.335938 9.933594 34.070312 9.78125 33.738281 9.78125 C 33.175781 9.78125 32.535156 10.496094 31.925781 10.296875 C 31.601562 10.191406 31.9375 10.238281 31.460938 10.179688 L 31.421875 10.171875 L 31.355469 10.152344 C 31.488281 9.855469 31.601562 10.246094 31.601562 9.820312 C 31.601562 9.542969 31.277344 9.53125 31.023438 9.523438 C 30.738281 9.515625 30.488281 9.476562 30.25 9.503906 C 29.957031 9.550781 30.03125 9.855469 30.210938 10.019531 C 30.375 10.160156 30.640625 10.160156 30.753906 10.371094 Z M 28.019531 10.457031 C 27.925781 10.855469 27.992188 11.039062 28.507812 11.390625 C 28.621094 11.476562 28.820312 11.503906 29.003906 11.457031 C 29.414062 11.351562 29.375 11.132812 29.382812 11.058594 L 29.90625 11.4375 C 30.414062 11.296875 30.621094 11.113281 30.355469 10.648438 L 29.898438 10.609375 C 29.726562 10.296875 29.679688 9.828125 29.15625 10.160156 C 28.785156 10.398438 28.582031 10.457031 28.019531 10.457031 Z M 24.355469 12.144531 C 24.496094 12.695312 25.507812 12.933594 26.050781 12.667969 C 26.449219 12.476562 26.355469 12.238281 26.734375 12.125 C 27.050781 12.039062 26.898438 12.066406 27.117188 11.90625 C 27.242188 11.808594 27.449219 11.761719 27.554688 11.675781 C 27.546875 11.265625 27.488281 11.304688 27.222656 11.152344 C 27.277344 11 27.269531 11.058594 27.230469 10.78125 C 26.535156 10.753906 26.867188 11.125 26.601562 11.609375 L 25.972656 11.257812 C 25.707031 11.046875 25.648438 10.972656 25.316406 11.21875 C 25.011719 11.449219 24.476562 11.820312 24.355469 12.144531 Z M 36.890625 41.558594 C 36.488281 41.328125 35.316406 41.15625 35.15625 42.1875 C 35.433594 42.234375 35.421875 42.148438 35.691406 42.261719 C 36.175781 42.453125 36.832031 42.253906 37.117188 42.042969 C 37.117188 41.851562 37.089844 41.671875 36.890625 41.558594 Z M 35.0625 41.148438 C 34.84375 41.070312 34.707031 40.9375 34.46875 40.8125 C 34.261719 40.710938 34.011719 40.613281 33.824219 40.519531 C 32.097656 39.699219 32.222656 40.148438 31.601562 40.15625 L 31.601562 40.671875 C 32.488281 40.605469 32.652344 40.574219 33.632812 41.101562 C 34.195312 41.40625 33.964844 41.472656 34.316406 41.5 L 34.441406 41.507812 C 34.507812 41.527344 35.011719 42.015625 35.0625 41.148438 Z M 52.566406 18.21875 C 52.816406 18.164062 52.871094 18.085938 53.074219 18.363281 C 53.035156 18.523438 53.140625 18.4375 52.863281 18.503906 C 53.035156 19.421875 53.082031 18.714844 53.121094 19.277344 C 53.445312 19.34375 53.347656 19.269531 53.445312 19.609375 C 54.246094 19.726562 53.902344 19.886719 54.3125 19.886719 C 54.578125 19.886719 55.054688 19.667969 55.226562 19.554688 C 55.464844 19.402344 55.730469 19.066406 55.929688 18.992188 C 55.929688 18.503906 55.84375 18.257812 55.578125 17.980469 C 54.882812 17.265625 55.035156 17.800781 54.703125 17.800781 L 53.480469 17.800781 C 53.195312 17.800781 53.53125 17.589844 52.910156 17.515625 C 52.710938 17.78125 52.625 17.761719 52.566406 18.21875 Z M 41.984375 11.886719 C 42.089844 12.503906 41.519531 12.5625 41.949219 13.085938 C 42.355469 13.058594 42.195312 12.859375 42.671875 12.808594 C 42.730469 12.90625 42.746094 12.90625 42.796875 13.011719 C 42.863281 13.171875 42.785156 13.132812 42.898438 13.246094 C 43.0625 13.417969 43.328125 13.230469 43.1875 13.707031 C 42.8125 13.667969 42.964844 13.449219 42.613281 13.449219 C 41.738281 13.449219 42.0625 14.859375 42.5 14.859375 C 42.796875 14.859375 42.9375 14.753906 43.167969 14.65625 C 43.167969 14.417969 43.148438 14.417969 43.050781 14.257812 L 43.339844 14.257812 C 43.664062 15.257812 42.757812 15.039062 42.585938 15.515625 C 42.546875 15.628906 42.441406 15.714844 42.441406 15.867188 C 42.460938 18.304688 42.539062 16.847656 42.757812 17.78125 C 42.804688 17.992188 42.851562 18.355469 42.871094 18.609375 C 43.175781 18.589844 43.261719 18.46875 43.519531 18.554688 C 43.507812 18.714844 43.339844 18.773438 43.339844 19.078125 C 43.339844 19.726562 43.40625 19.839844 43.816406 20.316406 C 43.9375 20.457031 44.070312 20.523438 44.128906 20.667969 C 44.273438 21.078125 44.023438 21.066406 44.59375 21.203125 C 45.59375 21.441406 45.578125 22.269531 46.367188 21.667969 C 46.375 21.085938 46.566406 20.925781 46.585938 20.46875 C 46.605469 19.90625 46.699219 19.707031 47.054688 19.476562 C 47.054688 19.117188 47.023438 18.800781 47.121094 18.488281 C 47.261719 18.050781 47.339844 18.316406 47.460938 17.78125 C 48.054688 17.667969 48.425781 17.6875 48.871094 17.351562 C 49.425781 16.933594 49.652344 16.371094 49.851562 16.21875 C 49.863281 16.210938 49.96875 16.144531 49.988281 16.132812 C 50.273438 15.960938 50.664062 15.933594 51.042969 15.847656 C 52.511719 15.554688 51.652344 15.238281 52.539062 15.238281 C 52.636719 15.058594 52.75 14.953125 52.84375 14.78125 C 52.957031 14.570312 52.929688 14.410156 53.109375 14.277344 L 52.941406 13.753906 C 52.871094 13.371094 52.835938 13.636719 52.683594 13.363281 C 52.625 13.144531 52.769531 12.667969 52.75 12.542969 C 52.703125 12.277344 52.597656 12.570312 52.597656 12.257812 C 52.597656 12.027344 52.671875 12.085938 52.710938 12.046875 C 52.796875 11.953125 52.824219 11.941406 52.816406 11.953125 C 52.863281 11.894531 52.804688 11.960938 52.863281 11.867188 C 52.941406 11.742188 52.890625 11.78125 52.996094 11.65625 C 53.550781 10.933594 53.027344 11.058594 52.941406 10.601562 C 53.207031 10.628906 53.148438 10.808594 53.433594 10.914062 C 53.625 10.722656 53.683594 10.675781 53.652344 10.3125 C 52.835938 10.125 53.292969 10.191406 52.804688 9.769531 C 52.777344 9.753906 51.816406 9.09375 52.425781 9.09375 C 52.671875 9.09375 52.757812 9.257812 52.988281 9.09375 C 53.207031 8.820312 52.625 8.542969 52.519531 8.457031 C 52.3125 8.304688 52.007812 8.140625 52.007812 7.816406 C 52.007812 6.914062 52.757812 6.65625 52.769531 5.960938 C 50.070312 5.113281 51.023438 5.808594 50.519531 5.847656 L 50.539062 5.324219 C 49.757812 5.054688 50.167969 5.210938 49.558594 5.464844 C 49.425781 5.292969 49.539062 5.351562 49.433594 5.152344 C 49.359375 5 49.347656 5.054688 49.273438 4.933594 C 49.207031 4.835938 49.1875 4.730469 49.140625 4.675781 C 49.054688 4.5625 48.988281 4.582031 48.929688 4.484375 L 52.976562 5.703125 C 50.84375 4.875 48.597656 4.304688 46.253906 4.027344 C 46.261719 4.035156 46.273438 4.035156 46.273438 4.035156 C 46.023438 4.5625 45.511719 4.140625 45.273438 4.140625 C 44.832031 4.140625 45.167969 4.265625 44.671875 4.324219 C 43.777344 4.4375 42.890625 4.417969 42.003906 4.359375 C 41.527344 4.332031 41.242188 4.550781 40.746094 4.476562 C 40.40625 4.417969 40.128906 4.273438 39.738281 4.324219 C 38.691406 4.464844 37.792969 4.683594 36.765625 4.855469 C 35.757812 5.027344 35.078125 5.550781 34.003906 5.550781 C 33.804688 5.769531 33.957031 5.820312 33.566406 5.847656 C 33.289062 5.875 33.144531 5.921875 33.058594 6.152344 C 33.195312 6.429688 33.289062 6.257812 33.394531 6.53125 C 32.898438 6.542969 33.144531 6.410156 32.851562 6.410156 L 32.402344 6.410156 C 32.28125 6.484375 31.546875 7.179688 31.433594 7.292969 C 31.222656 7.523438 31.308594 7.65625 31.441406 7.953125 C 31.765625 8.648438 31.925781 8.457031 32.316406 8.296875 C 32.515625 8.523438 32.46875 8.4375 32.460938 8.941406 C 32.289062 9.066406 32.058594 9.199219 31.90625 9.371094 C 31.917969 9.378906 31.964844 9.449219 31.984375 9.464844 C 32.335938 9.855469 33.652344 9.503906 33.898438 9.277344 C 34.183594 9.410156 34.15625 9.484375 34.546875 9.351562 C 35.460938 9.019531 34.945312 8.886719 35.289062 8.257812 C 35.5 7.886719 35.527344 7.960938 35.84375 7.894531 C 36.195312 7.808594 36.375 6.789062 37.195312 6.390625 C 37.699219 6.152344 37.871094 5.988281 38.308594 5.628906 C 38.640625 5.359375 38.605469 5.496094 38.613281 4.980469 C 38.890625 4.960938 39.128906 5 39.472656 4.894531 C 39.691406 4.828125 40.023438 4.703125 40.28125 4.828125 C 40.269531 5.054688 40.300781 4.960938 39.9375 5.085938 C 39.507812 5.226562 39.195312 5.457031 38.777344 5.578125 L 38.785156 5.980469 C 38.996094 5.988281 39.117188 6.007812 39.222656 6.152344 C 39.117188 6.378906 39.082031 6.160156 38.898438 6.53125 C 38.097656 6.53125 38.023438 6.867188 37.402344 7.046875 C 37.15625 7.121094 36.984375 7.019531 36.984375 7.265625 C 36.984375 8.304688 37.964844 7.609375 38.777344 7.867188 C 38.554688 8.445312 37.792969 8.007812 37.460938 8.09375 C 37.328125 8.132812 37.25 8.21875 37.15625 8.285156 C 37.183594 8.828125 37.316406 8.582031 37.574219 8.703125 C 37.726562 8.769531 37.777344 9.058594 37.859375 9.210938 C 38.574219 9.113281 39.28125 9.007812 40.003906 9.007812 C 40.472656 9.007812 41.175781 9.789062 41.339844 10.140625 C 41.433594 10.351562 41.375 10.226562 41.492188 10.382812 C 41.613281 10.5625 41.957031 11.734375 41.984375 11.886719 Z M 34.296875 14.484375 C 34.574219 14.695312 34.71875 15.105469 34.71875 15.535156 C 34.996094 15.535156 35.433594 15.5625 35.433594 15.828125 C 35.242188 16 34.8125 15.847656 34.519531 15.960938 C 34.296875 16.105469 34.203125 16.847656 34.832031 16.800781 C 35.402344 16.753906 35.433594 16.25 35.824219 16.277344 C 35.878906 17.277344 35.574219 16.800781 35.308594 17.609375 C 35.261719 17.761719 35.289062 17.859375 35.261719 18.050781 C 34.355469 18.097656 34.003906 18.132812 34.003906 18.90625 C 34.832031 19.171875 34.566406 18.980469 35.347656 18.78125 C 36.316406 19.535156 35.546875 19.640625 37.164062 20.363281 C 37.527344 20.523438 37.660156 20.660156 37.996094 20.457031 C 37.898438 19.773438 37.242188 19.78125 37.203125 19.4375 C 37.699219 19.476562 38.023438 19.820312 38.519531 19.933594 C 38.859375 18.953125 38.585938 18.933594 38.261719 18.554688 C 37.757812 17.960938 37.640625 18.03125 37.671875 17.230469 C 38.375 17.34375 38.136719 18.25 38.898438 18.230469 C 39.453125 18.21875 39.691406 16.925781 39.671875 16.886719 C 39.527344 16.554688 39.386719 16.742188 39.148438 16.554688 L 38.679688 16.132812 C 37.792969 15.390625 37.84375 15.933594 37.832031 15.238281 C 37.984375 15.230469 38.011719 15.21875 38.089844 15.171875 C 38.089844 15.132812 37.9375 14.066406 37.859375 14.191406 C 37.851562 14.210938 37.8125 14.171875 37.785156 14.152344 C 37.488281 13.992188 37.632812 14.058594 37.441406 13.875 C 37.183594 13.648438 37.183594 13.855469 36.925781 13.621094 C 36.460938 13.179688 36.707031 12.992188 35.945312 13.144531 C 35.859375 13.019531 35.773438 12.953125 35.660156 12.828125 C 35.507812 12.648438 35.335938 12.265625 35.222656 12.039062 C 35.078125 11.753906 35.128906 12.007812 35.136719 11.628906 C 34.328125 11.429688 35.050781 11.484375 33.738281 11.484375 C 33.5 11.484375 33.660156 11.589844 33.230469 11.609375 C 33.117188 11.621094 33.097656 11.601562 32.992188 11.636719 C 32.851562 11.6875 33.03125 11.667969 32.773438 11.769531 C 32.242188 11.09375 31.289062 12.296875 31.042969 12.839844 C 30.964844 12.980469 30.832031 13.449219 30.765625 13.5625 C 31.089844 13.820312 31.125 13.636719 31.394531 14.019531 C 31.195312 14.351562 31.203125 14.144531 31.058594 14.667969 C 31.804688 14.839844 32.878906 14.847656 33.679688 14.753906 C 34.164062 14.6875 34.011719 14.601562 34.296875 14.484375 Z M 29.699219 24.171875 C 30.242188 24.363281 30.726562 24.640625 31.203125 24.945312 C 31.652344 25.230469 32.023438 24.972656 32.316406 25.316406 C 32.480469 25.6875 32.050781 26.714844 32.652344 27.039062 L 33.128906 27.316406 C 33.804688 26.984375 33.230469 26.480469 33.230469 25.953125 L 33.316406 25.429688 C 33.414062 25.125 33.28125 25.296875 33.574219 25.183594 C 33.9375 25.058594 33.824219 25.011719 33.992188 24.667969 C 34.175781 24.316406 34.136719 24.382812 34.050781 23.933594 C 33.90625 23.136719 33.414062 22.964844 33.679688 22.628906 C 33.9375 22.308594 33.917969 22.488281 33.90625 21.90625 C 33.90625 21.59375 33.917969 21.277344 33.90625 20.964844 C 33.90625 20.191406 33.640625 20.34375 35.621094 20.363281 C 35.757812 20.5625 36.128906 20.964844 36.289062 21.078125 C 36.519531 21.21875 36.585938 21.125 36.699219 21.390625 C 37.03125 22.152344 36.59375 22.5625 36.566406 22.847656 C 36.765625 22.847656 36.917969 22.78125 37.042969 22.820312 C 37.394531 22.917969 37.375 23.25 37.851562 22.746094 C 38.269531 22.308594 37.964844 22.144531 38.214844 21.839844 C 38.546875 21.429688 38.832031 22.125 38.9375 22.363281 C 39.097656 22.695312 39.289062 22.972656 39.421875 23.324219 C 39.441406 23.375 39.460938 23.421875 39.480469 23.488281 C 39.527344 23.601562 39.554688 23.609375 39.574219 23.679688 C 39.679688 24.039062 39.175781 24.039062 39.8125 24.535156 C 40.015625 24.6875 40.117188 24.867188 40.28125 25.058594 L 40.976562 25.097656 L 41.214844 25.632812 C 41.234375 25.6875 41.261719 25.78125 41.300781 25.832031 C 41.492188 26.078125 41.28125 25.839844 41.453125 25.945312 C 41.578125 26.023438 41.527344 25.964844 41.605469 26.070312 C 41.890625 26.429688 41.765625 27.050781 41.765625 27.5625 C 41.765625 27.886719 41.558594 27.726562 41.605469 28.242188 C 41.917969 28.355469 41.890625 28.335938 42.289062 28.34375 C 42.40625 28.621094 42.394531 28.441406 42.453125 28.839844 C 42.492188 29.117188 42.558594 29.125 42.710938 29.308594 C 42.957031 29.601562 42.917969 30.070312 42.441406 29.964844 C 41.699219 29.800781 41.871094 29.402344 40.269531 29.402344 C 40.347656 29.125 40.5 28.972656 40.605469 28.71875 C 40.738281 28.394531 41.050781 27.839844 41.023438 27.546875 C 40.488281 27.429688 40.460938 27.699219 40.414062 27.917969 C 40.261719 27.9375 39.261719 28.058594 39.175781 28.117188 C 39.242188 28.203125 39.328125 28.210938 39.460938 28.210938 L 39.453125 28.726562 C 38.660156 28.726562 38.890625 28.71875 38.546875 28.296875 C 38.308594 28.003906 37.84375 28.175781 37.527344 28.308594 C 37.023438 28.507812 37.011719 28.488281 36.765625 28.9375 C 36.554688 29.308594 36.203125 29.347656 36.175781 29.753906 C 36.652344 29.707031 36.585938 29.25 37.15625 28.878906 C 37.386719 28.726562 37.9375 28.375 38.242188 28.488281 C 38.84375 28.707031 37.984375 29.117188 38.59375 29.640625 C 38.726562 29.746094 38.910156 29.773438 39.050781 29.851562 C 39.480469 30.039062 39.738281 29.972656 40.183594 29.878906 C 40.183594 30.429688 40.203125 30.335938 39.910156 30.632812 C 39.679688 30.839844 39.574219 30.890625 39.222656 30.945312 C 38.910156 30.992188 38.859375 31.164062 38.613281 31.335938 C 38.308594 31.546875 38.308594 31.535156 37.859375 31.535156 C 37.765625 31.003906 38.042969 31.269531 38.042969 30.871094 C 37.46875 30.832031 37.777344 31.011719 37.308594 31.136719 C 37.050781 31.203125 36.925781 31.222656 36.738281 31.394531 L 36.308594 31.792969 C 36.203125 31.964844 36.300781 32.269531 36.300781 32.515625 C 35.984375 32.621094 35.691406 32.726562 35.433594 32.925781 C 35.0625 33.203125 35.117188 33.300781 34.917969 33.746094 C 34.785156 34.050781 34.652344 34.308594 34.535156 34.699219 C 34.230469 35.738281 34.328125 35.394531 33.785156 35.9375 C 33.480469 36.242188 32.925781 36.488281 32.707031 36.859375 C 32.261719 37.640625 33.15625 37.945312 33.144531 39.214844 L 33.136719 39.433594 C 32.976562 39.433594 32.804688 39.433594 32.679688 39.386719 C 32.460938 39.300781 32.222656 38.679688 32.136719 38.433594 C 31.792969 37.507812 31.792969 37.308594 29.992188 37.527344 L 29.917969 37.851562 C 29.269531 37.945312 29.261719 37.59375 28.6875 37.59375 C 28.375 37.59375 27.679688 38.167969 27.679688 38.441406 C 27.679688 40.320312 27.515625 39.8125 28.058594 40.84375 C 28.203125 41.109375 28.316406 41.414062 28.632812 41.492188 C 29.328125 41.652344 29.839844 41.234375 29.945312 40.539062 C 30.574219 40.539062 30.460938 40.472656 30.890625 40.726562 C 30.859375 41.261719 30.707031 41.335938 30.707031 42.347656 C 31.050781 42.558594 31.613281 42.59375 32.011719 42.765625 C 32.488281 42.976562 32.335938 43.632812 32.335938 44.261719 C 32.414062 44.394531 32.59375 44.558594 32.699219 44.632812 C 32.9375 44.832031 32.957031 44.765625 33.25 44.738281 C 34.175781 44.632812 33.785156 44.871094 34.402344 45.023438 C 34.652344 44.871094 34.746094 44.578125 35.109375 44.414062 C 35.261719 44.359375 35.453125 44.308594 35.613281 44.253906 C 36.183594 44.042969 35.367188 43.539062 37.070312 44.367188 L 37.539062 44.613281 C 38.070312 44.863281 39.023438 44.527344 39.367188 44.738281 C 39.585938 44.871094 39.433594 44.910156 39.605469 45.050781 C 39.738281 45.148438 40.0625 45.195312 40.355469 45.414062 C 40.574219 45.578125 41.175781 46.121094 41.339844 46.15625 C 42.128906 46.347656 42.984375 46.023438 43.578125 47.234375 C 44.023438 48.175781 43.394531 47.902344 44.480469 48.109375 C 44.710938 48.148438 44.84375 48.207031 45.082031 48.28125 C 45.988281 48.558594 45.832031 48.738281 46.492188 48.644531 C 47.003906 48.566406 48.28125 49.253906 48.757812 49.425781 C 48.757812 50.539062 48.644531 50.367188 47.996094 50.976562 C 47.757812 51.195312 47.492188 51.320312 47.386719 51.539062 C 47.320312 51.644531 47.226562 52.246094 47.148438 52.464844 C 46.976562 52.949219 46.617188 53.550781 46.1875 53.824219 C 45.957031 53.976562 45.359375 53.777344 44.386719 54.417969 C 44.117188 54.597656 44.101562 55.0625 43.328125 55.683594 C 43.1875 55.796875 43.109375 55.808594 43.003906 55.921875 C 42.796875 56.148438 42.996094 56.101562 42.644531 56.179688 C 41.507812 56.398438 41.957031 56.789062 41.0625 56.902344 C 40.785156 56.941406 40.335938 57.046875 40.148438 57.160156 C 39.671875 57.453125 39.441406 57.875 39.03125 58.101562 C 38.929688 58.160156 39.023438 58.101562 38.929688 58.167969 C 38.859375 58.214844 38.671875 58.371094 38.25 58.160156 C 37.984375 58.035156 37.671875 58.132812 37.367188 58.054688 C 37.335938 57.585938 37.148438 58.027344 37.335938 57.578125 C 37.441406 57.320312 37.441406 57.207031 37.28125 57.035156 C 36.851562 56.589844 36.859375 56.589844 37.109375 56.007812 C 37.394531 55.320312 36.996094 55.332031 37.164062 54.855469 C 37.222656 54.722656 37.222656 54.835938 37.242188 54.585938 L 37.269531 52.976562 C 37.234375 52.777344 37.28125 52.957031 37.175781 52.816406 C 36.957031 52.53125 37.050781 52.519531 36.671875 52.367188 C 35.46875 51.871094 35.382812 51.636719 34.660156 50.664062 C 34.554688 50.519531 34.507812 50.414062 34.414062 50.300781 C 32.917969 48.414062 33.640625 49.378906 33.5 48.226562 C 33.480469 48.015625 33.480469 47.804688 33.488281 47.585938 C 33.726562 47.378906 34.335938 46.777344 34.335938 46.425781 C 34.335938 46.082031 34.03125 45.367188 33.679688 45.367188 C 32.621094 45.367188 33.214844 45.644531 32.183594 45.042969 C 31.585938 44.679688 31.296875 43.738281 30.660156 43.507812 C 30.429688 43.433594 30.429688 43.433594 30.230469 43.328125 C 30.003906 43.203125 29.9375 43.269531 29.765625 43.195312 C 29.601562 43.121094 29.648438 43.035156 29.429688 42.917969 C 29.183594 42.777344 29.261719 42.851562 29.070312 42.660156 C 28.820312 42.40625 28.460938 42.480469 28.125 42.453125 C 27.820312 42.421875 27.621094 42.203125 27.328125 42.082031 C 26.480469 41.71875 25.667969 41.242188 25.410156 40.328125 C 25.238281 39.710938 24.792969 39.347656 24.449219 38.851562 L 23.164062 36.804688 C 23.019531 36.613281 23.144531 36.71875 22.972656 36.671875 C 22.90625 36.871094 22.925781 36.898438 23.039062 37.042969 C 23.324219 37.414062 23.078125 37.414062 23.316406 37.605469 L 23.574219 38.003906 C 23.660156 38.203125 23.753906 38.355469 23.886719 38.574219 C 24.085938 38.898438 24.753906 39.261719 24.25 39.660156 C 23.746094 39.59375 23.355469 38.527344 23.085938 38.15625 C 22.886719 37.890625 22.761719 37.585938 22.621094 37.300781 C 22.355469 36.773438 22.230469 35.804688 21.753906 35.441406 C 21.238281 35.070312 20.382812 33.242188 20.382812 32.785156 C 20.382812 32.089844 20.296875 31.394531 20.449219 30.6875 C 20.496094 30.441406 20.601562 30.480469 20.46875 30.195312 C 20.238281 29.714844 20.5625 29.660156 20.132812 29.136719 C 19.535156 28.402344 20.058594 28.164062 19.714844 27.507812 C 19.628906 27.34375 19.59375 27.257812 19.4375 27.144531 C 19.171875 26.945312 19.839844 26.203125 18.847656 26.203125 C 18.847656 25.820312 18.609375 25.402344 18.5625 25.003906 C 18.535156 24.785156 18.601562 24.859375 18.488281 24.6875 L 18.164062 24.222656 C 17.945312 24.019531 17.878906 24.125 17.726562 24.25 C 17.496094 24.441406 17.601562 24.308594 17.410156 24.390625 C 17.21875 24.46875 17.152344 24.753906 17.085938 24.945312 C 16.886719 25.542969 17.183594 26.03125 16.542969 26.191406 C 16.351562 25.859375 16.570312 25.5625 16.382812 25.363281 C 16.265625 25.984375 16.144531 25.648438 16.046875 26.078125 C 16.570312 23.34375 17.503906 20.753906 18.78125 18.363281 C 18.742188 18.457031 18.734375 18.535156 18.742188 18.582031 C 18.945312 18.707031 19.171875 18.46875 19.410156 18.390625 C 19.726562 18.296875 19.933594 18.324219 20.316406 18.304688 C 20.402344 18.164062 20.410156 18.078125 20.496094 17.933594 C 20.582031 17.792969 20.6875 17.707031 20.773438 17.601562 C 21.164062 17.164062 21.238281 17.285156 21.753906 17.285156 C 22.058594 17.285156 22.527344 16.933594 22.8125 16.925781 C 23.03125 16.925781 23.46875 17.039062 23.695312 17.144531 C 23.867188 17.210938 23.839844 17.191406 23.945312 17.285156 L 23.898438 17.734375 C 24.011719 17.792969 24.441406 17.589844 24.917969 17.589844 C 25.144531 17.589844 25.097656 17.78125 25.269531 17.894531 C 25.34375 17.953125 25.355469 17.945312 25.460938 17.960938 C 25.46875 17.535156 25.554688 17.582031 25.308594 17.304688 C 25.085938 17.058594 25.210938 17.117188 24.859375 17.117188 C 24.628906 17.117188 24.707031 17.429688 24.324219 17.011719 C 24.011719 16.65625 24.058594 16.886719 23.707031 16.707031 C 23.640625 16.351562 23.832031 16.230469 24.105469 16.152344 C 24.515625 16.046875 24.429688 16.085938 24.679688 15.808594 C 24.34375 15.648438 24.296875 15.933594 23.832031 15.839844 C 23.695312 15.65625 23.832031 15.828125 23.761719 15.6875 L 23.515625 15.265625 C 23.375 15.476562 23.289062 15.449219 23.097656 15.648438 C 22.925781 15.839844 22.859375 15.878906 22.527344 15.808594 C 22.496094 15.132812 23.085938 14.113281 23.554688 13.609375 C 23.734375 13.417969 24.230469 13.363281 24.527344 13.363281 C 24.800781 13.363281 25.230469 13.722656 25.375 13.847656 C 25.527344 13.972656 25.601562 14.058594 25.734375 14.164062 L 25.917969 14.316406 C 26.058594 14.46875 25.867188 14.417969 26.136719 14.46875 C 26.144531 14.457031 26.15625 14.429688 26.15625 14.4375 C 26.183594 14.542969 26.183594 14.371094 26.183594 14.351562 C 26.308594 13.980469 26.335938 13.601562 26.507812 13.238281 C 26.648438 12.960938 27.34375 12.382812 27.34375 13.039062 C 27.34375 13.285156 27.175781 13.457031 26.953125 13.515625 C 26.953125 13.855469 26.9375 14.257812 26.953125 14.589844 C 26.984375 15.296875 27.726562 14.820312 27.515625 15.554688 C 27.46875 15.734375 27.355469 15.773438 27.222656 15.867188 C 27.375 16.648438 27.003906 16.4375 26.660156 16.554688 L 26.546875 16.601562 L 26.507812 16.621094 L 26.441406 16.65625 L 26.402344 16.675781 C 26.402344 16.675781 26.382812 16.6875 26.375 16.695312 C 26.441406 16.839844 26.667969 16.953125 26.800781 17.085938 L 27.46875 17.078125 C 27.679688 16.859375 27.8125 16.761719 27.953125 16.410156 C 28.097656 16.058594 28.078125 15.878906 28.34375 15.589844 C 28.878906 15.589844 28.535156 15.734375 28.859375 15.839844 C 29.023438 15.839844 29.316406 15.859375 29.210938 15.621094 C 29.175781 15.523438 28.832031 15.4375 28.832031 15.199219 C 28.832031 14.191406 29.03125 14.429688 29.210938 14.113281 C 29.394531 13.800781 29.191406 13.875 29.746094 13.875 C 29.972656 13.875 30.117188 14.582031 30.117188 14.808594 C 30.117188 15.238281 29.972656 15.011719 30.210938 15.390625 C 30.363281 15.636719 30.316406 15.808594 30.414062 16.039062 C 30.621094 15.972656 30.71875 15.675781 30.773438 15.457031 C 30.8125 15.496094 30.832031 15.503906 30.839844 15.503906 C 30.839844 15.515625 30.839844 15.535156 30.871094 15.582031 C 30.890625 15.628906 30.898438 15.695312 30.917969 15.742188 C 31.089844 15.722656 31.042969 15.6875 31.175781 15.753906 C 31.175781 16.058594 30.972656 16.46875 31.109375 16.773438 C 31.289062 16.828125 31.328125 16.792969 31.480469 16.714844 C 31.515625 16.515625 31.507812 16.324219 31.59375 16.152344 C 31.6875 15.945312 31.8125 15.914062 31.90625 15.753906 C 32.003906 15.363281 31.554688 14.621094 33.117188 15.257812 C 33.128906 15.523438 33.058594 15.800781 33.058594 16.027344 C 33.058594 16.726562 33.296875 16.753906 32.753906 17.265625 C 32.585938 17.421875 32.621094 17.515625 32.382812 17.753906 C 32.414062 17.960938 32.449219 17.90625 32.441406 18.066406 C 32.421875 18.238281 32.363281 18.199219 32.335938 18.410156 C 32.613281 18.761719 33.183594 19.058594 33.109375 19.609375 C 32.765625 19.792969 32.699219 19.515625 32.230469 19.46875 C 32.136719 19.847656 32.175781 19.753906 31.738281 19.8125 C 31.460938 19.847656 31.195312 19.707031 31.15625 19.488281 C 31.089844 19.164062 31.394531 19.144531 31.394531 18.859375 C 31.394531 18.640625 31.363281 18.515625 31.242188 18.417969 C 30.964844 18.6875 31.460938 18.859375 30.46875 19.523438 C 29.613281 20.105469 30.191406 20.324219 29.601562 20.542969 C 28.925781 20.800781 29.328125 20.707031 28.800781 21.640625 C 28.535156 22.125 28.308594 22.421875 28.632812 23.078125 C 28.957031 23.257812 28.898438 22.964844 29.011719 23.410156 C 29.125 23.90625 29.222656 24.019531 29.699219 24.171875 " fill-opacity="1" fill-rule="evenodd"/></g></svg>