<svg xmlns="http://www.w3.org/2000/svg" xmlns:xlink="http://www.w3.org/1999/xlink" width="330" zoomAndPan="magnify" viewBox="0 0 247.92 67.92" height="80" preserveAspectRatio="xMidYMid meet" version="1.0"><defs><g/><clipPath id="b680d80a7d"><path d="M 44 26 L 73.933594 26 L 73.933594 58.632812 L 44 58.632812 Z M 44 26 " clip-rule="nonzero"/></clipPath><clipPath id="7f4756ab6e"><path d="M 17 0.949219 L 70 0.949219 L 70 55 L 17 55 Z M 17 0.949219 " clip-rule="nonzero"/></clipPath></defs><g fill="#ffffff" fill-opacity="1"><g transform="translate(89.759971, 39.528735)"><g><path d="M 20.203125 -25.015625 L 20.203125 -20.140625 L 13.578125 -20.140625 L 13.578125 0 L 7.484375 0 L 7.484375 -20.140625 L 0.859375 -20.140625 L 0.859375 -25.015625 Z M 20.203125 -25.015625 "/></g></g></g><g fill="#ffffff" fill-opacity="1"><g transform="translate(112.599142, 39.528735)"><g><path d="M 20.953125 -10.265625 C 20.953125 -9.691406 20.914062 -9.097656 20.84375 -8.484375 L 7.0625 -8.484375 C 7.15625 -7.242188 7.550781 -6.296875 8.25 -5.640625 C 8.945312 -4.992188 9.804688 -4.671875 10.828125 -4.671875 C 12.347656 -4.671875 13.40625 -5.3125 14 -6.59375 L 20.5 -6.59375 C 20.164062 -5.289062 19.5625 -4.113281 18.6875 -3.0625 C 17.820312 -2.019531 16.734375 -1.203125 15.421875 -0.609375 C 14.117188 -0.015625 12.660156 0.28125 11.046875 0.28125 C 9.097656 0.28125 7.363281 -0.128906 5.84375 -0.953125 C 4.320312 -1.785156 3.132812 -2.972656 2.28125 -4.515625 C 1.425781 -6.066406 1 -7.875 1 -9.9375 C 1 -12.007812 1.421875 -13.816406 2.265625 -15.359375 C 3.109375 -16.898438 4.289062 -18.085938 5.8125 -18.921875 C 7.332031 -19.753906 9.078125 -20.171875 11.046875 -20.171875 C 12.972656 -20.171875 14.679688 -19.765625 16.171875 -18.953125 C 17.671875 -18.148438 18.84375 -17 19.6875 -15.5 C 20.53125 -14.007812 20.953125 -12.265625 20.953125 -10.265625 Z M 14.71875 -11.875 C 14.71875 -12.914062 14.359375 -13.742188 13.640625 -14.359375 C 12.929688 -14.984375 12.046875 -15.296875 10.984375 -15.296875 C 9.953125 -15.296875 9.085938 -15 8.390625 -14.40625 C 7.691406 -13.8125 7.257812 -12.96875 7.09375 -11.875 Z M 14.71875 -11.875 "/></g></g></g><g fill="#ffffff" fill-opacity="1"><g transform="translate(136.329069, 39.528735)"><g><path d="M 8.296875 -16.578125 C 9.015625 -17.671875 9.90625 -18.53125 10.96875 -19.15625 C 12.039062 -19.78125 13.234375 -20.09375 14.546875 -20.09375 L 14.546875 -13.65625 L 12.859375 -13.65625 C 11.335938 -13.65625 10.195312 -13.328125 9.4375 -12.671875 C 8.675781 -12.015625 8.296875 -10.867188 8.296875 -9.234375 L 8.296875 0 L 2.203125 0 L 2.203125 -19.890625 L 8.296875 -19.890625 Z M 8.296875 -16.578125 "/></g></g></g><g fill="#ffffff" fill-opacity="1"><g transform="translate(153.360555, 39.528735)"><g><path d="M 8.296875 -16.578125 C 9.015625 -17.671875 9.90625 -18.53125 10.96875 -19.15625 C 12.039062 -19.78125 13.234375 -20.09375 14.546875 -20.09375 L 14.546875 -13.65625 L 12.859375 -13.65625 C 11.335938 -13.65625 10.195312 -13.328125 9.4375 -12.671875 C 8.675781 -12.015625 8.296875 -10.867188 8.296875 -9.234375 L 8.296875 0 L 2.203125 0 L 2.203125 -19.890625 L 8.296875 -19.890625 Z M 8.296875 -16.578125 "/></g></g></g><g fill="#ffffff" fill-opacity="1"><g transform="translate(170.392041, 39.528735)"><g><path d="M 1 -9.984375 C 1 -12.023438 1.382812 -13.816406 2.15625 -15.359375 C 2.925781 -16.898438 3.976562 -18.085938 5.3125 -18.921875 C 6.644531 -19.753906 8.128906 -20.171875 9.765625 -20.171875 C 11.171875 -20.171875 12.398438 -19.882812 13.453125 -19.3125 C 14.515625 -18.75 15.328125 -18.003906 15.890625 -17.078125 L 15.890625 -19.890625 L 21.984375 -19.890625 L 21.984375 0 L 15.890625 0 L 15.890625 -2.8125 C 15.296875 -1.882812 14.46875 -1.132812 13.40625 -0.5625 C 12.351562 0 11.128906 0.28125 9.734375 0.28125 C 8.117188 0.28125 6.644531 -0.140625 5.3125 -0.984375 C 3.976562 -1.828125 2.925781 -3.023438 2.15625 -4.578125 C 1.382812 -6.140625 1 -7.941406 1 -9.984375 Z M 15.890625 -9.9375 C 15.890625 -11.457031 15.46875 -12.65625 14.625 -13.53125 C 13.78125 -14.414062 12.753906 -14.859375 11.546875 -14.859375 C 10.335938 -14.859375 9.3125 -14.425781 8.46875 -13.5625 C 7.625 -12.695312 7.203125 -11.503906 7.203125 -9.984375 C 7.203125 -8.460938 7.625 -7.253906 8.46875 -6.359375 C 9.3125 -5.472656 10.335938 -5.03125 11.546875 -5.03125 C 12.753906 -5.03125 13.78125 -5.46875 14.625 -6.34375 C 15.46875 -7.21875 15.890625 -8.414062 15.890625 -9.9375 Z M 15.890625 -9.9375 "/></g></g></g><g clip-path="url(#b680d80a7d)"><path fill="#08cb00" d="M 73.574219 26.3125 C 49.136719 27.074219 47.328125 37.183594 48.160156 42.640625 C 52.625 37.097656 59.15625 35.25 59.371094 35.191406 C 51.683594 39.117188 45.964844 45.132812 44.648438 56.304688 C 44.347656 58.859375 48.304688 58.96875 48.136719 56.398438 C 47.941406 53.445312 48.625 50.046875 50.34375 46.703125 C 67.3125 55.066406 73.21875 31.714844 74.210938 27.078125 C 74.296875 26.679688 73.984375 26.304688 73.574219 26.3125 Z M 73.574219 26.3125 " fill-opacity="1" fill-rule="nonzero"/></g><g clip-path="url(#7f4756ab6e)"><path fill="#08cb00" d="M 47.855469 31.453125 C 50.453125 28.328125 54.503906 26.042969 59.957031 24.609375 C 59.882812 24.535156 59.808594 24.457031 59.734375 24.378906 C 58.695312 23.320312 57.371094 22.890625 56.097656 22.480469 C 55.269531 22.214844 54.496094 21.960938 53.863281 21.566406 C 51.726562 20.214844 51.277344 17.109375 51.9375 14.871094 C 52.621094 12.539062 54.152344 10.664062 55.828125 8.910156 C 60.808594 12.203125 64.398438 17.429688 65.507812 23.511719 C 66.863281 23.320312 68.289062 23.164062 69.777344 23.054688 C 67.644531 10.527344 56.710938 0.953125 43.574219 0.953125 C 28.921875 0.953125 17 12.878906 17 27.53125 C 17 41.476562 27.800781 52.953125 41.484375 54.027344 C 41.71875 52.546875 42.039062 51.136719 42.4375 49.792969 C 40.089844 49.675781 37.84375 49.195312 35.738281 48.402344 C 38.839844 46.429688 41.808594 44.261719 44.59375 41.90625 C 44.292969 37.988281 45.40625 34.394531 47.855469 31.453125 Z M 41.484375 25.851562 C 40.753906 27.015625 40.003906 28.21875 39.839844 29.695312 C 39.746094 30.617188 39.886719 31.503906 40.03125 32.359375 C 40.214844 33.457031 40.367188 34.40625 39.957031 35.109375 C 39.785156 35.40625 39.355469 35.917969 38.511719 35.988281 C 37.738281 36.054688 36.109375 35.765625 33.863281 33.105469 C 30.09375 28.65625 27.453125 28.554688 25.121094 28.464844 C 23.808594 28.414062 22.660156 28.363281 21.28125 27.492188 C 21.300781 15.652344 30.597656 5.953125 42.273438 5.269531 C 42.152344 6.679688 41.289062 8.253906 40.496094 9.691406 C 39.707031 11.140625 39.015625 12.382812 38.988281 13.535156 C 38.941406 15.5625 40.035156 17.1875 41.09375 18.757812 C 42.019531 20.144531 42.894531 21.449219 42.808594 22.816406 C 42.742188 23.839844 42.125 24.816406 41.484375 25.851562 Z M 41.484375 25.851562 " fill-opacity="1" fill-rule="nonzero"/></g></svg>