<svg xmlns="http://www.w3.org/2000/svg" xmlns:xlink="http://www.w3.org/1999/xlink" width="330" zoomAndPan="magnify" viewBox="0 0 247.92 67.92" height="80" preserveAspectRatio="xMidYMid meet" version="1.0"><defs><g/><clipPath id="c8afb6f1ce"><path d="M 20 1.5 L 75 1.5 L 75 58 L 20 58 Z M 20 1.5 " clip-rule="nonzero"/></clipPath><clipPath id="c3bbca7214"><path d="M 9.035156 15 L 25 15 L 25 30 L 9.035156 30 Z M 9.035156 15 " clip-rule="nonzero"/></clipPath></defs><g fill="#ffffff" fill-opacity="1"><g transform="translate(100.247523, 45.12156)"><g><path d="M 18.03125 -24.84375 L 18.03125 -22.203125 L 11.265625 -22.203125 L 11.265625 0 L 8.015625 0 L 8.015625 -22.203125 L 1.21875 -22.203125 L 1.21875 -24.84375 Z M 18.03125 -24.84375 "/></g></g></g><g fill="#ffffff" fill-opacity="1"><g transform="translate(121.305197, 45.12156)"><g><path d="M 20.5625 -10.515625 C 20.5625 -9.898438 20.523438 -9.242188 20.453125 -8.546875 L 4.84375 -8.546875 C 4.96875 -6.628906 5.628906 -5.128906 6.828125 -4.046875 C 8.023438 -2.960938 9.476562 -2.421875 11.1875 -2.421875 C 12.59375 -2.421875 13.765625 -2.75 14.703125 -3.40625 C 15.640625 -4.0625 16.300781 -4.929688 16.6875 -6.015625 L 20.171875 -6.015625 C 19.648438 -4.140625 18.601562 -2.613281 17.03125 -1.4375 C 15.46875 -0.257812 13.519531 0.328125 11.1875 0.328125 C 9.332031 0.328125 7.675781 -0.0859375 6.21875 -0.921875 C 4.757812 -1.753906 3.613281 -2.9375 2.78125 -4.46875 C 1.945312 -6 1.53125 -7.773438 1.53125 -9.796875 C 1.53125 -11.816406 1.929688 -13.585938 2.734375 -15.109375 C 3.546875 -16.628906 4.679688 -17.800781 6.140625 -18.625 C 7.609375 -19.445312 9.289062 -19.859375 11.1875 -19.859375 C 13.039062 -19.859375 14.679688 -19.453125 16.109375 -18.640625 C 17.535156 -17.828125 18.632812 -16.710938 19.40625 -15.296875 C 20.175781 -13.890625 20.5625 -12.296875 20.5625 -10.515625 Z M 17.21875 -11.1875 C 17.21875 -12.425781 16.941406 -13.488281 16.390625 -14.375 C 15.847656 -15.269531 15.109375 -15.945312 14.171875 -16.40625 C 13.234375 -16.875 12.191406 -17.109375 11.046875 -17.109375 C 9.410156 -17.109375 8.015625 -16.582031 6.859375 -15.53125 C 5.703125 -14.488281 5.039062 -13.039062 4.875 -11.1875 Z M 17.21875 -11.1875 "/></g></g></g><g fill="#ffffff" fill-opacity="1"><g transform="translate(145.17764, 45.12156)"><g><path d="M 5.984375 -16.359375 C 6.554688 -17.472656 7.367188 -18.335938 8.421875 -18.953125 C 9.484375 -19.578125 10.773438 -19.890625 12.296875 -19.890625 L 12.296875 -16.53125 L 11.4375 -16.53125 C 7.800781 -16.53125 5.984375 -14.5625 5.984375 -10.625 L 5.984375 0 L 2.75 0 L 2.75 -19.53125 L 5.984375 -19.53125 Z M 5.984375 -16.359375 "/></g></g></g><g fill="#ffffff" fill-opacity="1"><g transform="translate(160.249471, 45.12156)"><g><path d="M 5.984375 -16.359375 C 6.554688 -17.472656 7.367188 -18.335938 8.421875 -18.953125 C 9.484375 -19.578125 10.773438 -19.890625 12.296875 -19.890625 L 12.296875 -16.53125 L 11.4375 -16.53125 C 7.800781 -16.53125 5.984375 -14.5625 5.984375 -10.625 L 5.984375 0 L 2.75 0 L 2.75 -19.53125 L 5.984375 -19.53125 Z M 5.984375 -16.359375 "/></g></g></g><g fill="#ffffff" fill-opacity="1"><g transform="translate(175.321303, 45.12156)"><g><path d="M 1.53125 -9.84375 C 1.53125 -11.832031 1.929688 -13.582031 2.734375 -15.09375 C 3.546875 -16.601562 4.660156 -17.773438 6.078125 -18.609375 C 7.492188 -19.441406 9.066406 -19.859375 10.796875 -19.859375 C 12.503906 -19.859375 13.988281 -19.488281 15.25 -18.75 C 16.507812 -18.007812 17.445312 -17.082031 18.0625 -15.96875 L 18.0625 -19.53125 L 21.34375 -19.53125 L 21.34375 0 L 18.0625 0 L 18.0625 -3.640625 C 17.425781 -2.492188 16.472656 -1.546875 15.203125 -0.796875 C 13.929688 -0.046875 12.453125 0.328125 10.765625 0.328125 C 9.023438 0.328125 7.453125 -0.0976562 6.046875 -0.953125 C 4.648438 -1.816406 3.546875 -3.019531 2.734375 -4.5625 C 1.929688 -6.101562 1.53125 -7.863281 1.53125 -9.84375 Z M 18.0625 -9.796875 C 18.0625 -11.273438 17.765625 -12.5625 17.171875 -13.65625 C 16.578125 -14.75 15.773438 -15.582031 14.765625 -16.15625 C 13.765625 -16.738281 12.65625 -17.03125 11.4375 -17.03125 C 10.226562 -17.03125 9.125 -16.742188 8.125 -16.171875 C 7.125 -15.609375 6.328125 -14.78125 5.734375 -13.6875 C 5.140625 -12.59375 4.84375 -11.3125 4.84375 -9.84375 C 4.84375 -8.34375 5.140625 -7.039062 5.734375 -5.9375 C 6.328125 -4.832031 7.125 -3.988281 8.125 -3.40625 C 9.125 -2.820312 10.226562 -2.53125 11.4375 -2.53125 C 12.65625 -2.53125 13.765625 -2.820312 14.765625 -3.40625 C 15.773438 -3.988281 16.578125 -4.832031 17.171875 -5.9375 C 17.765625 -7.039062 18.0625 -8.328125 18.0625 -9.796875 Z M 18.0625 -9.796875 "/></g></g></g><path fill="#08cb00" d="M 65.949219 18.726562 C 66.328125 19.125 66.171875 19 65.695312 18.539062 L 65.664062 18.570312 C 65.742188 18.664062 65.789062 18.808594 65.835938 18.917969 C 65.550781 18.695312 65.265625 18.347656 64.914062 18.171875 C 64.898438 18.140625 64.914062 18.09375 64.914062 18.058594 C 64.566406 18.011719 64.453125 17.742188 64.121094 17.695312 C 64.230469 17.804688 65.089844 18.394531 64.582031 18.472656 C 64.628906 18.554688 64.660156 18.695312 64.726562 18.742188 C 64.707031 18.742188 64.691406 18.742188 64.675781 18.742188 C 64.535156 18.601562 64.34375 18.488281 64.183594 18.378906 C 64.214844 18.503906 64.246094 18.648438 64.3125 18.742188 C 64.183594 18.664062 64.023438 18.632812 63.882812 18.632812 C 63.914062 18.695312 63.898438 18.726562 63.914062 18.792969 C 63.898438 18.777344 63.882812 18.742188 63.867188 18.726562 C 63.785156 18.871094 63.675781 18.964844 63.515625 19 C 63.675781 19.125 63.769531 19.285156 63.675781 19.460938 C 63.628906 19.460938 63.566406 19.476562 63.515625 19.476562 C 63.546875 19.523438 63.582031 19.664062 63.644531 19.730469 C 63.421875 19.730469 63.292969 19.855469 63.375 20.09375 C 63.183594 20.125 63.167969 20.300781 63.292969 20.476562 C 63.292969 20.539062 63.292969 20.667969 63.324219 20.777344 C 62.960938 20.382812 62.769531 19.984375 62.402344 19.664062 C 62.578125 19.761719 62.769531 19.699219 63.007812 19.714844 C 63.292969 19.410156 62.085938 18.378906 61.753906 18.394531 C 61.640625 18.300781 61.578125 18.28125 61.546875 18.125 C 61.054688 18.15625 60.78125 17.839844 60.433594 17.582031 C 60.242188 17.441406 59.464844 16.933594 59.558594 17.582031 C 59.464844 17.550781 59.398438 17.582031 59.304688 17.566406 C 59.257812 17.617188 59.195312 17.679688 59.160156 17.742188 C 59.179688 17.789062 59.210938 17.789062 59.210938 17.839844 C 58.90625 18.078125 59.144531 18.539062 58.921875 18.777344 C 59.082031 19.203125 58.957031 19.761719 58.796875 20.160156 C 59.335938 21.128906 57.398438 20.953125 59.019531 23.210938 C 59.160156 23.128906 59.273438 23.003906 59.289062 22.859375 C 59.558594 22.890625 59.542969 23.402344 59.859375 23.257812 C 60.050781 23.65625 60.289062 24.101562 60.003906 24.496094 C 60.511719 24.417969 60.640625 23.957031 61.023438 23.78125 C 61.003906 23.289062 60.496094 23.367188 60.800781 22.84375 C 60.957031 22.558594 61.242188 22.257812 60.71875 22.175781 C 60.671875 22.207031 60.625 22.222656 60.578125 22.242188 C 60.257812 21.921875 60.257812 21.875 60.496094 21.542969 C 60.417969 21.128906 60.542969 20.890625 60.578125 20.460938 C 60.578125 20.316406 60.5625 19.96875 60.671875 19.902344 C 60.703125 19.96875 60.78125 20.03125 60.816406 20.078125 C 60.863281 20.046875 60.941406 20.015625 60.988281 19.984375 C 61.003906 20.015625 61.023438 20.046875 61.039062 20.0625 C 61.085938 20.0625 61.070312 20.03125 61.117188 20.03125 C 61.402344 20.316406 60.957031 20.699219 60.941406 20.96875 C 60.941406 21.253906 61.195312 21.429688 61.039062 21.761719 C 61.210938 21.953125 61.277344 22.367188 61.5625 22.320312 C 61.578125 22.414062 61.671875 22.480469 61.703125 22.542969 C 61.878906 22.398438 62.070312 22.242188 62.246094 22.445312 C 62.515625 22.304688 62.738281 22.414062 62.753906 22.75 C 62.546875 22.71875 62.324219 22.558594 62.132812 22.75 C 62.007812 22.683594 61.960938 22.75 61.847656 22.78125 C 61.832031 23.019531 62.101562 23.035156 62.199219 23.257812 C 62.292969 23.464844 62.183594 23.671875 62.277344 23.878906 C 62.164062 23.71875 62.023438 23.574219 61.925781 23.417969 C 61.878906 23.402344 61.863281 23.449219 61.816406 23.464844 C 61.785156 23.433594 61.769531 23.367188 61.703125 23.367188 C 61.386719 23.640625 62.007812 23.847656 61.738281 24.242188 C 61.816406 24.402344 61.769531 24.480469 61.640625 24.578125 C 61.417969 24.625 61.53125 24.925781 61.515625 25.132812 C 61.433594 24.800781 61.148438 24.6875 60.863281 24.75 C 60.703125 24.785156 60.703125 24.925781 60.542969 24.925781 C 60.433594 24.925781 60.273438 24.816406 60.132812 24.800781 C 60.035156 24.65625 59.925781 24.527344 59.796875 24.417969 C 59.910156 24.066406 59.640625 23.589844 59.304688 23.574219 C 59.195312 23.765625 59.320312 23.957031 59.210938 24.085938 C 59.320312 24.179688 59.433594 24.304688 59.480469 24.464844 C 59.640625 24.546875 59.605469 24.703125 59.542969 24.800781 C 59.6875 24.941406 59.640625 24.972656 59.511719 25.085938 C 59.210938 24.925781 59.019531 25.277344 58.890625 25.53125 C 58.875 25.515625 58.84375 25.515625 58.8125 25.515625 C 58.605469 26.53125 58.035156 26.230469 57.984375 26.882812 C 57.730469 26.832031 57.382812 26.722656 57.316406 27.007812 C 57.160156 26.992188 57.078125 27.023438 56.984375 27.089844 C 57.414062 27.390625 58.144531 27.660156 57.589844 28.28125 C 57.796875 28.472656 57.859375 28.710938 57.8125 28.980469 C 57.300781 28.660156 56.714844 28.644531 56.175781 28.789062 C 55.96875 29.058594 56.683594 29.488281 56.175781 29.597656 C 56.269531 30.09375 56.09375 30.457031 56.175781 30.964844 C 56.316406 30.964844 56.652344 30.742188 56.746094 30.808594 C 57.0625 31.125 56.476562 31.902344 56.285156 32.222656 C 56.300781 32.253906 56.300781 32.285156 56.300781 32.316406 L 56.285156 32.316406 C 56.398438 33 55.695312 32.476562 55.507812 33.460938 C 55.378906 33.554688 55.347656 33.621094 55.285156 33.777344 C 55.234375 33.777344 55.171875 33.761719 55.125 33.761719 C 54.839844 34.207031 53.835938 35.367188 54.410156 35.6875 C 54.347656 35.988281 54.171875 36.257812 54.140625 36.578125 C 54.140625 36.703125 54.28125 36.65625 54.265625 36.816406 C 54.25 36.894531 54.140625 36.910156 54.140625 36.957031 C 54.125 37.101562 54.09375 37.433594 54.027344 37.53125 C 54.15625 37.769531 54.15625 38.164062 54.332031 38.355469 C 54.457031 38.484375 54.585938 38.386719 54.710938 38.515625 C 54.964844 38.882812 54.949219 39.359375 55.332031 39.644531 C 55.347656 39.644531 55.617188 39.722656 55.664062 39.753906 C 56.363281 40.296875 57.222656 39.53125 58 39.785156 C 58.144531 39.769531 58.257812 39.628906 58.398438 39.644531 C 58.8125 39.707031 58.511719 40.121094 58.796875 40.28125 C 59.398438 39.644531 59.75 40.789062 59.558594 41.21875 C 59.433594 41.503906 59.195312 41.695312 59.304688 42.042969 C 59.417969 42.378906 59.734375 42.585938 59.796875 42.980469 C 59.84375 43.265625 59.894531 43.792969 59.84375 44.0625 C 59.574219 44.746094 59.195312 44.347656 59.226562 45.316406 C 58.84375 45.828125 59.128906 46.492188 59.226562 47.066406 C 59.289062 47.574219 59.179688 48.097656 59.226562 48.609375 C 59.542969 49.546875 59.703125 48.941406 59.382812 50.132812 C 59.417969 50.132812 59.589844 50.132812 59.640625 50.132812 C 59.894531 49.703125 60.148438 49.957031 60.464844 49.992188 C 60.972656 50.054688 61.070312 49.785156 61.449219 49.480469 C 62.132812 49.085938 62.117188 48.386719 62.5625 47.78125 C 63.375 48.449219 63.070312 47.128906 63.136719 46.714844 C 63.375 46.476562 63.34375 46.414062 63.707031 46.351562 C 64.296875 45.921875 65.027344 45.238281 64.613281 44.476562 C 64.882812 44 64.867188 43.378906 65.058594 42.871094 C 65.296875 42.203125 66.234375 41.917969 66.617188 41.296875 C 66.710938 40.867188 66.679688 40.980469 67.0625 40.722656 C 67.617188 40.246094 67.871094 39.421875 68.109375 38.785156 C 68.09375 38.769531 68.0625 38.769531 68.0625 38.738281 C 67.824219 38.707031 67.316406 39.375 67.078125 38.992188 C 67.078125 38.992188 67.027344 39.023438 66.996094 38.992188 C 67.046875 38.640625 66.664062 38.660156 66.949219 38.292969 C 66.648438 38.132812 66.488281 38.277344 66.21875 37.976562 C 66.011719 37.753906 65.867188 37.464844 65.867188 37.164062 C 65.867188 36.71875 65.964844 36.671875 65.773438 36.242188 C 65.597656 35.859375 65.566406 35.527344 65.648438 35.128906 C 65.265625 34.90625 65.628906 34.476562 65.34375 34.144531 C 65.375 34.113281 65.425781 34.082031 65.457031 34.050781 C 65.488281 34.335938 65.695312 34.273438 65.820312 34.460938 C 65.964844 34.667969 65.980469 34.890625 66.058594 35.113281 C 66.21875 35.527344 66.664062 35.925781 66.441406 36.371094 C 66.679688 36.941406 66.632812 37.785156 67.027344 38.292969 C 67.15625 38.199219 67.285156 38.085938 67.394531 37.976562 C 67.617188 38.183594 68.683594 37.59375 68.90625 37.355469 C 69.09375 37.164062 69.207031 36.832031 69.351562 36.578125 C 69.460938 36.386719 69.714844 36.066406 69.667969 35.796875 C 69.046875 35.417969 69.554688 35.226562 69.269531 34.890625 C 69.191406 35.128906 68.9375 35.128906 68.839844 35.398438 C 68.363281 35.351562 68.316406 34.765625 68.222656 34.414062 C 68.0625 34.304688 67.984375 34.128906 68.125 33.9375 C 68.078125 33.667969 67.746094 33.605469 67.902344 33.382812 C 68.15625 33.523438 68.253906 33.777344 68.570312 33.777344 C 68.699219 34.429688 68.570312 34.558594 69.285156 34.71875 C 69.777344 35.003906 70.398438 35.304688 70.921875 35.496094 C 71.160156 36.097656 70.90625 36.132812 71.464844 36.78125 C 71.496094 36.832031 71.527344 36.878906 71.542969 36.925781 C 72.558594 29.773438 69.351562 21.796875 65.949219 18.726562 Z M 65.089844 29.425781 C 64.914062 29.457031 64.929688 29.664062 64.789062 29.695312 C 64.660156 29.726562 64.597656 29.582031 64.421875 29.664062 C 64.265625 29.742188 64.3125 29.851562 64.105469 29.871094 C 63.960938 29.886719 63.882812 29.820312 63.753906 29.835938 C 63.722656 30.058594 63.914062 30.234375 63.835938 30.457031 C 63.914062 30.488281 63.976562 30.554688 64.074219 30.554688 C 64.230469 30.871094 64.136719 31.03125 64.519531 31.234375 C 64.535156 31.234375 64.535156 31.234375 64.550781 31.234375 C 64.945312 30.902344 65.3125 31.746094 65.566406 31.140625 C 65.710938 31.507812 65.582031 31.761719 65.425781 32.078125 C 65.359375 32.332031 65.425781 33 64.980469 32.761719 C 64.964844 33.191406 64.136719 32.714844 63.929688 32.683594 C 63.375 32.699219 63.453125 32.667969 63.121094 32.269531 C 63.105469 32.316406 63.007812 32.363281 62.976562 32.414062 C 62.882812 32.332031 62.769531 32.300781 62.660156 32.347656 C 62.691406 32.523438 62.722656 33.097656 62.402344 32.921875 C 62.214844 32.777344 62.199219 32.808594 61.992188 32.824219 C 61.847656 32.777344 61.703125 32.636719 61.722656 32.476562 C 61.546875 32.414062 61.402344 32.238281 61.355469 32.0625 C 61.277344 32.140625 61.117188 32.175781 61.003906 32.175781 C 60.816406 32.015625 60.847656 31.886719 60.5625 31.839844 C 60.496094 31.714844 60.542969 31.617188 60.671875 31.570312 C 60.6875 31.457031 60.640625 31.378906 60.5625 31.316406 C 60.625 31.15625 60.59375 30.871094 60.609375 30.695312 C 60.195312 30.902344 59.765625 30.773438 59.335938 30.808594 C 58.90625 30.917969 58.496094 31.078125 58.082031 31.316406 C 58.066406 31.300781 58.035156 31.269531 58.019531 31.253906 C 57.523438 31.617188 56.539062 30.773438 57.828125 30.871094 C 57.828125 30.757812 57.96875 30.617188 57.984375 30.488281 C 57.984375 30.519531 57.984375 30.535156 57.984375 30.554688 C 58.066406 30.472656 58.160156 30.394531 58.207031 30.363281 C 58.175781 30.25 58.191406 30.1875 58.289062 30.109375 C 58.304688 30.125 58.320312 30.125 58.335938 30.125 C 58.367188 30.042969 58.382812 29.917969 58.398438 29.835938 C 58.320312 29.648438 58.667969 29.375 58.84375 29.375 C 58.875 29.3125 58.941406 29.265625 58.972656 29.234375 C 59.050781 29.074219 58.796875 28.503906 59.082031 28.691406 C 59.226562 28.472656 59.558594 28.675781 59.71875 28.820312 C 59.71875 28.804688 59.71875 28.789062 59.734375 28.773438 C 59.925781 28.835938 59.988281 28.644531 59.972656 28.488281 C 60.082031 28.503906 60.164062 28.421875 60.289062 28.488281 C 60.304688 28.582031 60.339844 28.660156 60.371094 28.757812 C 60.671875 28.804688 60.640625 29.28125 61.003906 29.296875 C 60.765625 29.648438 61.371094 29.804688 61.515625 29.996094 C 61.433594 30.109375 61.464844 30.125 61.515625 30.21875 C 61.449219 30.601562 60.734375 30.441406 60.816406 30.664062 C 61.039062 30.726562 61.339844 30.996094 61.5625 30.996094 C 61.5625 30.902344 61.53125 30.808594 61.480469 30.726562 C 61.515625 30.742188 61.53125 30.742188 61.5625 30.757812 C 61.578125 30.742188 61.609375 30.726562 61.625 30.742188 C 61.625 30.425781 62.132812 30.265625 61.816406 30.011719 C 61.832031 29.996094 61.832031 29.964844 61.832031 29.933594 C 61.925781 29.996094 62.023438 30.027344 62.132812 30.027344 C 62.132812 29.804688 61.925781 29.566406 61.847656 29.375 C 61.769531 29.296875 61.59375 29.3125 61.5 29.265625 C 61.402344 29.203125 61.402344 29.089844 61.261719 29.058594 C 61.210938 28.949219 61.117188 28.882812 61.085938 28.789062 C 61.054688 28.726562 61.054688 28.550781 61.023438 28.503906 C 60.925781 28.359375 60.640625 28.40625 60.78125 28.152344 C 60.800781 28.152344 60.816406 28.152344 60.832031 28.167969 C 60.863281 28.058594 60.910156 28.011719 61.003906 27.976562 C 61.070312 27.992188 61.132812 28.027344 61.164062 28.058594 C 61.117188 28.152344 61.117188 28.265625 61.148438 28.359375 C 61.292969 28.296875 61.355469 28.421875 61.480469 28.472656 C 61.464844 28.835938 61.847656 28.980469 62.039062 29.21875 C 62.148438 29.1875 62.261719 29.25 62.324219 29.328125 C 62.261719 29.472656 62.371094 29.949219 62.5 30.011719 C 62.515625 30.042969 62.515625 30.109375 62.53125 30.140625 C 62.546875 30.457031 62.4375 30.503906 62.675781 30.726562 C 62.847656 30.886719 62.976562 31.0625 63.121094 31.253906 C 63.136719 31.21875 63.136719 31.15625 63.136719 31.125 C 63.167969 31.125 63.214844 31.140625 63.246094 31.125 C 63.199219 31.011719 63.167969 30.917969 63.167969 30.792969 C 63.261719 30.808594 63.308594 30.773438 63.390625 30.773438 C 63.453125 30.535156 63.121094 30.332031 63.324219 30.171875 C 63.277344 30.09375 63.261719 29.996094 63.214844 29.933594 C 63.292969 29.789062 63.421875 29.835938 63.546875 29.820312 C 63.613281 29.820312 63.644531 29.902344 63.707031 29.886719 C 63.769531 29.886719 63.804688 29.773438 63.804688 29.757812 C 64.136719 29.710938 64.246094 29.726562 64.230469 29.328125 C 63.546875 29.328125 64.4375 27.992188 64.390625 27.789062 C 64.390625 27.789062 64.453125 27.820312 64.4375 27.820312 C 64.421875 27.867188 64.40625 27.882812 64.40625 27.929688 C 64.566406 27.945312 64.691406 28.058594 64.789062 28.183594 C 64.996094 28.199219 64.804688 28.550781 64.945312 28.691406 C 65.027344 28.535156 65.121094 28.390625 65.328125 28.453125 C 65.550781 28.214844 65.167969 28.121094 65.058594 27.960938 C 65.058594 27.960938 65.089844 27.914062 65.089844 27.914062 C 65.328125 28.027344 65.566406 27.753906 65.757812 27.628906 C 65.679688 27.691406 65.710938 27.835938 65.664062 27.960938 C 65.441406 27.976562 65.390625 28.488281 65.597656 28.503906 C 65.679688 28.867188 66.109375 29.058594 66.3125 29.3125 C 66.503906 30.140625 65.359375 29.375 65.089844 29.425781 Z M 65.089844 29.425781 " fill-opacity="1" fill-rule="nonzero"/><path fill="#08cb00" d="M 39.4375 15.390625 C 39.34375 15.390625 39.261719 15.484375 39.183594 15.515625 C 39.199219 15.535156 39.214844 15.535156 39.230469 15.550781 C 39.328125 15.484375 39.421875 15.421875 39.535156 15.359375 C 39.5 15.375 39.46875 15.390625 39.4375 15.390625 Z M 39.4375 15.390625 " fill-opacity="1" fill-rule="nonzero"/><path fill="#08cb00" d="M 39.898438 15.152344 C 40.058594 15.054688 40.21875 14.960938 40.375 14.882812 C 40.34375 14.882812 40.3125 14.867188 40.296875 14.867188 C 40.136719 14.945312 39.996094 15.007812 39.898438 15.152344 Z M 39.898438 15.152344 " fill-opacity="1" fill-rule="nonzero"/><path fill="#08cb00" d="M 41.203125 14.835938 C 41.21875 14.738281 41.140625 14.628906 41.1875 14.546875 C 40.980469 14.882812 40.933594 14.753906 40.613281 14.753906 C 40.519531 14.785156 40.457031 14.882812 40.359375 14.867188 C 39.980469 15.089844 39.613281 15.328125 39.230469 15.550781 C 39.375 15.628906 39.535156 15.738281 39.675781 15.644531 C 39.804688 15.566406 39.945312 15.3125 39.980469 15.167969 C 40.089844 15.167969 40.21875 15.121094 40.328125 15.136719 C 40.34375 15.136719 40.359375 15.089844 40.421875 15.105469 C 40.4375 15.152344 40.457031 15.261719 40.488281 15.296875 C 40.566406 15.359375 40.644531 15.214844 40.710938 15.277344 C 40.742188 15.3125 40.726562 15.484375 40.742188 15.550781 C 40.789062 15.675781 40.851562 15.628906 40.882812 15.484375 C 40.898438 15.40625 40.835938 15.277344 40.851562 15.214844 C 40.964844 15.054688 41.171875 15.007812 41.203125 14.835938 Z M 41.203125 14.835938 " fill-opacity="1" fill-rule="nonzero"/><path fill="#08cb00" d="M 36.65625 18.933594 C 36.734375 18.949219 36.832031 18.949219 36.925781 18.933594 C 36.925781 18.949219 36.941406 18.964844 36.941406 18.964844 C 37.007812 18.933594 37.179688 18.886719 37.246094 18.902344 C 37.246094 18.886719 37.246094 18.886719 37.261719 18.871094 C 37.308594 18.871094 37.339844 18.839844 37.355469 18.808594 C 37.4375 18.824219 37.515625 18.726562 37.546875 18.695312 C 37.5625 18.617188 37.929688 18.503906 37.976562 18.617188 C 37.992188 18.601562 38.023438 18.601562 38.039062 18.570312 C 38.054688 18.585938 38.070312 18.585938 38.085938 18.601562 C 38.292969 18.472656 38.484375 18.695312 38.675781 18.695312 C 38.691406 18.664062 38.707031 18.664062 38.722656 18.632812 C 38.738281 18.632812 38.753906 18.632812 38.769531 18.632812 C 38.800781 18.503906 38.691406 18.378906 38.722656 18.25 C 38.816406 18.25 38.914062 18.28125 39.007812 18.28125 C 39.136719 18.28125 39.296875 18.09375 39.089844 18.078125 C 39.074219 17.917969 39.074219 17.871094 38.914062 17.804688 C 39.007812 17.597656 38.816406 17.3125 39.007812 17.136719 C 39.152344 17.105469 39.121094 16.917969 39.167969 16.898438 C 39.199219 16.773438 39.199219 16.613281 39.3125 16.535156 C 39.359375 16.40625 39.5 16.328125 39.46875 16.167969 C 39.375 16.136719 39.375 16.234375 39.3125 16.28125 C 39.246094 16.328125 39.183594 16.3125 39.136719 16.375 C 39.023438 16.265625 38.945312 16.472656 38.882812 16.519531 C 38.800781 16.597656 38.660156 16.597656 38.597656 16.695312 C 38.515625 16.789062 38.5625 16.949219 38.5 17.058594 C 38.421875 17.203125 38.308594 17.15625 38.324219 17.011719 C 38.292969 17.011719 38.246094 16.996094 38.214844 16.996094 C 38.199219 16.964844 38.199219 16.917969 38.183594 16.882812 C 38.117188 16.867188 38.054688 16.867188 37.976562 16.917969 C 37.914062 16.867188 37.863281 16.679688 37.960938 16.660156 C 37.976562 16.582031 37.960938 16.519531 37.960938 16.4375 C 37.960938 16.421875 37.960938 16.40625 37.960938 16.390625 C 37.976562 16.375 37.992188 16.359375 38.007812 16.34375 C 37.515625 16.726562 37.039062 17.105469 36.578125 17.535156 C 36.578125 17.535156 36.578125 17.535156 36.59375 17.535156 C 36.59375 17.550781 36.59375 17.566406 36.59375 17.582031 C 36.59375 17.617188 36.578125 17.648438 36.5625 17.679688 C 36.5625 17.695312 36.578125 17.695312 36.59375 17.695312 C 36.578125 17.742188 36.59375 17.804688 36.609375 17.839844 C 36.6875 17.839844 37.007812 17.804688 36.925781 17.949219 C 36.894531 17.996094 36.832031 17.996094 36.785156 18.027344 C 36.6875 18.140625 36.53125 18.1875 36.386719 18.1875 C 36.371094 18.265625 36.273438 18.28125 36.257812 18.363281 C 36.226562 18.570312 36.578125 18.554688 36.703125 18.519531 C 36.769531 18.679688 36.386719 18.808594 36.609375 18.933594 C 36.625 18.949219 36.625 18.949219 36.640625 18.964844 C 36.640625 18.964844 36.65625 18.949219 36.65625 18.933594 Z M 36.65625 18.933594 " fill-opacity="1" fill-rule="nonzero"/><path fill="#08cb00" d="M 45.367188 19.871094 C 45.492188 19.824219 45.558594 19.601562 45.683594 19.601562 C 45.683594 19.394531 45.652344 19.332031 45.460938 19.316406 C 45.429688 19.300781 45.367188 19.203125 45.335938 19.171875 C 45.304688 19.078125 45.285156 19.03125 45.175781 19.03125 C 44.984375 19.046875 45 18.808594 44.90625 18.679688 C 44.792969 18.554688 44.667969 18.585938 44.761719 18.378906 C 44.808594 18.347656 44.875 18.332031 44.921875 18.347656 C 44.890625 18.316406 44.875 18.265625 44.921875 18.25 C 44.90625 18.203125 44.859375 18.15625 44.875 18.09375 C 44.90625 18.078125 44.9375 17.871094 44.921875 17.820312 C 44.859375 17.820312 44.824219 17.757812 44.746094 17.757812 C 44.746094 17.664062 44.730469 17.648438 44.683594 17.582031 C 44.621094 17.488281 44.621094 17.550781 44.539062 17.488281 C 44.492188 17.457031 44.476562 17.425781 44.429688 17.410156 C 44.398438 17.425781 44.285156 17.394531 44.253906 17.394531 C 44.269531 17.15625 44.015625 17.074219 43.839844 17.011719 C 43.777344 16.851562 43.824219 16.503906 43.632812 16.488281 C 43.824219 16.296875 43.585938 16.167969 43.410156 16.121094 C 43.203125 16.121094 43.109375 16.199219 42.933594 16.042969 C 42.648438 16.183594 42.777344 16.105469 42.488281 16.058594 C 42.472656 15.945312 42.617188 15.867188 42.710938 15.867188 C 42.742188 15.757812 43.015625 15.722656 43.09375 15.722656 C 43.078125 15.535156 43.222656 15.582031 43.363281 15.582031 C 43.410156 15.566406 43.394531 15.550781 43.460938 15.535156 C 43.476562 15.421875 43.425781 15.359375 43.425781 15.261719 C 43.203125 15.359375 43.171875 15.214844 42.980469 15.199219 C 42.871094 15.214844 42.679688 15.214844 42.617188 15.074219 C 42.648438 15.007812 42.761719 14.929688 42.824219 14.882812 C 42.824219 14.867188 42.839844 14.835938 42.839844 14.816406 C 42.855469 14.816406 42.871094 14.816406 42.886719 14.816406 C 42.886719 14.800781 42.902344 14.800781 42.902344 14.785156 C 42.933594 14.785156 42.949219 14.769531 42.980469 14.753906 C 43.03125 14.707031 43.09375 14.660156 43.109375 14.578125 C 43.15625 14.5625 43.171875 14.53125 43.203125 14.484375 C 43.238281 14.484375 43.285156 14.484375 43.316406 14.484375 C 43.316406 14.515625 43.363281 14.546875 43.363281 14.578125 C 43.394531 14.578125 43.425781 14.597656 43.460938 14.578125 C 43.476562 14.597656 43.492188 14.597656 43.507812 14.613281 C 43.523438 14.53125 43.617188 14.546875 43.664062 14.515625 C 43.730469 14.484375 43.761719 14.453125 43.808594 14.421875 C 43.808594 14.40625 43.824219 14.375 43.824219 14.355469 C 43.839844 14.324219 43.871094 14.292969 43.9375 14.308594 C 43.9375 14.292969 43.953125 14.292969 43.953125 14.277344 C 44.015625 14.261719 44.078125 14.214844 44.144531 14.230469 C 44.160156 14.101562 44.125 14.054688 44.238281 13.960938 C 44.269531 13.960938 44.300781 13.960938 44.332031 13.960938 C 44.332031 13.945312 44.332031 13.929688 44.316406 13.929688 C 44.347656 13.914062 44.332031 13.914062 44.363281 13.914062 C 44.382812 13.847656 44.414062 13.847656 44.460938 13.832031 C 44.460938 13.816406 44.460938 13.800781 44.460938 13.785156 C 44.476562 13.785156 44.492188 13.785156 44.507812 13.785156 C 44.523438 13.738281 44.605469 13.675781 44.652344 13.691406 C 44.636719 13.65625 44.605469 13.59375 44.652344 13.578125 C 44.652344 13.53125 44.667969 13.5 44.714844 13.484375 C 44.808594 13.371094 44.859375 13.164062 44.667969 13.085938 C 44.714844 13.070312 44.746094 13.039062 44.777344 12.992188 C 44.792969 12.957031 44.808594 12.941406 44.84375 12.925781 C 44.84375 12.925781 44.859375 12.910156 44.859375 12.910156 C 44.859375 12.910156 44.859375 12.894531 44.859375 12.894531 C 44.300781 13.054688 43.761719 13.246094 43.222656 13.433594 C 43.222656 13.453125 43.238281 13.46875 43.253906 13.46875 C 43.253906 13.484375 43.238281 13.484375 43.238281 13.5 C 43.171875 13.59375 43.0625 13.625 43.109375 13.753906 C 43.125 13.785156 43.222656 13.894531 43.253906 13.914062 C 43.253906 13.976562 43.203125 14.070312 43.125 14.070312 C 43.046875 14.085938 43.03125 13.960938 42.949219 13.992188 C 42.839844 14.023438 42.917969 14.167969 42.886719 14.230469 C 42.777344 14.292969 42.761719 14.246094 42.710938 14.40625 C 42.554688 14.40625 42.617188 14.324219 42.503906 14.4375 C 42.394531 14.5625 42.28125 14.53125 42.125 14.546875 C 41.886719 14.691406 41.855469 14.375 41.648438 14.375 C 41.566406 14.484375 41.550781 14.390625 41.457031 14.375 C 41.394531 14.375 41.328125 14.4375 41.394531 14.484375 C 41.394531 14.546875 41.472656 14.59375 41.519531 14.644531 C 41.457031 14.691406 41.519531 14.753906 41.550781 14.785156 C 41.550781 14.867188 41.726562 14.914062 41.789062 14.898438 C 41.789062 14.898438 41.820312 14.929688 41.820312 14.929688 C 41.773438 15.074219 41.726562 15.054688 41.617188 15.039062 C 41.582031 15.167969 41.457031 15.183594 41.34375 15.183594 C 41.265625 15.328125 41.28125 15.46875 41.457031 15.535156 C 41.566406 15.582031 41.664062 15.550781 41.742188 15.675781 C 41.933594 15.582031 41.933594 15.882812 42.027344 15.945312 C 41.980469 16.042969 41.996094 16.074219 42.042969 16.167969 C 41.996094 16.199219 41.964844 16.25 42.011719 16.28125 C 42.027344 16.3125 42.027344 16.328125 42.042969 16.34375 C 42.042969 16.40625 42.171875 16.597656 42.011719 16.566406 C 42.042969 16.550781 42.042969 16.488281 42.027344 16.421875 C 41.949219 16.421875 41.902344 16.34375 41.886719 16.28125 C 41.757812 16.25 41.695312 16.519531 41.648438 16.582031 C 41.503906 16.742188 41.488281 16.898438 41.488281 17.121094 C 41.488281 17.21875 41.105469 17.519531 41.34375 17.519531 C 41.359375 17.582031 41.359375 17.648438 41.441406 17.679688 C 41.425781 17.710938 41.410156 17.757812 41.394531 17.773438 C 41.410156 17.789062 41.425781 17.804688 41.441406 17.820312 C 41.601562 17.820312 41.902344 17.886719 42.027344 17.871094 C 42.140625 17.949219 42.171875 18.011719 42.300781 18.011719 C 42.378906 18.042969 42.457031 18.140625 42.554688 18.109375 C 42.570312 18.027344 42.632812 18.058594 42.679688 17.996094 C 42.710938 17.964844 42.761719 17.871094 42.777344 17.820312 C 43 17.855469 43.015625 18.140625 43.078125 18.300781 C 43.140625 18.472656 43.253906 18.394531 43.347656 18.519531 C 43.441406 18.679688 43.507812 18.886719 43.554688 19.0625 C 43.554688 19.125 43.492188 19.15625 43.460938 19.203125 C 43.378906 19.316406 43.394531 19.425781 43.300781 19.523438 C 42.949219 19.761719 43.015625 19.648438 43.09375 20.03125 C 43.09375 20.015625 43.078125 20.015625 43.078125 20.015625 C 43.046875 20.046875 43.046875 20.09375 43.03125 20.125 C 42.871094 20.078125 42.777344 20.09375 42.648438 20.191406 C 42.570312 20.222656 42.523438 20.160156 42.441406 20.191406 C 42.378906 20.207031 42.378906 20.269531 42.265625 20.253906 C 42.265625 20.398438 42.125 20.460938 42.265625 20.570312 C 42.539062 20.730469 42.777344 20.382812 43.03125 20.746094 C 43.316406 20.792969 43.203125 20.953125 43.300781 21.113281 C 43.347656 21.160156 43.394531 21.175781 43.441406 21.160156 C 43.460938 21.175781 43.492188 21.222656 43.507812 21.238281 C 43.648438 21.335938 43.777344 21.320312 43.886719 21.460938 C 43.984375 21.621094 44.207031 21.667969 44.398438 21.636719 C 44.332031 21.445312 44.109375 21.507812 44.125 21.207031 C 44.0625 21.191406 43.855469 21.0625 43.839844 21 C 43.808594 20.859375 43.902344 20.824219 44 20.9375 C 44.0625 20.984375 44.109375 21 44.175781 21.015625 C 44.269531 21.0625 44.253906 21.191406 44.347656 21.191406 C 44.382812 21.253906 44.492188 21.222656 44.554688 21.269531 C 44.621094 21.304688 44.652344 21.398438 44.730469 21.414062 C 44.761719 21.320312 44.636719 21.222656 44.761719 21.175781 C 44.761719 21.160156 44.777344 21.128906 44.777344 21.113281 C 44.792969 21.113281 44.792969 21.097656 44.824219 21.082031 C 44.792969 20.761719 44.699219 20.90625 44.667969 20.746094 C 44.683594 20.621094 44.652344 20.507812 44.605469 20.382812 C 44.585938 20.316406 44.621094 20.222656 44.605469 20.175781 C 44.570312 20.109375 44.460938 20.109375 44.429688 20.0625 C 44.363281 19.984375 44.382812 19.730469 44.460938 19.664062 C 44.507812 19.714844 44.507812 19.777344 44.539062 19.839844 C 44.605469 19.824219 44.714844 19.808594 44.761719 19.855469 C 44.761719 20.015625 44.875 20.269531 45 20.363281 C 45.03125 20.285156 45.113281 20.269531 45.144531 20.191406 C 45.160156 20.125 45.097656 20.0625 45.113281 20.015625 C 45.207031 19.921875 45.304688 19.96875 45.367188 19.871094 Z M 45.367188 19.871094 " fill-opacity="1" fill-rule="nonzero"/><path fill="#08cb00" d="M 52.40625 17.550781 C 52.550781 17.394531 52.503906 17.203125 52.421875 17.011719 C 52.214844 16.597656 52.199219 16.742188 52.199219 16.234375 C 52.105469 16.136719 52.074219 16.042969 52.230469 16.011719 C 52.230469 15.996094 52.25 15.996094 52.25 15.976562 C 52.296875 15.960938 52.34375 15.929688 52.390625 15.914062 C 52.40625 15.835938 52.375 15.804688 52.359375 15.757812 C 52.390625 15.566406 52.40625 15.390625 52.183594 15.328125 C 52.167969 15.277344 52.199219 15.214844 52.214844 15.167969 C 52.3125 15.023438 52.296875 14.707031 52.105469 14.644531 C 51.976562 14.5625 52.027344 14.515625 51.992188 14.390625 C 51.882812 14.183594 52.011719 13.960938 51.882812 13.753906 C 51.820312 13.625 51.820312 13.609375 51.851562 13.5 C 51.945312 13.292969 51.484375 13.164062 51.660156 13.023438 C 51.675781 12.957031 51.722656 12.847656 51.753906 12.816406 C 51.753906 12.800781 51.753906 12.769531 51.773438 12.753906 C 51.851562 12.6875 51.945312 12.59375 51.882812 12.480469 C 51.851562 12.480469 51.820312 12.464844 51.804688 12.464844 C 51.804688 12.449219 51.804688 12.386719 51.789062 12.339844 C 51.753906 12.292969 51.722656 12.226562 51.738281 12.179688 C 51.199219 12.148438 50.644531 12.148438 50.101562 12.164062 C 50.660156 12.148438 51.199219 12.148438 51.738281 12.179688 C 51.738281 12.179688 51.738281 12.179688 51.738281 12.164062 C 51.753906 12.164062 51.773438 12.164062 51.789062 12.164062 C 51.804688 12.132812 51.820312 12.117188 51.835938 12.085938 C 49.992188 11.988281 48.101562 12.148438 46.351562 12.511719 C 46.335938 12.546875 46.320312 12.5625 46.304688 12.59375 C 46.957031 12.449219 47.625 12.339844 48.308594 12.273438 C 47.625 12.355469 46.957031 12.464844 46.304688 12.59375 C 46.160156 12.769531 46.050781 13.039062 45.8125 13.101562 C 45.699219 13.148438 45.683594 13.261719 45.574219 13.308594 C 45.414062 13.355469 45.238281 13.484375 45.0625 13.433594 C 45.0625 13.484375 45.046875 13.53125 45 13.5625 C 45.03125 13.65625 45.160156 13.691406 45.238281 13.722656 C 45.238281 13.769531 45.238281 13.785156 45.269531 13.816406 C 45.238281 14.085938 45.507812 14.355469 45.367188 14.613281 C 45.683594 14.59375 45.460938 14.867188 45.683594 14.835938 C 45.746094 14.769531 45.84375 14.722656 45.890625 14.660156 C 45.953125 14.578125 45.921875 14.546875 46.019531 14.5 C 46.050781 14.53125 46.050781 14.515625 46.082031 14.53125 C 46.097656 14.5625 46.113281 14.5625 46.128906 14.59375 C 46.175781 14.5625 46.175781 14.578125 46.226562 14.5625 C 46.242188 14.53125 46.257812 14.53125 46.273438 14.484375 C 46.367188 14.484375 46.464844 14.53125 46.511719 14.613281 C 46.496094 14.675781 46.589844 14.785156 46.652344 14.785156 C 46.667969 14.800781 46.667969 14.800781 46.6875 14.816406 C 46.703125 14.898438 46.6875 15.089844 46.796875 15.054688 C 46.796875 15.074219 46.8125 15.089844 46.8125 15.089844 C 46.828125 15.074219 46.828125 15.074219 46.84375 15.074219 C 46.859375 15.089844 46.890625 15.121094 46.890625 15.121094 C 46.71875 15.246094 46.90625 15.46875 46.988281 15.582031 C 46.988281 15.628906 47.003906 15.675781 47.050781 15.707031 C 47.066406 15.804688 46.988281 15.898438 46.90625 15.945312 C 46.925781 15.996094 46.988281 16.21875 47.019531 16.21875 C 47.035156 16.28125 46.988281 16.3125 46.925781 16.328125 C 46.925781 16.34375 46.941406 16.359375 46.941406 16.359375 C 46.84375 16.519531 46.925781 16.519531 47.035156 16.628906 C 47.035156 16.695312 47.050781 16.757812 47.097656 16.773438 C 47.113281 16.964844 47.003906 16.980469 46.925781 17.089844 C 47.210938 17.550781 47.148438 17.027344 47.449219 16.980469 C 47.449219 17.105469 47.449219 17.136719 47.542969 17.203125 C 47.640625 17.265625 47.640625 17.234375 47.625 17.34375 C 47.542969 17.550781 47.511719 17.648438 47.75 17.742188 C 47.6875 17.855469 47.640625 17.980469 47.589844 18.109375 C 47.542969 18.15625 47.527344 18.125 47.480469 18.140625 C 47.304688 18.21875 47.386719 18.441406 47.164062 18.503906 C 47.164062 18.585938 47.113281 18.617188 47.097656 18.679688 C 47.082031 18.777344 47.097656 18.917969 47.128906 19.015625 C 47.148438 19.0625 47.242188 19.046875 47.210938 19.125 C 47.164062 19.125 47.113281 19.125 47.066406 19.140625 C 47.035156 19.347656 47.050781 19.539062 47.210938 19.648438 C 47.210938 19.777344 47.097656 19.96875 47.273438 20.03125 C 47.386719 20.207031 47.320312 20.382812 47.335938 20.554688 C 47.402344 20.621094 47.417969 20.699219 47.433594 20.792969 C 47.433594 20.808594 47.496094 20.90625 47.511719 20.921875 C 47.433594 21.207031 47.6875 21.320312 47.71875 21.589844 C 47.71875 21.605469 47.671875 21.636719 47.671875 21.652344 C 47.640625 21.921875 48.019531 21.84375 48.066406 22.066406 C 48.5625 22.019531 48.273438 22.160156 48.480469 22.367188 C 48.546875 22.351562 48.5625 22.304688 48.640625 22.304688 C 48.65625 22.351562 48.6875 22.429688 48.71875 22.496094 C 48.734375 22.496094 48.75 22.496094 48.75 22.496094 C 48.800781 22.542969 48.832031 22.574219 48.863281 22.621094 C 48.878906 22.574219 48.894531 22.542969 48.925781 22.527344 C 48.910156 22.304688 48.941406 22.113281 49.054688 21.921875 C 49.148438 21.875 49.023438 21.351562 49.132812 21.304688 C 49.148438 21.175781 49.261719 21.128906 49.292969 21.015625 C 49.324219 20.921875 49.277344 20.84375 49.324219 20.746094 C 49.386719 20.621094 49.53125 20.523438 49.5625 20.347656 C 49.578125 20.191406 49.402344 20.125 49.578125 19.984375 C 49.65625 19.921875 49.832031 19.871094 49.929688 19.9375 C 49.960938 19.902344 49.960938 19.902344 50.023438 19.921875 C 50.039062 19.871094 50.101562 19.839844 50.148438 19.824219 C 50.183594 19.871094 50.230469 19.886719 50.292969 19.886719 C 50.324219 19.777344 50.390625 19.746094 50.390625 19.617188 C 50.484375 19.585938 50.5625 19.441406 50.644531 19.410156 C 50.660156 19.332031 50.722656 19.285156 50.707031 19.1875 C 50.769531 19.15625 50.800781 19.0625 50.882812 19.078125 C 50.914062 19 50.769531 18.792969 50.914062 18.742188 C 50.929688 18.679688 51.039062 18.632812 51.089844 18.617188 C 51.214844 18.425781 51.550781 18.617188 51.773438 18.441406 C 51.804688 18.394531 51.867188 18.234375 51.945312 18.234375 C 52.027344 18.140625 52.105469 18.027344 52.25 17.996094 C 52.597656 17.773438 52.375 17.871094 52.40625 17.550781 Z M 48.339844 12.308594 C 48.609375 12.273438 48.894531 12.257812 49.164062 12.226562 C 48.878906 12.257812 48.609375 12.273438 48.339844 12.308594 Z M 48.339844 12.308594 " fill-opacity="1" fill-rule="nonzero"/><path fill="#08cb00" d="M 49.355469 42.171875 C 49.324219 42.140625 49.292969 42.125 49.261719 42.074219 C 49.179688 42.074219 49.132812 41.980469 49.101562 41.917969 C 49.085938 41.917969 49.085938 41.917969 49.070312 41.933594 C 49.054688 41.902344 49.023438 41.902344 49.007812 41.867188 C 48.910156 41.902344 48.816406 41.742188 48.769531 41.695312 C 48.640625 41.679688 48.402344 41.597656 48.355469 41.457031 C 48.324219 41.457031 48.308594 41.441406 48.289062 41.457031 C 48.257812 41.425781 48.242188 41.390625 48.210938 41.359375 C 48.164062 41.375 48.117188 41.359375 48.085938 41.328125 C 48.019531 41.375 47.894531 41.375 47.8125 41.359375 C 47.6875 41.265625 47.496094 41.121094 47.320312 41.152344 C 47.320312 41.136719 47.320312 41.121094 47.320312 41.105469 C 47.304688 41.089844 47.289062 41.089844 47.289062 41.074219 C 47.066406 40.945312 46.957031 40.820312 46.652344 40.867188 C 46.605469 40.804688 46.6875 40.804688 46.667969 40.757812 C 46.558594 40.550781 46.035156 40.582031 46.019531 40.328125 C 45.96875 40.296875 46.003906 40.265625 45.984375 40.230469 C 45.96875 40.183594 45.921875 40.136719 45.890625 40.089844 C 45.875 40.058594 45.8125 40.074219 45.8125 40.023438 C 45.8125 39.945312 45.875 39.976562 45.890625 39.929688 C 45.953125 39.820312 45.875 39.597656 45.746094 39.53125 C 45.765625 39.515625 45.746094 39.5 45.796875 39.484375 C 45.765625 39.375 45.542969 39.324219 45.476562 39.214844 C 45.398438 39.199219 45.367188 39.121094 45.269531 39.121094 C 45.269531 39.136719 45.253906 39.152344 45.253906 39.167969 C 45.03125 39.167969 44.875 39.085938 44.667969 39.007812 C 44.492188 38.992188 44.222656 38.898438 44.222656 38.691406 C 44.207031 38.675781 44.207031 38.675781 44.191406 38.660156 C 43.871094 38.53125 43.617188 38.164062 43.363281 37.941406 C 43.347656 37.941406 43.300781 37.960938 43.285156 37.976562 C 43.285156 37.992188 43.285156 37.992188 43.269531 38.007812 C 43.015625 38.070312 42.710938 37.722656 42.488281 37.894531 C 42.410156 37.941406 42.347656 37.894531 42.28125 37.863281 C 42.109375 37.847656 41.789062 37.976562 41.820312 37.6875 C 41.757812 37.703125 41.695312 37.640625 41.632812 37.65625 C 41.601562 37.578125 41.488281 37.625 41.410156 37.640625 C 41.410156 37.65625 41.410156 37.671875 41.394531 37.6875 C 41.34375 37.671875 41.265625 37.738281 41.234375 37.722656 C 41.171875 37.703125 41.203125 37.609375 41.105469 37.609375 C 41.15625 37.546875 41.34375 37.464844 41.3125 37.355469 C 41.1875 37.277344 41.105469 37.386719 41.011719 37.464844 C 40.867188 37.53125 40.742188 37.59375 40.628906 37.6875 C 40.628906 37.703125 40.628906 37.703125 40.613281 37.722656 C 40.519531 37.722656 40.421875 37.640625 40.328125 37.625 C 40.328125 37.671875 40.296875 37.6875 40.28125 37.722656 C 40.199219 37.738281 40.21875 37.976562 40.183594 38.054688 C 40.167969 38.054688 40.167969 38.070312 40.136719 38.085938 C 40.136719 38.101562 40.121094 38.117188 40.121094 38.148438 C 40.058594 38.148438 40.042969 38.199219 39.996094 38.246094 C 39.976562 38.230469 39.976562 38.230469 39.976562 38.214844 C 39.914062 38.199219 39.835938 38.199219 39.804688 38.117188 C 39.722656 38.070312 39.613281 38.054688 39.566406 37.992188 C 39.484375 37.992188 39.40625 37.992188 39.328125 37.992188 C 39.328125 38.007812 39.328125 38.007812 39.3125 38.023438 C 39.246094 37.992188 39.214844 38.039062 39.136719 38.054688 C 39.136719 38.070312 39.121094 38.070312 39.121094 38.085938 C 38.851562 38.085938 38.738281 37.863281 38.53125 37.738281 C 38.453125 37.640625 38.515625 37.53125 38.53125 37.433594 C 38.515625 37.226562 38.597656 37.039062 38.5625 36.832031 C 38.53125 36.71875 38.40625 36.273438 38.261719 36.273438 C 38.261719 36.289062 38.246094 36.289062 38.246094 36.304688 C 38.230469 36.289062 38.183594 36.304688 38.167969 36.289062 C 38.167969 36.304688 38.152344 36.320312 38.152344 36.339844 C 38.117188 36.320312 38.117188 36.339844 38.101562 36.304688 C 37.863281 36.195312 37.5625 36.304688 37.386719 36.082031 C 37.371094 36.082031 37.355469 36.082031 37.355469 36.082031 C 37.417969 35.925781 37.5625 35.796875 37.53125 35.605469 C 37.59375 35.589844 37.640625 35.558594 37.707031 35.574219 C 37.722656 35.449219 37.722656 35.351562 37.675781 35.226562 C 37.753906 35.035156 37.832031 34.988281 37.800781 34.75 C 37.769531 34.734375 37.738281 34.699219 37.738281 34.652344 C 37.546875 34.605469 37.453125 34.683594 37.292969 34.734375 C 37.308594 34.78125 37.324219 34.828125 37.308594 34.875 C 37.246094 34.875 37.246094 34.9375 37.195312 34.972656 C 37.179688 34.988281 37.117188 34.988281 37.085938 35.003906 C 37.070312 35.035156 37.039062 35.066406 36.992188 35.082031 C 37.007812 35.128906 37.023438 35.195312 37.039062 35.242188 C 36.816406 35.558594 36.769531 35.257812 36.640625 35.433594 C 36.59375 35.417969 36.546875 35.449219 36.515625 35.480469 C 36.433594 35.449219 36.433594 35.511719 36.371094 35.511719 C 36.324219 35.511719 36.273438 35.496094 36.226562 35.480469 C 36.210938 35.511719 36.195312 35.511719 36.179688 35.558594 C 35.847656 35.542969 35.734375 35.304688 35.765625 34.988281 C 35.304688 34.621094 35.609375 34.050781 35.542969 33.574219 C 35.625 33.429688 35.71875 33.285156 35.796875 33.128906 C 35.8125 33.078125 35.796875 33 35.832031 32.953125 C 35.910156 32.808594 36.101562 32.667969 36.242188 32.585938 C 36.371094 32.554688 36.449219 32.683594 36.5625 32.667969 C 36.753906 32.539062 36.976562 32.636719 37.132812 32.777344 C 37.417969 32.921875 37.386719 32.414062 37.675781 32.492188 C 37.816406 32.570312 37.863281 32.492188 37.992188 32.429688 C 38.101562 32.414062 38.230469 32.414062 38.292969 32.492188 C 38.324219 32.585938 38.453125 32.617188 38.5625 32.617188 C 38.546875 32.714844 38.613281 32.730469 38.660156 32.714844 C 38.753906 32.667969 38.769531 32.570312 38.816406 32.746094 C 38.867188 32.921875 38.816406 33.113281 38.898438 33.269531 C 38.976562 33.398438 39.039062 33.523438 39.074219 33.667969 C 39.089844 33.714844 39.136719 33.859375 39.183594 33.90625 C 39.246094 33.953125 39.3125 33.90625 39.359375 33.984375 C 39.550781 33.523438 39.375 33.03125 39.390625 32.539062 C 39.34375 32.363281 39.246094 32.207031 39.328125 32.03125 C 39.421875 32 39.46875 31.902344 39.582031 31.871094 C 39.835938 31.777344 39.914062 31.472656 40.183594 31.394531 C 40.28125 31.363281 40.40625 31.269531 40.503906 31.332031 C 40.820312 31.046875 40.4375 30.839844 40.695312 30.679688 C 40.613281 30.503906 40.644531 30.363281 40.757812 30.21875 C 40.835938 30.058594 40.933594 29.851562 41.089844 29.710938 C 41.265625 29.582031 41.472656 29.503906 41.664062 29.375 C 41.695312 29.34375 41.710938 29.3125 41.742188 29.28125 C 41.773438 29.265625 41.820312 29.28125 41.855469 29.265625 C 41.871094 29.28125 41.902344 29.296875 41.917969 29.3125 C 41.964844 29.171875 42.0625 29.21875 42.171875 29.152344 C 42.09375 28.996094 42.21875 28.691406 42.265625 28.550781 C 42.347656 28.503906 42.425781 28.40625 42.519531 28.375 C 42.519531 28.359375 42.539062 28.359375 42.539062 28.34375 C 42.726562 28.359375 42.871094 28.167969 43.03125 28.199219 C 43.0625 28.105469 43.253906 27.992188 43.316406 27.960938 C 43.332031 27.976562 43.347656 27.976562 43.363281 27.976562 C 43.410156 27.945312 43.460938 27.914062 43.507812 27.867188 C 43.507812 27.835938 43.523438 27.804688 43.570312 27.769531 C 43.554688 27.804688 43.523438 27.835938 43.507812 27.867188 C 43.460938 28.105469 43.238281 28.265625 43.140625 28.453125 C 43.1875 28.472656 43.222656 28.472656 43.253906 28.4375 C 43.253906 28.421875 43.269531 28.421875 43.269531 28.40625 C 43.410156 28.421875 43.460938 28.34375 43.585938 28.296875 C 43.648438 28.136719 43.839844 28.3125 43.953125 28.230469 C 43.984375 28.058594 44.125 28.105469 44.175781 27.976562 C 44.238281 27.960938 44.285156 27.960938 44.347656 27.992188 C 44.347656 27.976562 44.347656 27.976562 44.363281 27.960938 C 44.429688 27.976562 44.460938 27.929688 44.539062 27.929688 C 44.539062 27.914062 44.539062 27.914062 44.554688 27.898438 C 44.636719 27.882812 44.683594 27.804688 44.746094 27.789062 C 44.761719 27.722656 44.746094 27.660156 44.667969 27.644531 C 44.621094 27.515625 44.792969 27.46875 44.667969 27.34375 C 44.523438 27.484375 44.285156 27.851562 44.09375 27.566406 C 43.761719 27.53125 43.871094 27.40625 43.714844 27.167969 C 43.746094 27.136719 43.792969 27.070312 43.824219 27.039062 C 43.824219 27.023438 43.839844 26.992188 43.839844 26.976562 C 43.9375 26.882812 44 26.753906 43.984375 26.578125 C 43.96875 26.578125 43.953125 26.578125 43.9375 26.5625 C 43.921875 26.53125 43.902344 26.5 43.902344 26.46875 C 43.792969 26.578125 43.683594 26.484375 43.539062 26.515625 C 43.171875 26.675781 42.886719 26.992188 42.523438 27.199219 C 42.523438 27.199219 42.523438 27.214844 42.523438 27.214844 C 42.523438 27.214844 42.503906 27.214844 42.503906 27.214844 C 42.503906 27.214844 42.523438 27.199219 42.523438 27.199219 C 42.523438 27.039062 42.792969 26.960938 42.808594 26.816406 C 42.886719 26.785156 42.886719 26.691406 42.964844 26.675781 C 43 26.609375 43.09375 26.53125 43.171875 26.546875 C 43.1875 26.484375 43.238281 26.484375 43.253906 26.4375 C 43.285156 26.421875 43.285156 26.421875 43.316406 26.371094 C 43.363281 26.339844 43.394531 26.292969 43.460938 26.308594 C 43.460938 26.292969 43.476562 26.292969 43.476562 26.277344 C 43.492188 26.277344 43.507812 26.292969 43.523438 26.277344 C 43.523438 26.261719 43.539062 26.261719 43.539062 26.246094 C 43.632812 26.261719 43.699219 26.183594 43.792969 26.246094 C 43.792969 26.230469 43.792969 26.230469 43.808594 26.214844 C 43.96875 26.230469 44.125 26.132812 44.269531 26.117188 C 44.285156 26.148438 44.316406 26.183594 44.363281 26.183594 C 44.363281 26.167969 44.363281 26.167969 44.382812 26.148438 C 44.523438 26.101562 44.714844 26.101562 44.84375 26.183594 C 44.84375 26.167969 44.859375 26.167969 44.859375 26.148438 C 44.984375 26.101562 45.082031 26.070312 45.207031 26.085938 C 45.207031 25.894531 45.542969 25.753906 45.683594 25.738281 C 45.746094 25.738281 45.746094 25.785156 45.828125 25.738281 C 45.828125 25.722656 45.84375 25.722656 45.84375 25.707031 C 45.875 25.707031 45.890625 25.707031 45.921875 25.707031 C 45.890625 25.671875 45.890625 25.625 45.90625 25.578125 C 45.984375 25.46875 46.160156 25.417969 46.144531 25.246094 C 46.367188 25.226562 46.066406 25.039062 46.003906 25.023438 C 45.953125 24.800781 45.699219 24.925781 45.714844 24.578125 C 45.683594 24.578125 45.636719 24.5625 45.605469 24.5625 C 45.621094 24.257812 45.269531 24.164062 45.113281 23.972656 C 45.082031 23.605469 45 23.847656 44.9375 23.671875 C 44.921875 23.558594 45.0625 23.273438 44.859375 23.242188 C 44.761719 23.066406 44.859375 22.859375 44.84375 22.683594 C 44.746094 22.496094 44.746094 22.222656 44.652344 22.035156 C 44.492188 22.066406 44.492188 22.574219 44.253906 22.558594 C 44.269531 22.667969 44.109375 22.988281 44.015625 23.050781 C 43.921875 23.113281 43.953125 23.050781 43.871094 23.019531 C 43.777344 22.988281 43.714844 23.050781 43.632812 23.019531 C 43.601562 22.890625 43.664062 22.796875 43.632812 22.667969 C 43.570312 22.558594 43.507812 22.511719 43.476562 22.398438 C 43.476562 22.382812 43.492188 22.382812 43.507812 22.382812 C 43.460938 22.191406 43.585938 22.019531 43.730469 21.875 C 43.664062 21.699219 43.332031 22.003906 43.269531 21.730469 C 43.253906 21.730469 43.238281 21.714844 43.222656 21.714844 C 43.1875 21.429688 42.742188 21.222656 42.617188 21.542969 C 42.503906 21.574219 42.21875 21.460938 42.15625 21.382812 C 41.933594 21.761719 42.109375 22.273438 41.871094 22.652344 C 41.820312 22.734375 41.726562 22.828125 41.648438 22.875 C 41.617188 22.972656 41.757812 23.195312 41.820312 23.242188 C 41.886719 23.527344 41.617188 23.71875 41.550781 24.003906 C 41.488281 24.132812 41.410156 24.304688 41.265625 24.371094 C 41.21875 24.386719 41.140625 24.339844 41.105469 24.433594 C 41.089844 24.480469 41.171875 24.527344 41.171875 24.546875 C 41.203125 24.671875 41.089844 24.785156 41.121094 24.925781 C 41.15625 25.070312 41.234375 25.101562 41.203125 25.261719 C 41.1875 25.46875 41.074219 25.402344 40.964844 25.53125 C 40.882812 25.65625 40.851562 25.800781 40.773438 25.929688 C 40.804688 25.671875 40.488281 25.738281 40.535156 25.339844 C 40.566406 25.132812 40.328125 24.988281 40.4375 24.765625 C 40.550781 24.671875 40.660156 24.480469 40.628906 24.304688 C 40.566406 24.289062 40.519531 24.339844 40.457031 24.355469 C 40.3125 24.355469 40.011719 24.433594 39.980469 24.242188 C 39.851562 24.210938 39.789062 24.179688 39.738281 24.066406 C 39.566406 24.148438 39.582031 24.003906 39.46875 23.925781 C 39.390625 23.863281 39.246094 23.863281 39.183594 23.796875 C 39.074219 23.71875 39.121094 23.558594 38.945312 23.589844 C 38.851562 23.605469 38.785156 23.703125 38.660156 23.640625 C 38.722656 23.542969 38.5625 23.144531 38.675781 23.113281 C 38.722656 22.941406 38.453125 23.066406 38.390625 23.097656 C 38.390625 23.050781 38.40625 23.003906 38.4375 22.988281 C 38.4375 22.925781 38.46875 22.84375 38.484375 22.78125 C 38.53125 22.75 38.484375 22.683594 38.5625 22.667969 C 38.660156 22.589844 38.578125 22.257812 38.769531 22.222656 C 38.816406 22.097656 38.976562 22.066406 38.992188 21.890625 C 39.121094 21.875 39.152344 21.574219 39.246094 21.574219 C 39.246094 21.558594 39.261719 21.558594 39.261719 21.542969 C 39.40625 21.523438 39.5 21.367188 39.628906 21.320312 C 39.691406 21.269531 40.027344 21.097656 39.738281 21.046875 C 39.773438 21 39.867188 20.921875 39.945312 20.953125 C 39.996094 20.921875 39.996094 20.921875 40.042969 20.921875 C 40.042969 20.90625 40.058594 20.890625 40.058594 20.875 C 40.105469 20.890625 40.152344 20.875 40.199219 20.859375 C 40.25 20.761719 40.375 20.746094 40.472656 20.714844 C 40.472656 20.699219 40.472656 20.699219 40.488281 20.683594 L 40.457031 20.667969 C 40.488281 20.652344 40.488281 20.636719 40.503906 20.621094 C 40.472656 20.570312 40.519531 20.539062 40.550781 20.492188 C 40.710938 20.316406 40.265625 20.222656 40.375 19.96875 C 40.472656 19.984375 40.535156 20.09375 40.597656 20.160156 C 40.660156 20.125 40.710938 20.160156 40.742188 20.207031 C 40.773438 20.160156 40.820312 20.09375 40.851562 20.046875 C 40.917969 19.96875 41.027344 19.984375 41.011719 19.855469 C 41.074219 19.761719 41.042969 19.648438 41.25 19.679688 C 41.265625 19.699219 41.265625 19.699219 41.28125 19.714844 C 41.25 19.871094 41.378906 19.871094 41.457031 19.824219 C 41.519531 19.777344 41.566406 19.679688 41.648438 19.617188 C 41.757812 19.523438 42.042969 19.425781 42.203125 19.394531 C 42.25 19.15625 41.855469 18.964844 42.171875 18.761719 C 42.21875 18.617188 42.25 18.503906 42.378906 18.425781 C 42.394531 18.347656 42.378906 18.140625 42.265625 18.125 C 42.234375 18.125 42.234375 18.171875 42.171875 18.171875 C 42.042969 18.171875 41.871094 18.125 41.757812 18.078125 C 41.804688 18.394531 41.441406 18.410156 41.425781 18.695312 C 41.378906 18.886719 41.28125 19.222656 41.074219 19.316406 C 41.042969 19.238281 41.105469 19.203125 41.121094 19.15625 C 41.140625 19.109375 41.140625 19.03125 41.15625 18.980469 C 41.171875 18.980469 41.171875 18.980469 41.1875 18.964844 C 41.011719 18.855469 41.074219 18.777344 41.089844 18.585938 C 41.15625 18.554688 41.089844 18.425781 41.027344 18.394531 C 40.996094 18.488281 40.933594 18.601562 40.820312 18.570312 C 40.820312 18.519531 40.820312 18.457031 40.804688 18.394531 C 40.710938 18.378906 40.679688 18.234375 40.582031 18.300781 C 40.519531 18.1875 40.359375 18.234375 40.359375 18.363281 C 40.21875 18.363281 40.234375 18.457031 40.136719 18.519531 C 40.089844 18.570312 40.058594 18.539062 40.011719 18.601562 C 39.960938 18.855469 39.804688 19 39.628906 19.171875 C 39.613281 19.078125 39.613281 19 39.566406 18.902344 C 39.628906 18.855469 39.597656 18.710938 39.535156 18.664062 C 39.484375 18.761719 39.359375 18.777344 39.277344 18.871094 C 39.199219 18.980469 39.199219 19.015625 39.089844 19.0625 C 39.007812 19.125 38.882812 19.109375 38.769531 19.140625 C 38.660156 19.171875 38.597656 19.238281 38.453125 19.1875 C 38.261719 19.476562 38.054688 19.078125 38.054688 18.886719 C 37.976562 19.0625 37.753906 18.808594 37.640625 19.0625 C 37.402344 19.410156 37.308594 19.378906 36.925781 19.332031 C 36.847656 19.300781 36.785156 19.300781 36.6875 19.332031 C 36.53125 19.253906 36.433594 19.363281 36.273438 19.347656 C 36.257812 19.316406 36.257812 19.269531 36.273438 19.253906 C 36.339844 19.238281 36.417969 19.222656 36.496094 19.1875 C 36.496094 19.171875 36.496094 19.171875 36.515625 19.15625 C 36.609375 19.140625 36.671875 19 36.65625 18.917969 C 36.324219 18.742188 35.847656 18.855469 35.8125 18.363281 C 35.8125 18.347656 35.796875 18.332031 35.796875 18.316406 C 33.796875 20.332031 32.191406 22.75 31.125 25.449219 C 31.125 25.449219 31.140625 25.46875 31.140625 25.46875 C 31.15625 25.484375 31.15625 25.484375 31.171875 25.5 C 31.1875 25.484375 31.207031 25.449219 31.207031 25.433594 C 31.476562 25.800781 31.316406 25.800781 31.332031 26.199219 C 31.363281 26.308594 31.378906 26.324219 31.363281 26.4375 C 31.363281 26.578125 31.539062 27.089844 31.761719 26.898438 C 31.808594 26.929688 31.808594 26.992188 31.777344 27.023438 C 31.746094 27.152344 31.570312 27.230469 31.460938 27.261719 C 31.363281 27.375 31.632812 27.675781 31.507812 27.738281 C 31.507812 27.820312 31.460938 27.898438 31.460938 27.976562 C 31.394531 28.011719 31.460938 28.230469 31.378906 28.28125 C 31.378906 28.359375 31.347656 28.421875 31.332031 28.488281 C 31.253906 28.535156 31.207031 28.726562 31.1875 28.820312 C 31.125 28.835938 31.125 29.011719 31.046875 29.074219 C 31.207031 29.25 30.933594 29.441406 31.015625 29.632812 C 31 29.851562 31.15625 30.042969 31.125 30.265625 C 31.269531 30.648438 31.445312 31.03125 31.523438 31.425781 C 31.96875 31.570312 31.871094 32.03125 32.109375 32.347656 C 32.238281 32.523438 32.175781 32.777344 32.269531 32.984375 C 32.398438 33.191406 32.445312 33.335938 32.398438 33.574219 C 33.050781 33.746094 32.636719 34.175781 33.160156 34.382812 C 33.191406 34.222656 33.050781 34.175781 33.050781 34.035156 C 33.015625 34 32.984375 33.875 32.984375 33.828125 C 32.875 33.777344 32.828125 33.589844 32.84375 33.460938 C 32.828125 33.445312 32.828125 33.429688 32.8125 33.398438 C 32.699219 33.316406 32.777344 33.222656 32.714844 33.128906 C 32.570312 33.03125 32.507812 32.890625 32.507812 32.714844 C 32.445312 32.667969 32.398438 32.570312 32.367188 32.476562 C 32.269531 32.429688 32.367188 32.253906 32.367188 32.15625 C 32.351562 32.0625 32.238281 31.917969 32.351562 31.839844 C 32.699219 31.96875 32.554688 32.269531 32.8125 32.253906 C 32.828125 32.316406 32.828125 32.414062 32.8125 32.476562 C 32.761719 32.808594 33.097656 33.144531 33.253906 33.414062 C 33.335938 33.523438 33.476562 33.523438 33.492188 33.683594 C 33.527344 33.859375 33.460938 34.066406 33.621094 34.191406 C 33.683594 34.257812 33.667969 34.238281 33.699219 34.320312 C 33.796875 34.542969 34.191406 34.542969 33.988281 34.84375 C 33.921875 34.875 34.003906 34.890625 33.988281 34.9375 C 33.84375 35.257812 34.210938 35.335938 34.433594 35.449219 C 34.589844 35.621094 34.78125 35.734375 34.957031 35.894531 C 35.003906 36.019531 35.132812 36.050781 35.257812 36.050781 C 35.480469 36.097656 35.65625 36.226562 35.878906 36.242188 C 35.972656 36.226562 36.019531 36.117188 36.117188 36.082031 C 36.257812 36.050781 36.308594 36.210938 36.386719 36.289062 C 36.769531 36.480469 36.957031 36.941406 37.4375 36.972656 C 37.675781 37.003906 37.738281 37.277344 37.847656 37.464844 C 37.992188 37.722656 38.292969 37.816406 38.421875 38.085938 C 38.5 38.277344 38.578125 38.324219 38.785156 38.355469 C 39.007812 38.308594 39.152344 38.722656 39.230469 38.339844 C 39.230469 38.339844 39.3125 38.246094 39.3125 38.246094 C 39.644531 38.054688 40.183594 38.929688 39.914062 39.214844 C 39.835938 39.308594 39.789062 39.40625 39.773438 39.546875 C 39.738281 39.5625 39.738281 39.613281 39.773438 39.644531 C 39.722656 39.675781 39.675781 39.691406 39.613281 39.722656 C 39.597656 39.820312 39.453125 39.851562 39.4375 39.945312 C 39.390625 39.976562 39.4375 40.042969 39.46875 40.074219 C 39.4375 40.089844 39.40625 40.136719 39.40625 40.183594 C 39.246094 40.152344 39.058594 40.613281 39.277344 40.644531 C 39.296875 40.722656 39.277344 40.820312 39.296875 40.898438 C 39.375 40.898438 39.582031 40.914062 39.550781 41.042969 C 39.484375 41.027344 39.296875 41.058594 39.277344 41.121094 C 39.136719 41.234375 39.261719 41.441406 39.34375 41.566406 C 39.375 41.644531 39.3125 41.757812 39.375 41.835938 C 39.738281 42.027344 39.628906 42.089844 39.835938 42.410156 C 39.882812 42.566406 39.996094 42.679688 40.074219 42.824219 C 40.074219 43.011719 40.199219 43.109375 40.34375 43.21875 C 40.582031 43.410156 40.582031 43.808594 40.867188 43.933594 C 41.011719 44.03125 41.011719 44.238281 41.21875 44.269531 C 41.234375 44.378906 41.34375 44.347656 41.410156 44.410156 C 41.535156 44.539062 41.503906 44.683594 41.726562 44.601562 C 42.078125 44.90625 41.980469 45.476562 41.996094 45.90625 C 42.011719 45.96875 42.078125 46.113281 41.980469 46.128906 C 42.09375 46.445312 42.28125 46.875 42.09375 47.226562 C 42.09375 47.464844 42.25 47.703125 42.203125 47.957031 C 42.1875 47.957031 42.171875 47.972656 42.15625 47.972656 C 42.523438 48.132812 42.363281 48.59375 42.316406 48.910156 C 42.265625 49.339844 42.679688 49.671875 42.601562 50.085938 C 42.886719 50.355469 42.761719 50.785156 42.980469 51.101562 C 43.0625 51.375 43.125 51.421875 43.363281 51.53125 C 43.648438 51.835938 43.699219 52.277344 43.96875 52.597656 C 44.0625 52.691406 44.175781 52.691406 44.285156 52.722656 C 44.507812 52.789062 44.683594 52.929688 44.875 53.027344 C 45 53.058594 45.269531 52.960938 45.304688 53.167969 C 45.398438 53.199219 45.507812 53.121094 45.589844 53.074219 C 45.667969 53.042969 45.78125 53.027344 45.828125 52.960938 C 45.507812 53.042969 45.253906 52.804688 45.207031 52.484375 C 45.097656 52.46875 44.9375 52.375 44.875 52.277344 C 44.808594 52.277344 44.777344 52.230469 44.746094 52.183594 C 44.652344 52.199219 44.476562 52.105469 44.492188 51.976562 C 44.476562 51.976562 44.476562 51.976562 44.460938 51.960938 C 44.636719 51.691406 44.777344 51.691406 44.652344 51.308594 C 44.585938 51.339844 44.476562 51.308594 44.476562 51.230469 C 44.347656 51.167969 44.078125 51.246094 44.109375 50.960938 C 44.03125 50.914062 44.207031 50.738281 44.238281 50.65625 C 44.253906 50.515625 44.285156 50.355469 44.285156 50.214844 C 44.175781 50.132812 44.125 50.039062 44.078125 49.910156 C 44.253906 49.976562 44.429688 50.070312 44.585938 49.863281 C 44.761719 49.625 44.414062 49.703125 44.398438 49.546875 C 44.269531 49.480469 44.445312 49.417969 44.523438 49.417969 C 44.605469 49.417969 44.714844 49.449219 44.761719 49.371094 C 44.9375 49.433594 45.207031 49.371094 45.175781 49.148438 C 45.082031 49.070312 45.097656 48.894531 45.046875 48.765625 C 44.921875 48.734375 44.808594 48.609375 44.761719 48.480469 C 44.953125 48.496094 45.160156 48.496094 45.320312 48.574219 C 45.382812 48.574219 45.398438 48.527344 45.445312 48.527344 C 45.589844 48.496094 45.574219 48.527344 45.683594 48.417969 C 45.8125 48.273438 45.78125 48.132812 45.859375 48.003906 C 45.96875 47.890625 46.097656 47.796875 46.128906 47.621094 C 46.273438 47.621094 46.289062 47.320312 46.351562 47.226562 C 46.480469 47.128906 46.464844 46.972656 46.445312 46.828125 C 46.304688 46.667969 46.574219 46.511719 46.6875 46.460938 C 46.75 46.414062 46.75 46.269531 46.8125 46.222656 C 46.90625 46.191406 47.050781 46.238281 47.128906 46.144531 C 47.273438 46.03125 47.367188 46 47.511719 46.097656 C 47.605469 46.113281 47.625 46.066406 47.6875 46.015625 C 47.894531 45.9375 48.003906 45.730469 48.019531 45.507812 C 48.324219 45.285156 48.289062 44.761719 48.402344 44.429688 C 48.273438 44.125 48.417969 44.015625 48.433594 43.746094 C 48.769531 43.761719 48.769531 43.394531 48.941406 43.234375 C 49.054688 43.140625 49.164062 43.0625 49.230469 42.902344 C 49.246094 42.726562 49.339844 42.585938 49.386719 42.410156 C 49.371094 42.363281 49.339844 42.234375 49.355469 42.171875 Z M 49.355469 42.171875 " fill-opacity="1" fill-rule="nonzero"/><g clip-path="url(#c8afb6f1ce)"><path fill="#08cb00" d="M 50.5625 9.511719 C 59.894531 9.730469 68.285156 15.359375 71.894531 23.988281 C 75.597656 32.746094 73.546875 42.996094 66.742188 49.625 C 60.5625 55.679688 51.5 57.777344 43.285156 55.042969 C 35.113281 52.359375 28.996094 45.128906 27.691406 36.625 C 27.28125 33.953125 27.328125 31.203125 27.820312 28.550781 C 28.21875 26.800781 28.917969 24.832031 30.140625 22.78125 C 38.390625 8.953125 29.742188 1.515625 29.742188 1.515625 C 26.707031 7.601562 21.113281 8 20.460938 16.390625 C 20.113281 20.890625 22.160156 25.769531 24.132812 29.3125 C 23.832031 26.421875 23.832031 23.496094 24.179688 20.585938 C 24.609375 17.171875 25.578125 13.785156 27.296875 10.796875 C 27.882812 9.765625 28.566406 8.761719 29.3125 7.839844 C 29.3125 7.839844 29.632812 7.445312 29.632812 7.445312 C 29.519531 7.617188 29.3125 7.921875 29.203125 8.078125 C 29.105469 8.238281 28.964844 8.460938 28.867188 8.621094 C 28.011719 10.019531 27.3125 11.527344 26.785156 13.070312 C 25.230469 17.710938 25.132812 22.703125 25.882812 27.515625 C 26.183594 29.425781 26.277344 31.347656 26.261719 33.285156 C 26.261719 33.746094 26.261719 34.207031 26.292969 34.667969 C 26.308594 34.988281 26.34375 35.417969 26.375 35.75 C 27.183594 44.617188 32.84375 52.3125 41.027344 55.824219 C 46.957031 58.351562 53.855469 58.414062 59.8125 55.949219 C 60.242188 55.792969 60.703125 55.554688 61.132812 55.363281 C 61.386719 55.234375 61.738281 55.058594 61.992188 54.917969 C 62.292969 54.773438 62.960938 54.378906 63.246094 54.203125 C 63.582031 53.996094 63.914062 53.757812 64.265625 53.550781 C 64.550781 53.34375 64.964844 53.058594 65.25 52.851562 C 65.519531 52.628906 65.917969 52.328125 66.1875 52.105469 C 66.488281 51.835938 66.789062 51.578125 67.09375 51.308594 C 68.839844 49.6875 70.398438 47.78125 71.589844 45.714844 C 72.304688 44.492188 72.941406 43.15625 73.433594 41.804688 C 73.59375 41.375 73.753906 40.882812 73.894531 40.4375 C 74.023438 39.992188 74.164062 39.5 74.261719 39.039062 C 74.386719 38.484375 74.53125 37.738281 74.625 37.164062 C 74.675781 36.894531 74.707031 36.496094 74.753906 36.210938 L 74.816406 35.734375 C 74.832031 35.496094 74.863281 35.019531 74.878906 34.78125 C 75.613281 20.9375 64.4375 9.175781 50.5625 9.511719 Z M 50.5625 9.511719 " fill-opacity="1" fill-rule="nonzero"/></g><g clip-path="url(#c3bbca7214)"><path fill="#08cb00" d="M 9.128906 15.3125 C 10.925781 19.554688 9.035156 23.066406 12.816406 26.769531 C 14.851562 28.757812 17.933594 29.441406 20.382812 29.648438 C 18.886719 28.675781 17.472656 27.53125 16.21875 26.183594 C 14.738281 24.578125 13.484375 22.652344 12.671875 20.445312 C 12.386719 19.679688 12.164062 18.886719 12.007812 18.058594 C 12.007812 18.058594 11.941406 17.710938 11.941406 17.710938 C 11.972656 17.855469 12.054688 18.09375 12.085938 18.21875 C 12.117188 18.347656 12.179688 18.519531 12.210938 18.632812 C 12.5625 19.699219 13.023438 20.714844 13.578125 21.652344 C 15.582031 25.023438 18.632812 27.277344 21.859375 28.742188 C 22.574219 29.058594 23.289062 29.34375 24.039062 29.597656 C 23.003906 28.929688 20.777344 27.214844 19.492188 23.433594 C 15.898438 13.007812 9.128906 15.3125 9.128906 15.3125 Z M 9.128906 15.3125 " fill-opacity="1" fill-rule="nonzero"/></g></svg>